<?xml version="1.0" encoding="UTF-8"?>
<svg width="339px" height="207px" viewBox="0 0 339 207" version="1.1" xmlns="http://www.w3.org/2000/svg" xmlns:xlink="http://www.w3.org/1999/xlink">
    <title>暂无冲刺</title>
    <g id="页面-1" stroke="none" stroke-width="1" fill="none" fill-rule="evenodd">
        <g id="新主题缺省图" transform="translate(-925.000000, -399.000000)">
            <g id="暂无冲刺" transform="translate(926.000000, 400.000000)">
                <g id="编组-21" transform="translate(144.898283, 15.000000)">
                    <line x1="0" y1="6" x2="12" y2="6" id="直线-8" stroke="#5365EA" stroke-width="1.5" stroke-linecap="square"></line>
                    <line x1="0" y1="6" x2="12" y2="6" id="直线-8" stroke="#5365EA" stroke-width="1.5" stroke-linecap="square" transform="translate(6.000000, 6.000000) rotate(90.000000) translate(-6.000000, -6.000000) "></line>
                    <rect id="矩形" fill="#5365EA" transform="translate(6.000000, 6.000000) rotate(45.000000) translate(-6.000000, -6.000000) " x="2" y="2" width="8" height="8"></rect>
                </g>
                <g id="编组-21" transform="translate(189.916332, 0.500000)" stroke="#5365EA">
                    <line x1="0" y1="3" x2="6" y2="3" id="直线-8" stroke-width="1.5" stroke-linecap="square"></line>
                    <polygon id="矩形" fill="#5365EA" transform="translate(3.000000, 3.000000) rotate(45.000000) translate(-3.000000, -3.000000) " points="1.25 1.25 4.75 1.25 4.75 4.75 1.25 4.75"></polygon>
                    <line x1="1.00280713e-15" y1="3" x2="6" y2="3" id="直线-8" stroke-width="1.5" stroke-linecap="square" transform="translate(3.000000, 3.000000) rotate(90.000000) translate(-3.000000, -3.000000) "></line>
                </g>
                <g id="编组-23" transform="translate(24.312697, 51.036408) rotate(-22.000000) translate(-24.312697, -51.036408) translate(4.812697, 36.036408)">
                    <path d="M37.7559324,18.8046834 C37.7559324,21.0814776 35.9650714,22.9271839 33.7559324,22.9271839 L16.125,22.9271839 L9.41846282,29.6876359 C9.26434601,29.8429787 9.06446482,29.9426113 8.8501687,29.9732625 L8.72011203,29.9837737 C8.20731041,29.9891935 7.78020784,29.6080616 7.71670144,29.1114234 L7.70862697,28.9948878 L7.638,22.9271839 L4,22.9271839 C1.790861,22.9271839 1.8189894e-12,21.0814776 1.8189894e-12,18.8046834 L0.374606593,4.12250041 C0.374606593,1.8457063 2.16546759,8.86757334e-12 4.37460659,8.86757334e-12 L34.130539,8.86757334e-12 C36.339678,8.86757334e-12 38.130539,1.8457063 38.130539,4.12250041 C38.130539,10.616142 37.7559324,15.0543583 37.7559324,15.5827816" id="路径" stroke="#0F1358" stroke-linecap="round" stroke-linejoin="round"></path>
                    <g id="编组" transform="translate(11.649373, 4.785122)" fill-rule="nonzero">
                        <path d="M7.62686567,3.81923714 C6.51243781,5.16583746 7.53399669,6.28026532 7.62686567,6.37313433 C7.71973465,6.46600331 8.83416251,7.48756219 10.1807629,6.37313433 C11.3416252,5.11940299 10.3200663,3.86567164 10.2271973,3.77280266 C10.0878939,3.72636816 8.88059701,2.6583748 7.62686567,3.81923714 Z" id="路径" fill="#000000"></path>
                        <path d="M0.383084577,11.2023217 L1.68325042,9.9021559 C1.82255391,9.76285241 2.10116087,9.76285241 2.19402985,9.9021559 C2.33333333,10.0414594 2.33333333,10.3200663 2.19402985,10.4129353 L0.893864004,11.7131012 C0.754560522,11.8524047 0.475953556,11.8524047 0.383084577,11.7131012 C0.290215598,11.6202322 0.290215598,11.3416252 0.383084577,11.2023217 Z M1.21890547,13.384743 C1.07960199,13.5240464 0.800995025,13.5240464 0.708126046,13.384743 C0.568822563,13.2454395 0.568822563,12.9668325 0.708126046,12.8739635 L2.6119403,10.9701493 C2.75124378,10.8308458 3.02985075,10.8308458 3.12271973,10.9701493 C3.26202321,11.1094527 3.26202321,11.3880597 3.12271973,11.4809287 L1.21890547,13.384743 Z M4.00497512,12.3631841 L3.07628525,13.291874 C2.93698177,13.4311774 2.6583748,13.4311774 2.5655058,13.291874 C2.42620231,13.1525705 2.42620231,12.8739635 2.5655058,12.7810945 L3.4941957,11.8524047 C3.63349918,11.7131012 3.91210615,11.7131012 4.00497512,11.8524047 C4.0978441,11.9917081 4.14427861,12.2238806 4.00497512,12.3631841 Z M10.5986733,9.43781095 C10.7844113,10.4129353 10.7379768,11.6666667 9.48424545,12.73466 C8.23051411,13.8026534 6.32669985,13.4311774 5.90878938,12.9668325 C5.53731343,12.5024876 6.00165836,12.3167496 6.00165838,12.3167496 L6.46600331,11.5737977 C6.46600331,11.5737977 4.8872305,11.9452736 4.65505803,11.7131012 L3.44776119,10.5058043 L2.24046435,9.29850746 C2.05472637,9.11276948 2.37976784,7.48756219 2.37976784,7.48756219 L1.63681592,7.95190714 C1.63681592,7.95190714 1.45107793,8.36981759 0.986733011,7.99834162 C0.52238806,7.62686567 0.150912115,5.67661692 1.21890547,4.42288557 C2.28689883,3.16915423 3.54063017,3.12271973 4.51575455,3.30845771 C7.99834162,-0.266998333 12.5024876,1.03316749 12.73466,1.12603649 C12.8739635,1.54394694 14.1276948,6.00165838 10.5986733,9.43781095 L10.5986733,9.43781095 Z" id="形状" fill="#5365EA"></path>
                    </g>
                </g>
                <path d="M282,167.5 L338,167.5 C337.666667,163.833333 336.166667,162 333.5,162 C329.5,162 327.5,164 326.5,164 C325.5,164 322.5,157 317.5,156 C312.5,155 310.5,159 308.5,159 C306.5,159 307.578188,152.767374 297.5,156 C290.781208,158.155084 285.614541,161.988418 282,167.5 Z" id="直线-9" fill-opacity="0.32" fill="#D9E6F2"></path>
                <g id="审核-(2)" transform="translate(1.677874, 105.270665)" fill="#D9E6F2" fill-rule="nonzero" opacity="0.32">
                    <path d="M19.6733295,21.1037788 L17.2851267,18.6543779 C17.8474467,17.7836365 18.1460101,16.7688795 18.1448502,15.7323502 C18.1448502,12.802212 15.8311175,10.4265438 12.9761866,10.4265438 C10.1219931,10.4265438 7.80752304,12.802212 7.80752304,15.7323502 C7.80752304,18.6624885 10.1219931,21.0374194 12.9761866,21.0374194 C13.9925319,21.0370231 14.9850589,20.7296533 15.8237442,20.155576 L18.2104723,22.6057143 C18.3521073,22.751669 18.5468163,22.8340386 18.7501958,22.8340386 C18.9535754,22.8340386 19.1482844,22.751669 19.2899194,22.6057143 L19.6718548,22.2134562 C19.9692311,21.9036184 19.9692311,21.4143539 19.6718548,21.1045161 L19.6733295,21.1037788 Z M15.7684447,17.0956682 C15.467298,17.7485135 14.9511581,18.2781881 14.3063249,18.596129 C13.8935339,18.8029906 13.4386392,18.9119837 12.976924,18.9146544 C11.2641129,18.9146544 9.87646313,17.4894009 9.87646313,15.7316129 C9.87646313,13.9730876 11.2641129,12.5478341 12.976924,12.5478341 C14.689735,12.5478341 16.0781221,13.9730876 16.0781221,15.7316129 C16.0781221,16.2219355 15.9608871,16.6812903 15.7684447,17.0956682 L15.7684447,17.0956682 Z M6.23480415,16.7247926 L3.7057719,16.7247926 C3.27296085,16.7247926 2.91904379,16.3612903 2.91904377,15.916682 C2.91904377,15.4720737 3.27296083,15.1078341 3.70650922,15.1078341 L6.19130185,15.1078341 C6.25467347,14.3654913 6.43509106,13.6378485 6.72586406,12.9518894 L3.70650922,12.9518894 C3.27296083,12.9518894 2.91904377,12.5883871 2.91904377,12.1437788 C2.91904377,11.6991705 3.27296083,11.3349309 3.70650922,11.3349309 L7.68660138,11.3349309 C8.45794727,10.3587405 9.482446,9.61300132 10.6484447,9.17898618 L3.70650922,9.17898618 C3.27296083,9.17898618 2.91904377,8.81548388 2.91904377,8.37087558 C2.91904377,7.92552996 3.27296083,7.56202766 3.70650922,7.56202766 L15.8303802,7.56202766 C16.2639286,7.56202766 16.6178456,7.92552996 16.6178456,8.37087558 C16.6178456,8.81548388 16.2639286,9.17898618 15.8303802,9.17898618 L15.2368318,9.17898618 C17.3603341,9.96276498 18.9920392,11.803871 19.5295507,14.0836866 L19.5295507,2.46635944 C19.5295507,1.11852533 18.4560023,0.0162212054 17.1428226,0.0162212054 L2.39406683,0.0162212054 C1.08162442,0.0162212054 0.00733870536,1.11852533 0.00733870536,2.46635944 L0.00733870536,19.9587097 C0.00733870536,21.3065438 1.0808871,22.4088479 2.39406683,22.4088479 L11.0443894,22.4088479 C8.52641705,21.6567742 6.61452766,19.4447926 6.23406683,16.7247926 L6.23480415,16.7247926 Z M3.7057719,3.78986174 L15.8296429,3.78986174 C16.2631912,3.78986174 16.6171083,4.15336404 16.6171083,4.59797234 C16.6171083,5.04331797 16.2631912,5.40682027 15.8296429,5.40682027 L3.70650922,5.40682027 C3.27296083,5.40682027 2.91904377,5.04331797 2.91904377,4.59797234 C2.91904377,4.15336404 3.27296083,3.78986174 3.70650922,3.78986174 L3.7057719,3.78986174 Z" id="形状"></path>
                </g>
                <g id="主体" transform="translate(76.000000, 29.000000)">
                    <rect id="形状结合" fill="#5365EA" opacity="0.08" x="72" y="167" width="40" height="8"></rect>
                    <g id="内容" transform="translate(80.000000, 69.000000)">
                        <path d="M6,0 L88,0 C91.3137085,-6.08718376e-16 94,2.6862915 94,6 L94,18 L94,18 L0,18 L0,6 C-1.29399067e-15,2.6862915 2.6862915,-2.79460044e-16 6,0 Z" id="矩形" fill="#E7EFFF"></path>
                        <path d="M0,38.7568205 L0,5.68122335 C0,2.54357033 2.6862915,0 6,0 L88,0 C91.3137085,0 94,2.54357033 94,5.68122335 L94,39" id="路径备份" stroke="#0F1358" stroke-width="1.5"></path>
                    </g>
                    <path d="M10,107.931488 L10,107.931488 L10,99 C10,95.6862915 12.6862915,93 16,93 L58,93 C61.3137085,93 64,95.6862915 64,99 L64,108.188312 L64,108.188312" id="路径" stroke="#0F1358" stroke-width="1.5"></path>
                    <g id="电脑" transform="translate(0.000000, 8.000000)">
                        <path d="M6,0 L177,0 C180.313708,-6.08718376e-16 183,2.6862915 183,6 L183,52 L183,52 L0,52 L0,6 C-4.05812251e-16,2.6862915 2.6862915,6.08718376e-16 6,0 Z" id="矩形" fill="#E7EFFF"></path>
                        <path d="M7,119 L175,119 C178.313708,119 181,121.686292 181,125 L181,139 L181,139 L1,139 L1,125 C1,121.686292 3.6862915,119 7,119 Z" id="矩形备份" fill="#5365EA" opacity="0.08" transform="translate(91.000000, 129.000000) scale(1, -1) translate(-91.000000, -129.000000) "></path>
                        <path d="M6,99 L177,99 C180.313708,99 183,101.686292 183,105 L183,122 L183,122 L0,122 L0,105 C-4.05812251e-16,101.686292 2.6862915,99 6,99 Z" id="矩形备份" fill="#E7EFFF" transform="translate(91.500000, 110.500000) scale(1, -1) translate(-91.500000, -110.500000) "></path>
                        <path d="M183,106.767099 C183,109.707744 183,114.118711 183,120 C183,123.313708 180.313708,126 177,126 L6,126 C2.6862915,126 0,123.313708 0,120 L0,6 C0,2.6862915 2.6862915,0 6,0 L112.319119,0 L177,0 C180.313708,0 183,2.6862915 183,6 C183,55.121246 183,84.9149642 183,99.7722305" id="路径" stroke="#0F1358" stroke-width="1.5" fill="#FFFFFF" stroke-linecap="round" stroke-linejoin="round"></path>
                        <path d="M82,140.080649 C82,145.006671 86.4771525,149 92,149 C97.5228475,149 102,145.006671 102,140.080649 L102,140.080649 L102,126 L112,126 L112,160 L72,160 L72,126 L82,126 Z" id="形状结合" stroke="#0F1358" stroke-width="1.5" fill="#FFFFFF"></path>
                        <rect id="矩形备份-3" stroke="#0F1358" fill="#0F1358" x="59.5" y="159.5" width="65" height="1" rx="0.5"></rect>
                        <rect id="矩形备份-2" fill="#0F1358" x="0" y="106" width="183" height="1.5"></rect>
                    </g>
                    <path d="M152.000234,9.99992187 C151.600234,9.99992187 151.200547,9.84742187 150.895234,9.54210937 L147.457734,6.10460937 C146.847422,5.49460937 146.847422,4.50523437 147.457734,3.89523438 L150.895234,0.457734375 C151.505547,-0.152578125 152.494609,-0.152578125 153.104922,0.457734375 L156.542422,3.89523438 C157.152734,4.50523437 157.152734,5.49460937 156.542422,6.10460937 L153.104922,9.54210937 C152.799922,9.84742187 152.400234,9.99992187 152.000234,9.99992187 Z M150.772422,4.99992187 L152.000234,6.22773437 L153.228047,4.99992187 L152.000234,3.77210937 L150.772422,4.99992187 Z" id="形状" fill="#5365EA" fill-rule="nonzero"></path>
                    <g id="电脑阴影" transform="translate(59.000000, 175.000000)" fill="#5365EA" opacity="0.08">
                        <rect id="矩形备份-3" x="0" y="0" width="66" height="2" rx="1"></rect>
                    </g>
                    <rect id="矩形" fill="#0F1358" x="0" y="28" width="183" height="1.5"></rect>
                    <rect id="矩形" fill="#E7EFFF" x="1" y="30" width="181" height="20"></rect>
                    <circle id="椭圆形" fill="#5365EA" cx="12" cy="19" r="2"></circle>
                    <circle id="椭圆形备份" fill="#5365EA" cx="20" cy="19" r="2"></circle>
                    <circle id="椭圆形备份-2" fill="#5365EA" cx="28" cy="19" r="2"></circle>
                </g>
                <g id="Group-9" transform="translate(119.000000, 55.000000)">
                    <g id="Group-7" transform="translate(49.446500, 49.960861) rotate(-45.000000) translate(-49.446500, -49.960861) translate(20.946500, 8.960861)">
                        <rect id="Rectangle-25" fill="#6776C4" x="26.1180822" y="53.4767318" width="4.05982085" height="8.10173107"></rect>
                        <rect id="Rectangle-25-Copy" fill="#0F1358" x="23.1652707" y="58.9450715" width="9.47291531" height="22.9549047" rx="1.2"></rect>
                        <circle id="Oval-11" fill="#5365EA" cx="28.1227173" cy="28.1227173" r="28.1227173"></circle>
                        <circle id="Oval-11" fill="#FFFFFF" cx="28.1479926" cy="28.7202338" r="20.0876552"></circle>
                    </g>
                    <path d="M40.5144875,30.8132457 C44.2125227,30.8132457 47.2103725,33.9310095 47.2103725,37.7769662 C47.2103725,41.3878685 44.5677655,44.3568683 41.184158,44.7062946 L41.184076,48.2225469 L38.5057219,48.2225469 L38.5057219,41.9551984 L40.5144875,41.9551984 L40.5144875,41.9551984 C42.7333086,41.9551984 44.5320185,40.0845401 44.5320185,37.7769662 C44.5320185,35.4693922 42.7333086,33.5987339 40.5144875,33.5987339 C38.2956663,33.5987339 36.4969564,35.4693922 36.4969564,37.7769662 L33.8186024,37.7769662 C33.8186024,33.9310095 36.8164522,30.8132457 40.5144875,30.8132457 Z" id="Combined-Shape" fill="#5365EA"></path>
                    <circle id="Oval-13" fill="#5365EA" cx="39.844899" cy="51.5704894" r="2.00876552"></circle>
                </g>
                <g id="编组-26" transform="translate(314.013368, 78.453394) rotate(6.000000) translate(-314.013368, -78.453394) translate(294.513368, 62.953394)">
                    <path d="M15.8667906,3.55271368e-15 C19.1795501,3.55271368e-15 25.5572865,3.55271368e-15 35,3.55271368e-15 C37.209139,3.55271368e-15 39,1.790861 39,4 L39,21 C39,23.209139 37.209139,25 35,25 L31.185,25 L31.185076,29.803352 C31.185076,29.9721147 31.1423802,30.1374193 31.0618741,30.2842129 L30.9944814,30.3906022 C30.6951005,30.8034798 30.1392678,30.9197283 29.7039314,30.6801145 L29.5978258,30.6127575 L21.862,25 L4,25 C1.790861,25 3.55271368e-15,23.209139 3.55271368e-15,21 L3.55271368e-15,4 C3.55271368e-15,1.790861 1.790861,3.55271368e-15 4,3.55271368e-15 C7.0176234,3.55271368e-15 9.28084095,3.55271368e-15 10.7896526,3.55271368e-15" id="路径" stroke="#0F1358" fill="#FFFFFF" stroke-linecap="round" stroke-linejoin="round"></path>
                    <path d="M30.6290212,9.46558407 C32.2858755,9.46558407 33.6290212,10.8087298 33.6290212,12.4655841 C33.6290212,14.1224383 32.2858755,15.4655841 30.6290212,15.4655841 C28.972167,15.4655841 27.6290212,14.1224383 27.6290212,12.4655841 C27.6290212,10.8087298 28.972167,9.46558407 30.6290212,9.46558407 Z M19.9747356,9.45010328 C21.6315899,9.45010328 22.9747356,10.793249 22.9747356,12.4501033 C22.9747356,14.1069575 21.6315899,15.4501033 19.9747356,15.4501033 C18.3178814,15.4501033 16.9747356,14.1069575 16.9747356,12.4501033 C16.9747356,10.793249 18.3178814,9.45010328 19.9747356,9.45010328 Z M9.32044999,9.43462248 C10.9773042,9.43462248 12.32045,10.7777682 12.32045,12.4346225 C12.32045,14.0914767 10.9773042,15.4346225 9.32044999,15.4346225 C7.66359574,15.4346225 6.32044999,14.0914767 6.32044999,12.4346225 C6.32044999,10.7777682 7.66359574,9.43462248 9.32044999,9.43462248 Z" id="形状结合" fill="#5365EA"></path>
                </g>
                <g id="编组" transform="translate(291.000000, 113.000000)" fill="#D9E6F2" fill-rule="nonzero" opacity="0.32">
                    <path d="M17.5379678,5.55592204 L3.37096483,5.55592204 C3.15428328,5.55592204 2.95458981,5.67325253 2.84913372,5.86254044 L0.0755418876,10.8411387 C0.0260103684,10.9300271 0,11.0300954 0,11.1318525 L0,17.1447825 C0,17.4747372 0.26743869,17.7421351 0.597332155,17.7421351 L20.3093955,17.7421351 C20.639289,17.7421351 20.9067277,17.4746964 20.9067277,17.1448029 L20.9067277,11.13173 C20.9067277,11.0300547 20.880778,10.9300536 20.8313083,10.8412 L18.0598806,5.86272419 C17.9544582,5.67333984 17.7547173,5.55592204 17.5379678,5.55592204 Z M13.1097841,11.0372822 C13.1097841,12.5031623 11.9213877,13.691722 10.4533434,13.691722 C8.98529914,13.691722 7.79692317,12.5031623 7.79692317,11.0372822 L1.2466453,11.0372822 L3.66541486,6.42287749 L17.2389445,6.42287749 L19.657714,11.0372618 L13.1097841,11.0372618 L13.1097841,11.0372822 Z M10.6665757,0 C10.918171,0 11.1221341,0.2039631 11.1221341,0.455558409 L11.1221341,2.8211424 C11.1221341,3.07273771 10.918171,3.27668039 10.6665757,3.27668039 C10.4149804,3.27668039 10.2110173,3.07271729 10.2110173,2.8211424 L10.2110173,0.455558409 C10.2110173,0.2039631 10.4149804,0 10.6665757,0 Z M4.35002852,1.30458798 C4.52789903,1.12667662 4.81632613,1.12665621 4.99421708,1.30454714 L4.9942579,1.30458798 L6.66669403,2.97720786 C6.84460539,3.15513962 6.84460539,3.44360754 6.66669403,3.62153931 C6.4888031,3.79945066 6.20037601,3.79945066 6.02246465,3.62158015 L6.02242383,3.62153931 L4.35000811,1.94889902 C4.17211718,1.77096725 4.17211718,1.48251974 4.35000811,1.30458798 L4.35002852,1.30458798 Z M14.3860745,2.97869828 L16.0584902,1.30605798 C16.2363811,1.12814662 16.5248082,1.12814662 16.7027196,1.30601714 L16.7027604,1.30605798 C16.8806718,1.48398974 16.8806718,1.77245766 16.7027604,1.95040986 L15.0303447,3.62300932 C14.8524742,3.80092068 14.5640267,3.80094109 14.3861357,3.62305016 L14.3860949,3.62300932 C14.2081835,3.44507756 14.2081835,3.15663005 14.3860949,2.97869828 L14.3860745,2.97869828 Z" id="形状"></path>
                </g>
                <path d="M40.528342,183.049571 L44.528342,183.049571 L44.528342,171.049571 L40.528342,171.049571 L40.528342,183.049571 Z M62.528342,181.049571 C62.528342,182.149571 61.628342,183.049571 60.528342,183.049571 L54.218342,183.049571 L55.168342,187.619571 L55.198342,187.939571 C55.198342,188.349571 55.028342,188.729571 54.758342,188.999571 L53.698342,190.049571 L47.118342,183.459571 C46.748342,183.099571 46.528342,182.599571 46.528342,182.049571 L46.528342,172.049571 C46.528342,170.949571 47.428342,170.049571 48.528342,170.049571 L57.528342,170.049571 C58.358342,170.049571 59.068342,170.549571 59.368342,171.269571 L62.388342,178.319571 C62.478342,178.549571 62.528342,178.789571 62.528342,179.049571 L62.528342,181.049571 Z" id="形状" fill-opacity="0.32" fill="#D9E6F2" fill-rule="nonzero" transform="translate(51.528342, 180.049571) rotate(-360.000000) translate(-51.528342, -180.049571) "></path>
                <path d="M301,15.7289338 L331,15.7289338 C330.821429,13.7646481 330.017857,12.7825052 328.589286,12.7825052 C326.446429,12.7825052 325.375,13.8539338 324.839286,13.8539338 C324.303571,13.8539338 322.696429,10.1039338 320.017857,9.56821948 C317.339286,9.0325052 316.267857,11.1753623 315.196429,11.1753623 C314.125,11.1753623 314.702601,7.83645531 309.303571,9.56821948 C305.704218,10.7227289 302.936361,12.7763004 301,15.7289338 Z" id="直线-9" fill-opacity="0.32" fill="#D9E6F2"></path>
                <path d="M40.6785153,19.4625618 L91.0530826,19.4625618 C89.0831498,17.1541873 86.8987889,16 84.5,16 C80.9018166,16 77.3995458,18 76.5,18 C75.6004542,18 74.9977292,14 70.5,13 C66.0022708,12 64.2990917,15 62.5,15 C60.7009083,15 57.5657925,6.76737355 48.5,10 C42.4561384,12.1550843 39.8489768,15.3092716 40.6785153,19.4625618 Z" id="直线-9" fill-opacity="0.32" fill="#D9E6F2"></path>
            </g>
        </g>
    </g>
</svg>
