<?xml version="1.0" encoding="UTF-8"?>
<svg width="339px" height="207px" viewBox="0 0 339 207" version="1.1" xmlns="http://www.w3.org/2000/svg" xmlns:xlink="http://www.w3.org/1999/xlink">
    <title>迭代计划</title>
    <defs>
        <rect id="path-1" x="18" y="67" width="34" height="18" rx="1"></rect>
        <mask id="mask-2" maskContentUnits="userSpaceOnUse" maskUnits="objectBoundingBox" x="0" y="0" width="34" height="18" fill="white">
            <use xlink:href="#path-1"></use>
        </mask>
    </defs>
    <g id="页面-1" stroke="none" stroke-width="1" fill="none" fill-rule="evenodd">
        <g id="新主题缺省图" transform="translate(-926.000000, -87.000000)">
            <g id="迭代计划" transform="translate(927.000000, 88.000000)">
                <g id="编组-21" transform="translate(172.898283, 0.000000)">
                    <line x1="0" y1="6" x2="12" y2="6" id="直线-8" stroke="#5365EA" stroke-width="1.5" stroke-linecap="square"></line>
                    <line x1="0" y1="6" x2="12" y2="6" id="直线-8" stroke="#5365EA" stroke-width="1.5" stroke-linecap="square" transform="translate(6.000000, 6.000000) rotate(90.000000) translate(-6.000000, -6.000000) "></line>
                    <rect id="矩形" fill="#5365EA" transform="translate(6.000000, 6.000000) rotate(45.000000) translate(-6.000000, -6.000000) " x="2" y="2" width="8" height="8"></rect>
                </g>
                <g id="编组-21" transform="translate(197.916332, 23.500000)" stroke="#5365EA">
                    <line x1="0" y1="3" x2="6" y2="3" id="直线-8" stroke-width="1.5" stroke-linecap="square"></line>
                    <polygon id="矩形" fill="#5365EA" transform="translate(3.000000, 3.000000) rotate(45.000000) translate(-3.000000, -3.000000) " points="1.25 1.25 4.75 1.25 4.75 4.75 1.25 4.75"></polygon>
                    <line x1="1.00280713e-15" y1="3" x2="6" y2="3" id="直线-8" stroke-width="1.5" stroke-linecap="square" transform="translate(3.000000, 3.000000) rotate(90.000000) translate(-3.000000, -3.000000) "></line>
                </g>
                <path d="M227.000234,27.9999219 C226.600234,27.9999219 226.200547,27.8474219 225.895234,27.5421094 L222.457734,24.1046094 C221.847422,23.4946094 221.847422,22.5052344 222.457734,21.8952344 L225.895234,18.4577344 C226.505547,17.8474219 227.494609,17.8474219 228.104922,18.4577344 L231.542422,21.8952344 C232.152734,22.5052344 232.152734,23.4946094 231.542422,24.1046094 L228.104922,27.5421094 C227.799922,27.8474219 227.400234,27.9999219 227.000234,27.9999219 Z M225.772422,22.9999219 L227.000234,24.2277344 L228.228047,22.9999219 L227.000234,21.7721094 L225.772422,22.9999219 Z" id="形状" fill="#5365EA" fill-rule="nonzero"></path>
                <g id="编组-23" transform="translate(24.182172, 50.847239) rotate(-22.000000) translate(-24.182172, -50.847239) translate(4.682172, 35.347239)">
                    <path d="M37.7559324,19.223768 C37.7559324,21.5005621 35.9650714,23.3462684 33.7559324,23.3462684 L16.125,23.3462684 L9.41846282,30.1067204 C9.26434601,30.2620632 9.06446482,30.3616958 8.8501687,30.392347 L8.72011203,30.4028582 C8.20731041,30.408278 7.78020784,30.0271461 7.71670144,29.5305079 L7.70862697,29.4139723 L7.638,23.3462684 L4,23.3462684 C1.790861,23.3462684 0,21.5005621 0,19.223768 L0.374606593,4.54158492 C0.374606593,2.26479081 2.16546759,0.419084509 4.37460659,0.419084509 L34.130539,0.419084509 C36.339678,0.419084509 38.130539,2.26479081 38.130539,4.54158492 C38.130539,11.0352265 37.7559324,15.4734428 37.7559324,16.0018661" id="路径" stroke="#0F1358" stroke-linecap="round" stroke-linejoin="round"></path>
                    <g id="info_black_24dp" transform="translate(11.065270, 3.646377)">
                        <polygon id="路径" points="0 0 16 0 16 16 0 16"></polygon>
                        <path d="M8,1.33333333 C4.32,1.33333333 1.33333333,4.32 1.33333333,8 C1.33333333,11.68 4.32,14.6666667 8,14.6666667 C11.68,14.6666667 14.6666667,11.68 14.6666667,8 C14.6666667,4.32 11.68,1.33333333 8,1.33333333 Z M8.36253879,4.45361112 L9.59878393,4.95308658 L7.76952518,9.48066087 L6.53328004,8.98118541 L8.36253879,4.45361112 Z M11.9584806,9.73943719 L11.4590051,10.9756823 L7.76631387,9.48373821 L8.26578933,8.24749307 L11.9584806,9.73943719 Z" id="形状" fill="#5365EA" fill-rule="nonzero"></path>
                    </g>
                </g>
                <path d="M282,167.5 L338,167.5 C337.666667,163.833333 336.166667,162 333.5,162 C329.5,162 327.5,164 326.5,164 C325.5,164 322.5,157 317.5,156 C312.5,155 310.5,159 308.5,159 C306.5,159 307.578188,152.767374 297.5,156 C290.781208,158.155084 285.614541,161.988418 282,167.5 Z" id="直线-9" fill-opacity="0.32" fill="#D9E6F2"></path>
                <g id="审核-(2)" transform="translate(0.677874, 105.270665)" fill="#D9E6F2" fill-rule="nonzero" opacity="0.32">
                    <path d="M19.6733295,21.1037788 L17.2851267,18.6543779 C17.8474467,17.7836365 18.1460101,16.7688795 18.1448502,15.7323502 C18.1448502,12.802212 15.8311175,10.4265438 12.9761866,10.4265438 C10.1219931,10.4265438 7.80752304,12.802212 7.80752304,15.7323502 C7.80752304,18.6624885 10.1219931,21.0374194 12.9761866,21.0374194 C13.9925319,21.0370231 14.9850589,20.7296533 15.8237442,20.155576 L18.2104723,22.6057143 C18.3521073,22.751669 18.5468163,22.8340386 18.7501958,22.8340386 C18.9535754,22.8340386 19.1482844,22.751669 19.2899194,22.6057143 L19.6718548,22.2134562 C19.9692311,21.9036184 19.9692311,21.4143539 19.6718548,21.1045161 L19.6733295,21.1037788 Z M15.7684447,17.0956682 C15.467298,17.7485135 14.9511581,18.2781881 14.3063249,18.596129 C13.8935339,18.8029906 13.4386392,18.9119837 12.976924,18.9146544 C11.2641129,18.9146544 9.87646313,17.4894009 9.87646313,15.7316129 C9.87646313,13.9730876 11.2641129,12.5478341 12.976924,12.5478341 C14.689735,12.5478341 16.0781221,13.9730876 16.0781221,15.7316129 C16.0781221,16.2219355 15.9608871,16.6812903 15.7684447,17.0956682 L15.7684447,17.0956682 Z M6.23480415,16.7247926 L3.7057719,16.7247926 C3.27296085,16.7247926 2.91904379,16.3612903 2.91904377,15.916682 C2.91904377,15.4720737 3.27296083,15.1078341 3.70650922,15.1078341 L6.19130185,15.1078341 C6.25467347,14.3654913 6.43509106,13.6378485 6.72586406,12.9518894 L3.70650922,12.9518894 C3.27296083,12.9518894 2.91904377,12.5883871 2.91904377,12.1437788 C2.91904377,11.6991705 3.27296083,11.3349309 3.70650922,11.3349309 L7.68660138,11.3349309 C8.45794727,10.3587405 9.482446,9.61300132 10.6484447,9.17898618 L3.70650922,9.17898618 C3.27296083,9.17898618 2.91904377,8.81548388 2.91904377,8.37087558 C2.91904377,7.92552996 3.27296083,7.56202766 3.70650922,7.56202766 L15.8303802,7.56202766 C16.2639286,7.56202766 16.6178456,7.92552996 16.6178456,8.37087558 C16.6178456,8.81548388 16.2639286,9.17898618 15.8303802,9.17898618 L15.2368318,9.17898618 C17.3603341,9.96276498 18.9920392,11.803871 19.5295507,14.0836866 L19.5295507,2.46635944 C19.5295507,1.11852533 18.4560023,0.0162212054 17.1428226,0.0162212054 L2.39406683,0.0162212054 C1.08162442,0.0162212054 0.00733870536,1.11852533 0.00733870536,2.46635944 L0.00733870536,19.9587097 C0.00733870536,21.3065438 1.0808871,22.4088479 2.39406683,22.4088479 L11.0443894,22.4088479 C8.52641705,21.6567742 6.61452766,19.4447926 6.23406683,16.7247926 L6.23480415,16.7247926 Z M3.7057719,3.78986174 L15.8296429,3.78986174 C16.2631912,3.78986174 16.6171083,4.15336404 16.6171083,4.59797234 C16.6171083,5.04331797 16.2631912,5.40682027 15.8296429,5.40682027 L3.70650922,5.40682027 C3.27296083,5.40682027 2.91904377,5.04331797 2.91904377,4.59797234 C2.91904377,4.15336404 3.27296083,3.78986174 3.70650922,3.78986174 L3.7057719,3.78986174 Z" id="形状"></path>
                </g>
                <g id="主体" transform="translate(75.000000, 37.000000)">
                    <rect id="形状结合" fill="#5365EA" opacity="0.08" x="72" y="159" width="40" height="8"></rect>
                    <g id="内容" transform="translate(80.000000, 61.000000)">
                        <path d="M6,0 L88,0 C91.3137085,-6.08718376e-16 94,2.6862915 94,6 L94,18 L94,18 L0,18 L0,6 C-1.29399067e-15,2.6862915 2.6862915,-2.79460044e-16 6,0 Z" id="矩形" fill="#E7EFFF"></path>
                        <path d="M0,38.7568205 L0,5.68122335 C0,2.54357033 2.6862915,0 6,0 L88,0 C91.3137085,0 94,2.54357033 94,5.68122335 L94,39" id="路径备份" stroke="#0F1358" stroke-width="1.5"></path>
                    </g>
                    <path d="M10,99.9314876 L10,99.9314876 L10,91 C10,87.6862915 12.6862915,85 16,85 L58,85 C61.3137085,85 64,87.6862915 64,91 L64,100.188312 L64,100.188312" id="路径" stroke="#0F1358" stroke-width="1.5"></path>
                    <g id="电脑">
                        <path d="M6,0 L177,0 C180.313708,-6.08718376e-16 183,2.6862915 183,6 L183,52 L183,52 L0,52 L0,6 C-4.05812251e-16,2.6862915 2.6862915,6.08718376e-16 6,0 Z" id="矩形" fill="#E7EFFF"></path>
                        <path d="M7,119 L175,119 C178.313708,119 181,121.686292 181,125 L181,139 L181,139 L1,139 L1,125 C1,121.686292 3.6862915,119 7,119 Z" id="矩形备份" fill="#5365EA" opacity="0.08" transform="translate(91.000000, 129.000000) scale(1, -1) translate(-91.000000, -129.000000) "></path>
                        <path d="M6,99 L177,99 C180.313708,99 183,101.686292 183,105 L183,122 L183,122 L0,122 L0,105 C-4.05812251e-16,101.686292 2.6862915,99 6,99 Z" id="矩形备份" fill="#E7EFFF" transform="translate(91.500000, 110.500000) scale(1, -1) translate(-91.500000, -110.500000) "></path>
                        <rect id="矩形" stroke="#0F1358" stroke-width="1.5" fill="#FFFFFF" x="0" y="0" width="183" height="126" rx="6"></rect>
                        <path d="M82,140.080649 C82,145.006671 86.4771525,149 92,149 C97.5228475,149 102,145.006671 102,140.080649 L102,140.080649 L102,126 L112,126 L112,160 L72,160 L72,126 L82,126 Z" id="形状结合" stroke="#0F1358" stroke-width="1.5" fill="#FFFFFF"></path>
                        <rect id="矩形备份-3" stroke="#0F1358" fill="#0F1358" x="59.5" y="159.5" width="65" height="1" rx="0.5"></rect>
                    </g>
                    <g id="电脑阴影" transform="translate(59.000000, 167.000000)" fill="#5365EA" opacity="0.08">
                        <rect id="矩形备份-3" x="0" y="0" width="66" height="2" rx="1"></rect>
                    </g>
                    <rect id="矩形" fill="#0F1358" x="10" y="20" width="173" height="1.5" rx="0.75"></rect>
                    <rect id="矩形" fill="#E7EFFF" x="10" y="28" width="50" height="78" rx="1"></rect>
                    <rect id="矩形" fill="#5365EA" x="18" y="41" width="34" height="18" rx="1"></rect>
                    <use id="矩形备份-10" stroke="#5365EA" mask="url(#mask-2)" stroke-width="2" fill="#FFFFFF" stroke-dasharray="2" xlink:href="#path-1"></use>
                    <rect id="矩形备份-8" fill="#E7EFFF" x="66" y="28" width="50" height="78" rx="1"></rect>
                    <rect id="矩形备份-9" fill="#E7EFFF" x="123" y="28" width="50" height="78" rx="1"></rect>
                    <rect id="矩形备份-11" fill="#5365EA" x="74" y="41" width="34" height="18" rx="1"></rect>
                    <rect id="矩形备份-13" fill="#5365EA" x="131" y="41" width="34" height="18" rx="1"></rect>
                    <rect id="矩形备份-12" fill="#5365EA" x="74" y="67" width="34" height="18" rx="1"></rect>
                    <circle id="椭圆形" fill="#5365EA" cx="12" cy="11" r="2"></circle>
                    <circle id="椭圆形备份" fill="#5365EA" cx="20" cy="11" r="2"></circle>
                    <circle id="椭圆形备份-2" fill="#5365EA" cx="28" cy="11" r="2"></circle>
                    <rect id="矩形备份-2" fill="#0F1358" x="0" y="105" width="183" height="1.5"></rect>
                </g>
                <path d="M85.1111653,104.958135 C85.4915618,104.664171 86.0382386,104.734239 86.3322021,105.114635 L86.3322021,105.114635 L98.2329634,120.514533 C98.350758,120.666962 98.414661,120.85416 98.414661,121.046801 C98.414661,121.527546 98.02494,121.917267 97.5441947,121.917267 L97.5441947,121.917267 L91.3502724,121.916345 L91.3505172,147.760004 C91.3505172,148.240749 90.9607961,148.63047 90.4800508,148.63047 L82.2209835,148.63047 C81.7402382,148.63047 81.3505172,148.240749 81.3505172,147.760004 L81.3502724,121.916345 L73.742672,121.917267 C73.5885598,121.917267 73.4379304,121.876369 73.3057993,121.799699 L73.210404,121.735569 C72.8300075,121.441606 72.7599398,120.894929 73.0539033,120.514533 L73.0539033,120.514533 L84.9546646,105.114635 C84.99996,105.056022 85.0525519,105.00343 85.1111653,104.958135 Z" id="Combined-Shape" stroke="#323288" stroke-width="1.5" fill="#FFFFFF" transform="translate(85.951272, 126.613345) scale(-1, 1) rotate(-45.000000) translate(-85.951272, -126.613345) "></path>
                <polygon id="路径-2" fill="#E7EFFF" points="86.4036418 119.539221 88.6833834 121.613345 69.8716696 140.618539 67.7283425 138.318872"></polygon>
                <polygon id="路径-3" fill="#E7EFFF" points="86.6037376 119.688035 80.9512724 113.97143 100.951994 111.925478 88.6833834 121.613345"></polygon>
                <g id="编组-26" transform="translate(313.013368, 78.453394) rotate(6.000000) translate(-313.013368, -78.453394) translate(293.513368, 62.953394)">
                    <path d="M15.8667906,8.18545232e-12 C19.1795501,8.18545232e-12 25.5572865,8.18545232e-12 35,8.18545232e-12 C37.209139,8.18545232e-12 39,1.790861 39,4 L39,21 C39,23.209139 37.209139,25 35,25 L31.185,25 L31.185076,29.803352 C31.185076,29.9721147 31.1423802,30.1374193 31.0618741,30.2842129 L30.9944814,30.3906022 C30.6951005,30.8034798 30.1392678,30.9197283 29.7039314,30.6801145 L29.5978258,30.6127575 L21.862,25 L4,25 C1.790861,25 -7.27595761e-11,23.209139 -7.27595761e-11,21 L-7.27595761e-11,4 C-7.27595761e-11,1.790861 1.790861,8.18545232e-12 4,8.18545232e-12 C7.0176234,8.18545232e-12 9.28084095,8.18545232e-12 10.7896526,8.18545232e-12" id="路径" stroke="#0F1358" fill="#FFFFFF" stroke-linecap="round" stroke-linejoin="round"></path>
                    <g id="编组" transform="translate(13.698987, 6.604245)" fill="#5365EA" fill-rule="nonzero">
                        <path d="M11.2912088,12.6948832 L0.618131868,12.6948832 C0.267857143,12.6948832 0,12.4270261 0,12.0973558 L0,1.79515797 C0,1.46548764 0.288461538,1.19763049 0.618131868,1.19763049 L1.64835165,1.19763049 L1.64835165,1.79515797 C1.64835165,2.45449863 2.20467033,2.99021291 2.88461538,2.99021291 C3.56456044,2.99021291 4.12087912,2.45449863 4.12087912,1.79515797 L4.12087912,1.19763049 L4.73901099,1.19763049 L4.73901099,1.79515797 C4.73901099,2.45449863 5.29532967,2.99021291 5.97527473,2.99021291 C6.65521978,2.99021291 7.21153846,2.45449863 7.21153846,1.79515797 L7.21153846,1.19763049 L7.82967033,1.19763049 L7.82967033,1.79515797 C7.82967033,2.45449863 8.38598901,2.99021291 9.06593407,2.99021291 C9.74587912,2.99021291 10.3021978,2.45449863 10.3021978,1.79515797 L10.3021978,1.19763049 L11.3324176,1.19763049 C11.6826923,1.19763049 11.9505495,1.46548764 11.9505495,1.79515797 L11.9505495,12.0973558 C11.9093407,12.4270261 11.6414835,12.6948832 11.2912088,12.6948832 Z M9.66346154,4.57675137 L2.26648352,4.57675137 C1.93681319,4.57675137 1.64835165,4.84460852 1.64835165,5.17427885 C1.64835165,5.50394918 1.93681319,5.77180632 2.26648352,5.77180632 L9.64285714,5.77180632 C9.99313187,5.77180632 10.260989,5.50394918 10.260989,5.17427885 C10.260989,4.84460852 9.99313187,4.57675137 9.66346154,4.57675137 Z M9.66346154,7.15230082 L2.26648352,7.15230082 C1.93681319,7.15230082 1.64835165,7.42015797 1.64835165,7.7498283 C1.64835165,8.07949863 1.93681319,8.34735577 2.26648352,8.34735577 L9.64285714,8.34735577 C9.99313187,8.34735577 10.260989,8.07949863 10.260989,7.7498283 C10.260989,7.42015797 9.99313187,7.15230082 9.66346154,7.15230082 Z M9.76648352,9.72785027 L2.16346154,9.72785027 C1.875,9.72785027 1.64835165,9.95449863 1.64835165,10.2223558 C1.64835165,10.4902129 1.875,10.7168613 2.16346154,10.7168613 L9.74587912,10.7168613 C10.0137363,10.7168613 10.260989,10.4902129 10.260989,10.2223558 C10.260989,9.95449863 10.0343407,9.72785027 9.76648352,9.72785027 Z M9.04532967,2.39268544 C8.69505495,2.39268544 8.4271978,2.1248283 8.4271978,1.79515797 L8.4271978,0.600103022 C8.4271978,0.270432692 8.69505495,0.00257554945 9.04532967,0.00257554945 C9.3956044,0.00257554945 9.66346154,0.270432692 9.66346154,0.600103022 L9.66346154,1.79515797 C9.66346154,2.1248283 9.375,2.39268544 9.04532967,2.39268544 Z M5.95467033,2.39268544 C5.625,2.39268544 5.33653846,2.1248283 5.33653846,1.79515797 L5.33653846,0.600103022 C5.33653846,0.270432692 5.625,0.00257554945 5.95467033,0.00257554945 C6.28434066,0.00257554945 6.5728022,0.270432692 6.5728022,0.600103022 L6.5728022,1.79515797 C6.5728022,2.1248283 6.30494505,2.39268544 5.95467033,2.39268544 Z M2.88461538,2.39268544 C2.55494505,2.39268544 2.26648352,2.1248283 2.26648352,1.79515797 L2.26648352,0.600103022 C2.26648352,0.270432692 2.55494505,0.00257554945 2.88461538,0.00257554945 C3.21428571,0.00257554945 3.50274725,0.270432692 3.50274725,0.600103022 L3.50274725,1.79515797 C3.50274725,2.1248283 3.23489011,2.39268544 2.88461538,2.39268544 Z" id="形状"></path>
                    </g>
                </g>
                <g id="编组" transform="translate(289.000000, 113.000000)" fill="#D9E6F2" fill-rule="nonzero" opacity="0.32">
                    <path d="M13.7611594,13.657143 C11.4089764,13.28843 10.6379189,12.4709349 10.6368579,12.4709349 L10.5666586,12.3963928 L10.5666586,12.3976759 C10.3164579,12.1586528 10.2314538,11.7351375 10.2072233,11.3666712 C11.7356931,10.1901109 12.9217779,7.95900634 12.9217779,5.46173652 C12.9217779,1.46232468 10.2469741,0.00370867091 8.14568273,0.00370867091 C6.04486017,0.00370867091 3.34182863,1.46232468 3.34182863,5.46173652 C3.34182863,7.95900634 4.55789304,10.1901109 6.08683172,11.3676089 C6.06378561,11.7339778 5.97818933,12.1574684 5.72623669,12.397676 L5.67168109,12.4562289 C5.66368651,12.4642234 4.89556532,13.2872457 2.53232808,13.657143 C2.19983746,13.6685427 0.811519483,13.7992936 0.212937669,15.1496373 C-0.116147859,15.8922449 0.0176379726,16.4355556 0.18813966,16.7589906 C0.592359423,17.5285182 1.48180577,17.6261064 1.70224889,17.6399735 L14.4962166,17.6399735 C14.8061546,17.6399735 15.8486823,17.5742403 16.2391336,16.7225462 C16.4057367,16.3619511 16.4941459,15.7673666 15.9797539,14.9820966 C15.3193622,13.9761366 14.3031623,13.6787826 13.7611594,13.657143 Z M19.7252392,13.0174286 C19.2614055,12.2951775 18.5472724,12.08189 18.1659754,12.0656541 C16.5134661,11.8027706 15.9716853,11.2160573 15.9705009,11.2160573 L15.922188,11.1632783 C15.7465293,10.9923325 15.6857557,10.6868606 15.6696432,10.4220771 C16.7432116,9.57788404 17.5046213,8.09456875 17.5046213,6.30168555 C17.5046213,3.43027433 15.6489411,2.10369227 14.1723373,2.10369227 C13.8887518,2.10369227 13.5981094,2.14719365 13.3133395,2.23853911 C13.39141,2.46522492 13.4592406,2.70049752 13.5201622,2.94280237 L13.338631,2.94280237 C13.338631,2.94280237 14.3652929,6.31824221 13.1378042,9.19715451 C13.0791279,9.1347277 13.020575,9.07876565 12.9642675,9.00762869 C12.7828597,9.37681047 12.5774434,9.71566715 12.3499433,10.0221754 C12.483285,10.1678544 12.6234122,10.3046999 12.7738041,10.4220524 C12.7576916,10.6857749 12.6967946,10.989939 12.5187918,11.1622913 L12.4808175,11.2046083 C12.4775358,11.2080134 12.1767768,11.5330029 11.3498806,11.8085938 C11.9516208,11.8726738 12.5809965,11.967079 13.1893248,12.0978298 C13.2055607,12.0818407 13.2191811,12.0656047 13.2307042,12.0542051 C13.2640889,12.0196359 13.2905401,11.9830681 13.3215808,11.9462783 C13.4339738,12.0061142 13.5694375,12.0781888 13.7554348,12.1803665 C14.6959083,12.6971025 16.3919189,13.5466993 16.6710383,13.8600425 L16.6272902,13.8600425 C16.9315777,14.2333449 17.2049232,14.6627328 17.413868,15.119855 L18.7539717,15.119855 C18.9720708,15.119855 19.6323638,14.8787099 19.9067951,14.2689751 L19.9078561,14.2689751 C20.0238762,14.0082383 20.0869939,13.5811945 19.7252392,13.0174286 Z" id="形状"></path>
                </g>
                <path d="M39.528342,186.049571 L43.528342,186.049571 L43.528342,174.049571 L39.528342,174.049571 L39.528342,186.049571 Z M61.528342,175.049571 C61.528342,173.949571 60.628342,173.049571 59.528342,173.049571 L53.218342,173.049571 L54.168342,168.479571 L54.198342,168.159571 C54.198342,167.749571 54.028342,167.369571 53.758342,167.099571 L52.698342,166.049571 L46.118342,172.639571 C45.748342,172.999571 45.528342,173.499571 45.528342,174.049571 L45.528342,184.049571 C45.528342,185.149571 46.428342,186.049571 47.528342,186.049571 L56.528342,186.049571 C57.358342,186.049571 58.068342,185.549571 58.368342,184.829571 L61.388342,177.779571 C61.478342,177.549571 61.528342,177.309571 61.528342,177.049571 L61.528342,175.049571 Z" id="形状" fill-opacity="0.32" fill="#D9E6F2" fill-rule="nonzero"></path>
                <path d="M300,15.7289338 L330,15.7289338 C329.821429,13.7646481 329.017857,12.7825052 327.589286,12.7825052 C325.446429,12.7825052 324.375,13.8539338 323.839286,13.8539338 C323.303571,13.8539338 321.696429,10.1039338 319.017857,9.56821948 C316.339286,9.0325052 315.267857,11.1753623 314.196429,11.1753623 C313.125,11.1753623 313.702601,7.83645531 308.303571,9.56821948 C304.704218,10.7227289 301.936361,12.7763004 300,15.7289338 Z" id="直线-9" fill-opacity="0.32" fill="#D9E6F2"></path>
                <path d="M39.6785153,19.4625618 L90.0530826,19.4625618 C88.0831498,17.1541873 85.8987889,16 83.5,16 C79.9018166,16 76.3995458,18 75.5,18 C74.6004542,18 73.9977292,14 69.5,13 C65.0022708,12 63.2990917,15 61.5,15 C59.7009083,15 56.5657925,6.76737355 47.5,10 C41.4561384,12.1550843 38.8489768,15.3092716 39.6785153,19.4625618 Z" id="直线-9" fill-opacity="0.32" fill="#D9E6F2"></path>
            </g>
        </g>
    </g>
</svg>
