<?xml version="1.0" encoding="UTF-8"?>
<svg width="280px" height="170px" viewBox="0 0 280 170" version="1.1" xmlns="http://www.w3.org/2000/svg" xmlns:xlink="http://www.w3.org/1999/xlink">
    <title>暂无图表</title>
    <defs>
        <linearGradient x1="-3.81857113%" y1="51.260896%" x2="104.046476%" y2="49.3632856%" id="linearGradient-1">
            <stop stop-color="#D2DEFF" stop-opacity="0" offset="0%"></stop>
            <stop stop-color="#B7C5FF" offset="100%"></stop>
        </linearGradient>
    </defs>
    <g id="自定义敏捷报表" stroke="none" stroke-width="1" fill="none" fill-rule="evenodd">
        <g id="自定义报表" transform="translate(-535.000000, -323.000000)">
            <g transform="translate(-2.000000, 0.000000)" id="框架">
                <g id="暂无图表" transform="translate(537.000000, 324.000000)">
                    <g id="编组-21" transform="translate(91.039998, 0.000000)">
                        <line x1="0" y1="4.9704142" x2="9.9408284" y2="4.9704142" id="直线-8" stroke="#5365EA" stroke-width="1.5" stroke-linecap="square"></line>
                        <line x1="1.63169242e-14" y1="4.9704142" x2="9.9408284" y2="4.9704142" id="直线-8" stroke="#5365EA" stroke-width="1.5" stroke-linecap="square" transform="translate(4.970414, 4.970414) rotate(90.000000) translate(-4.970414, -4.970414) "></line>
                        <polygon id="矩形" fill="#5365EA" transform="translate(4.970414, 4.970414) rotate(45.000000) translate(-4.970414, -4.970414) " points="1.65680473 1.65680473 8.28402367 1.65680473 8.28402367 8.28402367 1.65680473 8.28402367"></polygon>
                    </g>
                    <g id="编组-21备份-2" opacity="0.6" transform="translate(210.329939, 27.337278)">
                        <line x1="0" y1="3.31360947" x2="6.62721893" y2="3.31360947" id="直线-8" stroke="#5365EA" stroke-width="1.5" stroke-linecap="square"></line>
                        <line x1="3.98175907e-18" y1="3.31360947" x2="6.62721893" y2="3.31360947" id="直线-8" stroke="#5365EA" stroke-width="1.5" stroke-linecap="square" transform="translate(3.313609, 3.313609) rotate(90.000000) translate(-3.313609, -3.313609) "></line>
                        <polygon id="矩形" fill="#5365EA" transform="translate(3.313609, 3.313609) rotate(45.000000) translate(-3.313609, -3.313609) " points="1.10453649 1.10453649 5.52268245 1.10453649 5.52268245 5.52268245 1.10453649 5.52268245"></polygon>
                    </g>
                    <path d="M140.31057,167.848477 C139.896369,167.848477 139.482491,167.690563 139.166339,167.374411 L137.236421,165.444492 L135.306502,167.374411 C134.674522,168.006391 133.650344,168.006391 133.018364,167.374411 C132.386384,166.742754 132.386384,165.718253 133.018364,165.086596 L136.092513,162.012447 C136.724494,161.380466 137.748671,161.380466 138.380651,162.012447 L141.454801,165.086596 C142.086781,165.718253 142.086781,166.742754 141.454801,167.374411 C141.138649,167.690239 140.724448,167.848477 140.31057,167.848477 L140.31057,167.848477 Z" id="路径" fill="#5365EA" fill-rule="nonzero" opacity="0.6"></path>
                    <g id="编组-23" transform="translate(34.943811, 47.920789) rotate(-22.000000) translate(-34.943811, -47.920789) translate(18.789965, 35.080553)">
                        <path d="M31.2771038,15.9250149 C31.2771038,17.8111165 29.7935503,19.340104 27.9634943,19.340104 L13.3579882,19.340104 L7.80227689,24.9404784 C7.67460616,25.0691648 7.50902411,25.1517007 7.3315007,25.1770922 L7.22376145,25.1857997 C6.79895537,25.1902894 6.44514259,24.8745589 6.39253373,24.4631427 L6.38584483,24.3666043 L6.32733728,19.340104 L3.31360947,19.340104 C1.48355349,19.340104 -9.04113076e-12,17.8111165 -9.04113076e-12,15.9250149 L0.310324989,3.76225969 C0.310324989,1.87615807 1.79387848,0.347170599 3.62393446,0.347170599 L28.2738193,0.347170599 C30.1038753,0.347170599 31.5874288,1.87615807 31.5874288,3.76225969 C31.5874288,9.14160777 31.2771038,12.8182367 31.2771038,13.2559838" id="路径" stroke="#0F1358" stroke-linecap="round" stroke-linejoin="round"></path>
                        <g id="编组" transform="translate(9.403990, 4.818541)" fill="#5365EA" fill-rule="nonzero">
                            <path d="M13.199096,9.08107331 L13.199096,9.90579389 L0.00356673234,9.90579389 L0.00356673234,0.00914694284 L0.828287311,0.00914694284 L0.828287311,9.08107331 L13.199096,9.08107331 Z M10.7249343,2.48330868 L12.3743754,8.25635273 L1.65300789,8.25635273 L1.65300789,4.54511012 L4.53952991,0.833867521 L8.25077252,4.54511012 L10.7249343,2.48330868 L10.7249343,2.48330868 Z" id="形状"></path>
                        </g>
                    </g>
                    <path d="M196.331361,138.699399 L242.721893,138.699399 C242.445759,135.661924 241.203156,134.143186 238.994083,134.143186 C235.680473,134.143186 234.023669,135.799991 233.195266,135.799991 C232.366864,135.799991 229.881657,130.001174 225.739645,129.172772 C221.597633,128.344369 219.940828,131.657979 218.284024,131.657979 C216.627219,131.657979 217.520393,126.494856 209.171598,129.172772 C203.605734,130.958049 199.325655,134.133591 196.331361,138.699399 Z" id="直线-9" fill-opacity="0.32" fill="#D9E6F2"></path>
                    <g id="审核-(2)" transform="translate(0.561552, 87.206468)" fill="#D9E6F2" fill-rule="nonzero" opacity="0.32">
                        <path d="M16.2974327,17.4824203 L14.3190399,15.4533308 C14.7848671,14.7320066 15.0321977,13.8913795 15.0312369,13.0327162 C15.0312369,10.6053827 13.1145352,8.63737354 10.7495037,8.63737354 C8.38508303,8.63737354 6.46777056,10.6053827 6.46777056,13.0327162 C6.46777056,15.4600496 8.38508303,17.427448 10.7495037,17.427448 C11.5914466,17.4271198 12.4136582,17.1724939 13.1084272,16.6969269 L15.0855984,18.7266272 C15.2029291,18.8475365 15.3642265,18.9157716 15.5327066,18.9157716 C15.7011867,18.9157716 15.8624841,18.8475365 15.9798148,18.7266272 L16.2962111,18.4016797 C16.5425583,18.1450093 16.5425583,17.7397015 16.2962111,17.4830311 L16.2974327,17.4824203 Z M13.0626169,14.162092 C12.8131463,14.7029106 12.3855747,15.1416943 11.8513934,15.4050773 C11.5094364,15.5764419 11.1326005,15.6667321 10.7501145,15.6689445 C9.33121781,15.6689445 8.18168543,14.4882611 8.18168543,13.0321054 C8.18168543,11.5753388 9.33121779,10.3946555 10.7501145,10.3946555 C12.1690113,10.3946555 13.3191544,11.5753388 13.3191544,13.0321054 C13.3191544,13.4382898 13.2220366,13.8188204 13.0626169,14.162092 L13.0626169,14.162092 Z M5.16492652,13.8548578 L3.06987021,13.8548578 C2.71132851,13.8548578 2.41814279,13.5537316 2.41814277,13.1854171 C2.41814277,12.8171025 2.71132849,12.5153655 3.07048101,12.5153655 L5.12888911,12.5153655 C5.18138631,11.900407 5.33084466,11.297626 5.57172171,10.7293758 L3.07048101,10.7293758 C2.71132849,10.7293758 2.41814277,10.4282497 2.41814277,10.0599351 C2.41814277,9.69162053 2.71132849,9.38988356 3.07048101,9.38988356 L6.36759878,9.38988356 C7.00658354,8.58120514 7.85528071,7.96343305 8.8211968,7.60389388 L3.07048101,7.60389388 C2.71132849,7.60389388 2.41814277,7.30276771 2.41814277,6.93445314 C2.41814277,6.56552777 2.71132849,6.26440161 3.07048101,6.26440161 L13.1139244,6.26440161 C13.4730769,6.26440161 13.7662626,6.56552777 13.7662626,6.93445314 C13.7662626,7.30276771 13.4730769,7.60389388 13.1139244,7.60389388 L12.6222275,7.60389388 C14.3813419,8.25317809 15.7330502,9.77835466 16.178326,11.6669593 L16.178326,2.043138 C16.178326,0.926589035 15.288996,0.0134376849 14.2011548,0.0134376849 L1.98325063,0.0134376849 C0.896020229,0.0134376849 0.00607940089,0.926589035 0.00607940089,2.043138 L0.00607940089,16.5338423 C0.00607940089,17.6503913 0.89540943,18.5635427 1.98325063,18.5635427 L9.14919832,18.5635427 C7.06330407,17.940523 5.47949037,16.1081122 5.16431572,13.8548578 L5.16492652,13.8548578 Z M3.06987021,3.13953044 L13.1133136,3.13953044 C13.4724661,3.13953044 13.7656518,3.4406566 13.7656518,3.80897117 C13.7656518,4.17789654 13.4724661,4.47902271 13.1133136,4.47902271 L3.07048101,4.47902271 C2.71132849,4.47902271 2.41814277,4.17789654 2.41814277,3.80897117 C2.41814277,3.4406566 2.71132849,3.13953044 3.07048101,3.13953044 L3.06987021,3.13953044 Z" id="形状"></path>
                    </g>
                    <g id="编组" transform="translate(251.005917, 72.071006)" fill="#D9E6F2" fill-rule="nonzero" opacity="0.32">
                        <path d="M11.399777,11.3136096 C9.45122305,11.0081669 8.8124772,10.330952 8.81159826,10.330952 L8.75344498,10.2692012 L8.75344498,10.2702641 C8.5461781,10.0722568 8.4757605,9.72141565 8.45568793,9.41617737 C9.72187598,8.44151202 10.7044314,6.59325969 10.7044314,4.52451546 C10.7044314,1.21139322 8.4886176,0.00307227176 6.74790285,0.00307227176 C5.00757647,0.00307227176 2.76837875,1.21139322 2.76837875,4.52451546 C2.76837875,6.59325969 3.77576938,8.441512 5.0423458,9.41695411 C5.02325436,9.72045496 4.95234619,10.0712756 4.74362803,10.2702641 L4.69843404,10.3187695 C4.69181131,10.3253922 4.0554979,11.0071858 2.09778657,11.3136096 C1.82235056,11.3230531 0.67226466,11.4313675 0.176398069,12.5499954 C-0.0962171611,13.1651733 0.0146113383,13.6152531 0.15585534,13.8831875 C0.490711948,14.520666 1.22753141,14.6015082 1.41014701,14.6129958 L12.0087001,14.6129958 C12.2654535,14.6129958 13.1290859,14.5585423 13.4525367,13.8529968 C13.5905511,13.5542791 13.6637895,13.0617238 13.237666,12.4112043 C12.6905959,11.5778646 11.8487735,11.3315359 11.399777,11.3136096 Z M16.3404348,10.7836686 C15.9561939,10.1853542 15.3646044,10.0086663 15.048737,9.99521644 C13.6797944,9.77744313 13.2309819,9.29140843 13.2300008,9.29140843 L13.1899782,9.24768615 C13.0444621,9.10607423 12.9941171,8.85302058 12.9807695,8.63367335 C13.8701161,7.93434181 14.5008697,6.70555991 14.5008697,5.22033122 C14.5008697,2.84164737 12.9636199,1.74270366 11.7403978,1.74270366 C11.5054749,1.74270366 11.264706,1.7787403 11.0288019,1.8544111 C11.0934757,2.04219816 11.1496667,2.23709853 11.2001344,2.43782445 L11.0497535,2.43782445 C11.0497535,2.43782445 11.9002427,5.2340468 10.8833881,7.61894457 C10.8347805,7.56723004 10.7862752,7.52087095 10.7396299,7.46194093 C10.5893512,7.76777199 10.4191839,8.04848166 10.2307223,8.30239382 C10.3411828,8.42307466 10.4572646,8.53643778 10.5818495,8.63365289 C10.5685019,8.85212119 10.5180547,9.10409148 10.3705967,9.24686852 L10.3391388,9.28192401 C10.3364202,9.28474479 10.0872707,9.55396689 9.40226797,9.78226707 C9.90075094,9.8353511 10.4221273,9.91355654 10.9260679,10.0218709 C10.9395178,10.0086254 10.9508009,9.99517553 10.9603466,9.98573202 C10.9880027,9.95709485 11.0099149,9.92680199 11.0356291,9.89632519 C11.1287357,9.94589346 11.2409541,10.0056002 11.3950348,10.0902444 C12.1741252,10.5183098 13.5791044,11.2221178 13.8103276,11.481692 L13.7740865,11.481692 C14.026159,11.7909366 14.2525991,12.1466426 14.4256895,12.5253237 L15.5358346,12.5253237 C15.7165083,12.5253237 16.2634967,12.3255585 16.4908361,11.8204527 L16.4917151,11.8204527 C16.5878264,11.6044577 16.6401133,11.2506937 16.3404348,10.7836686 Z" id="形状"></path>
                    </g>
                    <g id="图表" transform="translate(52.189349, 10.769231)">
                        <rect id="矩形" x="14.0828402" y="0" width="149.112426" height="149.112426"></rect>
                        <g transform="translate(0.000000, 5.798817)">
                            <path d="M158.054026,31.3177191 C147.876812,20.8483959 131.9943,19.4041605 120.242668,26.9847217 C116.899288,29.1413184 112.850827,29.8644554 108.966915,29.002108 C99.7740754,26.9608404 90.1577801,28.3549834 81.9673724,32.8003976 C76.4609884,35.788762 69.7541328,35.2691984 64.61587,31.6849667 C61.2049233,29.3058663 57.2441244,27.6009754 52.8916143,26.7989136 C36.7461169,23.8233635 21.0488304,34.5320821 17.9451368,50.6531158 C14.7709643,67.1396496 25.7001479,82.9837186 42.1747411,85.9184957 C46.1999029,86.6355168 50.1802145,86.5146542 53.9371487,85.6808478 C60.034449,84.327769 66.4049279,86.5900841 70.3398068,91.4403153 C72.8234606,94.5017798 75.8185235,97.2341485 79.297328,99.5043269 C97.2755686,111.235281 121.359555,106.170701 133.090509,88.1927515 C133.103033,88.1738212 133.115264,88.1545997 133.127788,88.1356694 C135.27623,84.830441 138.617862,82.474057 142.482262,81.6938378 C148.118537,80.5559819 153.491244,77.7901211 157.846667,73.3950906 C169.313471,61.8237334 169.408996,42.9985808 158.054026,31.3177191 Z" id="路径" fill="url(#linearGradient-1)" fill-rule="nonzero"></path>
                            <path d="M110.335429,1.1034902 L110.335429,7.57564257 C103.073188,7.57564257 96.499718,10.5214867 91.7438471,15.2834736 L42.5897513,15.2834736 C40.1774501,15.2834736 38.219767,17.2382443 38.219767,19.6505455 L38.219767,119.920497 C38.219767,122.332507 40.1774501,124.290482 42.5897513,124.290482 L106.667613,124.290482 C109.079914,124.290482 111.037597,122.332799 111.037597,119.920497 L111.037597,60.1162213 C125.223955,59.7437315 136.609796,48.1269416 136.609796,33.8505917 L144.739044,33.8503005 C145.275499,33.8503005 145.699538,33.4044194 145.685686,32.8682554 C145.173858,14.1191152 130.066906,0.668967271 111.317474,0.157558247 C110.78131,0.142996487 110.335429,0.567034948 110.335429,1.1034902 Z" id="路径" fill="#5365EA" fill-rule="nonzero" opacity="0.08"></path>
                            <path d="M111.037597,24.8945266 L111.037597,125.164479 C111.037597,127.576489 109.079914,129.534463 106.667613,129.534463 L42.5897513,129.534463 C40.1774501,129.534463 38.219767,127.57678 38.219767,125.164479 L38.219767,24.8945266 C38.219767,22.4822254 40.1774501,20.5274547 42.5897513,20.5274547 L106.667613,20.5274547 C109.079914,20.5274547 111.037597,22.4822254 111.037597,24.8945266 Z" id="路径" fill="#FFFFFF" fill-rule="nonzero"></path>
                            <g id="下" transform="translate(36.766827, 19.674556)" fill="#0F1358">
                                <path d="M68.6395097,-0.414201183 C72.0202375,-0.414201183 74.7534559,2.47094813 74.8573294,6.05061558 L74.860392,6.2619688 L74.860392,105.15815 C74.860392,108.764211 72.1921876,111.718707 68.8376142,111.831008 L68.6395097,111.83432 L6.11086014,111.83432 C2.7301323,111.83432 -0.00308610051,108.94917 -0.106959616,105.369503 L-0.110022189,105.15815 L-0.110022189,24.0585782 C-0.110022189,23.7154427 0.16814409,23.4372765 0.511279586,23.4372765 C0.825820457,23.4372765 1.08576914,23.6710134 1.12690961,23.9742713 L1.13258136,24.0585782 L1.13258136,105.15815 C1.13258136,108.102487 3.27429404,110.483767 5.92907633,110.588147 L6.11086014,110.591716 L68.6395097,110.591716 C71.3167721,110.591716 73.5179795,108.275866 73.6144888,105.358007 L73.6177885,105.15815 L73.6177885,6.2619688 C73.6177885,3.31763113 71.4760758,0.936351514 68.8212935,0.831970858 L68.6395097,0.828402367 L6.11086014,0.828402367 C3.43359775,0.828402367 1.23239035,3.14425226 1.13588101,6.06211113 L1.13258136,6.2619688 L1.13258136,17.3929148 C1.13258136,17.7360503 0.854415081,18.0142166 0.511279586,18.0142166 C0.196738715,18.0142166 -0.0632099676,17.7804797 -0.104350436,17.4772218 L-0.110022189,17.3929148 L-0.110022189,6.2619688 C-0.110022189,2.65590757 2.55818221,-0.298589075 5.91275558,-0.410889959 L6.11086014,-0.414201183 L68.6395097,-0.414201183 Z" id="路径" fill-rule="nonzero"></path>
                                <rect id="矩形" x="0.511279586" y="16.7751479" width="73.7278107" height="1.24260355"></rect>
                            </g>
                            <path d="M62.1849297,130.362283 L45.6957748,130.362283 L45.6957748,118.554442 C45.6957748,118.071866 46.0871949,117.680446 46.5697716,117.680446 L61.3109329,117.680446 C61.7935096,117.680446 62.1849297,118.071866 62.1849297,118.554442 L62.1849297,130.362283 Z" id="路径" fill="#E7EFFF" fill-rule="nonzero"></path>
                            <path d="M82.8731139,130.362283 L66.3839589,130.362283 L66.3839589,118.554442 C66.3839589,118.071866 66.7753791,117.680446 67.2579558,117.680446 L81.999117,117.680446 C82.4816938,117.680446 82.8731139,118.071866 82.8731139,118.554442 L82.8731139,130.362283 Z" id="路径" fill="#E7EFFF" fill-rule="nonzero"></path>
                            <path d="M103.561298,130.362283 L87.0721431,130.362283 L87.0721431,118.554442 C87.0721431,118.071866 87.4635632,117.680446 87.94614,117.680446 L102.687301,117.680446 C103.169878,117.680446 103.561298,118.071866 103.561298,118.554442 L103.561298,130.362283 Z" id="路径" fill="#E7EFFF" fill-rule="nonzero"></path>
                            <path d="M111.037015,34.5571283 L111.037015,24.8954003 C111.037015,22.4825166 109.080788,20.5262898 106.667904,20.5262898 L42.5888776,20.5262898 C40.1759939,20.5262898 38.219767,22.4825166 38.219767,24.8954003 L38.219767,34.5571283 L111.037015,34.5571283 Z" id="路径" fill="#FFFFFF" fill-rule="nonzero"></path>
                            <path d="M76.759019,82.2189349 L81.4193648,82.2189349 C81.9019416,82.2189349 82.2930705,81.827806 82.2930705,81.3452293 L82.2930705,63.6168685 C82.2930705,63.1342918 81.9019416,62.7431629 81.4193648,62.7431629 L76.759019,62.7431629 C76.2764423,62.7431629 75.8853134,63.1342918 75.8853134,63.6168685 L75.8853134,81.3452293 C75.8853134,81.8275148 76.2764423,82.2189349 76.759019,82.2189349 Z" id="路径" fill="#6580FE" fill-rule="nonzero"></path>
                            <path d="M86.2870701,82.2189349 L90.9474159,82.2189349 C91.4299926,82.2189349 91.8211215,81.827806 91.8211215,81.3452293 L91.8211215,70.3767289 C91.8211215,69.8941522 91.4299926,69.5030233 90.9474159,69.5030233 L86.2870701,69.5030233 C85.8044933,69.5030233 85.4133645,69.8941522 85.4133645,70.3767289 L85.4133645,81.3452293 C85.4133645,81.8275148 85.8044933,82.2189349 86.2870701,82.2189349 Z" id="路径" fill="#6580FE" fill-rule="nonzero"></path>
                            <path d="M67.2306768,82.2189349 L71.8910226,82.2189349 C72.3735993,82.2189349 72.7647282,81.827806 72.7647282,81.3452293 L72.7647282,58.5269508 C72.7647282,58.0443741 72.3735993,57.6532452 71.8910226,57.6532452 L67.2306768,57.6532452 C66.7481,57.6532452 66.3569712,58.0443741 66.3569712,58.5269508 L66.3569712,81.3449381 C66.3569712,81.8275148 66.7481,82.2189349 67.2306768,82.2189349 Z" id="路径" fill="#6580FE" fill-rule="nonzero"></path>
                            <path d="M57.7026257,82.2189349 L62.3629715,82.2189349 C62.8455483,82.2189349 63.2366771,81.827806 63.2366771,81.3452293 L63.2366771,53.1312361 C63.2366771,52.6486594 62.8455483,52.2575305 62.3629715,52.2575305 L57.7026257,52.2575305 C57.220049,52.2575305 56.8289201,52.6486594 56.8289201,53.1312361 L56.8289201,81.3452293 C56.8289201,81.8275148 57.220049,82.2189349 57.7026257,82.2189349 Z" id="路径" fill="#6580FE" fill-rule="nonzero"></path>
                            <path d="M48.1742835,82.2189349 L52.8346293,82.2189349 C53.317206,82.2189349 53.7083349,81.827806 53.7083349,81.3452293 L53.7083349,48.0413184 C53.7083349,47.5587417 53.317206,47.1676128 52.8346293,47.1676128 L48.1742835,47.1676128 C47.6917067,47.1676128 47.3005778,47.5587417 47.3005778,48.0413184 L47.3005778,81.3449381 C47.3005778,81.8275148 47.6917067,82.2189349 48.1742835,82.2189349 Z" id="路径" fill="#6580FE" fill-rule="nonzero"></path>
                            <g id="编组" transform="translate(45.646265, 91.784393)" fill="#E7EFFF">
                                <rect id="矩形" x="20.7100592" y="0" width="16.5680473" height="1.65680473" rx="0.828402367"></rect>
                                <rect id="矩形备份-57" x="20.7100592" y="8.28402367" width="16.5680473" height="1.65680473" rx="0.828402367"></rect>
                                <rect id="矩形备份-59" x="41.4201183" y="8.28402367" width="16.5680473" height="1.65680473" rx="0.828402367"></rect>
                                <rect id="矩形备份-60" x="41.4201183" y="13.2544379" width="16.5680473" height="1.65680473" rx="0.828402367"></rect>
                                <rect id="矩形备份-56" x="41.4201183" y="0" width="16.5680473" height="1.65680473" rx="0.828402367"></rect>
                                <rect id="矩形备份-55" x="0" y="0" width="16.5680473" height="1.65680473" rx="0.828402367"></rect>
                                <rect id="矩形备份-58" x="0" y="8.28402367" width="16.5680473" height="1.65680473" rx="0.828402367"></rect>
                                <rect id="矩形备份-61" x="0" y="13.2544379" width="16.5680473" height="1.65680473" rx="0.828402367"></rect>
                                <rect id="矩形备份-63" x="0" y="18.2248521" width="16.5680473" height="1.65680473" rx="0.828402367"></rect>
                                <rect id="矩形备份-62" x="20.7100592" y="13.2544379" width="16.5680473" height="1.65680473" rx="0.828402367"></rect>
                                <rect id="矩形备份-64" x="20.7100592" y="18.2248521" width="16.5680473" height="1.65680473" rx="0.828402367"></rect>
                                <rect id="矩形备份-65" x="41.4201183" y="18.2248521" width="16.5680473" height="1.65680473" rx="0.828402367"></rect>
                            </g>
                            <circle id="椭圆形" fill="#FFFFFF" cx="110.345784" cy="40.2357618" r="26.5088757"></circle>
                            <circle id="椭圆形" fill="#FFFFFF" fill-rule="nonzero" cx="110.334555" cy="40.7513776" r="26.2752404"></circle>
                            <path d="M110.345784,13.1055843 C95.3622007,13.1055843 83.2156065,25.2521785 83.2156065,40.2357618 C83.2156065,55.2193451 95.3622007,67.3659393 110.345784,67.3659393 C125.329367,67.3659393 137.475962,55.2193451 137.475962,40.2357618 C137.475962,25.2521785 125.329367,13.1055843 110.345784,13.1055843 Z M110.345784,14.3481879 C124.643096,14.3481879 136.233358,25.9384495 136.233358,40.2357618 C136.233358,54.5330741 124.643096,66.1233358 110.345784,66.1233358 C96.0484717,66.1233358 84.4582101,54.5330741 84.4582101,40.2357618 C84.4582101,25.9384495 96.0484717,14.3481879 110.345784,14.3481879 Z" id="椭圆形" fill="#0F1358" fill-rule="nonzero"></path>
                            <path d="M143.449611,40.4727123 L109.905647,40.4727123 C109.381824,40.4727123 108.957276,40.0460147 108.957276,39.5195314 L108.957276,5.804937 C108.957276,5.26436718 109.403875,4.8435972 109.941853,4.8514105 C120.849965,5.01705341 129.848751,8.59209005 135.76522,14.2639638 C142.338077,20.5650887 143.357973,29.5400471 143.62781,39.4831413 C143.642409,40.0234176 143.98745,40.4727123 143.449611,40.4727123 Z" id="路径" fill="#E7EFFF" fill-rule="nonzero"></path>
                            <path d="M114.414567,4.23010873 C130.961496,4.23010873 144.371477,17.8505151 144.371477,34.6473431 C144.371477,34.7910433 144.369379,34.9414271 144.365184,35.0985066 L144.34631,35.5898439 C144.337923,35.7603266 144.327441,35.9375168 144.314864,36.1214264 L144.270853,36.6933255 L144.214284,37.3056126 L144.145167,37.958359 L144.063509,38.6516362 L143.969317,39.3855156 C143.952574,39.5112163 143.93531,39.6386117 143.917524,39.7677034 L143.804547,40.5626198 C143.764381,40.8372651 143.548367,41.0479782 143.280736,41.0873744 L143.189785,41.0940141 L134.67641,41.0940141 C134.333274,41.0940141 134.055108,40.8158478 134.055108,40.4727123 C134.055108,40.1581714 134.288845,39.8982227 134.592103,39.8570823 L134.67641,39.8514105 L142.650888,39.8511243 L142.739509,39.2069434 L142.836861,38.4455147 L142.920214,37.7305949 C142.93294,37.6153222 142.945084,37.5019909 142.956644,37.390603 L143.019018,36.7456092 C143.055942,36.3311789 143.083549,35.9478989 143.101853,35.5958849 L143.122332,35.0913277 C143.124583,35.0111479 143.126253,34.9329259 143.127342,34.8566633 L143.128873,34.6473431 C143.128873,18.5324928 130.270857,5.47271228 114.414567,5.47271228 L113.990289,5.47897631 L113.522742,5.49777434 C113.359692,5.50613034 113.189443,5.51657682 113.012011,5.52911526 L112.458178,5.57300799 L111.861326,5.6294614 L111.221537,5.69848442 L110.538894,5.78008592 L109.813481,5.87427483 L109.577751,5.90650888 L109.577751,39.8511243 L129.351325,39.8514105 C129.665866,39.8514105 129.925815,40.0851474 129.966955,40.3884053 L129.972627,40.4727123 C129.972627,40.7872531 129.73889,41.0472018 129.435632,41.0883423 L129.351325,41.0940141 L108.957276,41.0940141 C108.642735,41.0940141 108.382786,40.8602771 108.341646,40.5570192 L108.335974,40.4727123 L108.335974,5.36603676 C108.335974,5.05693716 108.563196,4.79484539 108.869172,4.75101349 L109.655052,4.64178273 L110.398308,4.54536931 L111.099022,4.46178215 L111.757277,4.39103013 L112.373156,4.33312216 C112.472276,4.32454166 112.569633,4.3164967 112.66523,4.30898747 L113.217701,4.27036225 L113.728002,4.24460334 L114.196217,4.23171961 C114.27075,4.23064575 114.343533,4.23010873 114.414567,4.23010873 Z" id="路径" fill="#0F1358" fill-rule="nonzero"></path>
                            <path d="M121.74981,33.2154077 L120.196653,33.2154077 C118.301003,33.2154077 116.758621,31.6730261 116.758621,29.7773761 L116.758621,24.9830621 C116.758621,23.0874122 118.301003,21.5450305 120.196653,21.5450305 L121.74981,21.5450305 C123.64546,21.5450305 125.187842,23.0874122 125.187842,24.9830621 L125.187842,29.7773761 C125.187551,31.6733173 123.645169,33.2154077 121.74981,33.2154077 Z M120.196362,24.4576738 C119.906583,24.4576738 119.670682,24.6935743 119.670682,24.9833534 L119.670682,29.7776673 C119.670682,30.0674464 119.906583,30.3033469 120.196362,30.3033469 L121.749519,30.3033469 C122.039298,30.3033469 122.275199,30.0674464 122.275199,29.7776673 L122.275199,24.9833534 C122.275199,24.6935743 122.039298,24.4576738 121.749519,24.4576738 L120.196362,24.4576738 Z" id="形状" fill="#5365EA" fill-rule="nonzero"></path>
                            <path d="M130.144957,33.2154077 C129.340565,33.2154077 128.688781,32.5636233 128.688781,31.7592317 L128.688781,24.4576738 L128.55889,24.4576738 C127.754498,24.4576738 127.102714,23.8058894 127.102714,23.0014978 C127.102714,22.1971061 127.754498,21.5453217 128.55889,21.5453217 L130.144957,21.5453217 C130.949348,21.5453217 131.601133,22.1971061 131.601133,23.0014978 L131.601133,31.7592317 C131.601133,32.5636233 130.949057,33.2154077 130.144957,33.2154077 Z" id="路径" fill="#5365EA" fill-rule="nonzero"></path>
                            <path d="M105.425786,56.4947115 L103.872629,56.4947115 C101.976979,56.4947115 100.434597,54.9523299 100.434597,53.0566799 L100.434597,48.2620747 C100.434597,46.3664247 101.976979,44.8240431 103.872629,44.8240431 L105.425786,44.8240431 C107.321436,44.8240431 108.863817,46.3664247 108.863817,48.2620747 L108.863817,53.0566799 C108.863526,54.9523299 107.321436,56.4947115 105.425786,56.4947115 Z M103.872629,47.7366864 C103.582849,47.7366864 103.346949,47.9725869 103.346949,48.2623659 L103.346949,53.0569712 C103.346949,53.3467502 103.582849,53.5826507 103.872629,53.5826507 L105.425786,53.5826507 C105.715565,53.5826507 105.951465,53.3467502 105.951465,53.0569712 L105.951465,48.2623659 C105.951465,47.9725869 105.715565,47.7366864 105.425786,47.7366864 L103.872629,47.7366864 Z" id="形状" fill="#5365EA" fill-rule="nonzero"></path>
                            <path d="M117.5103,56.366568 L112.234865,56.366568 C111.616864,56.366568 111.066429,55.9763129 110.8614,55.3935512 C110.65637,54.8107896 110.841596,54.1619175 111.323299,53.7745747 C112.792289,52.5947809 115.065671,50.4381842 115.520289,49.3378976 C115.695322,48.915024 115.667654,48.4487565 115.448354,48.1208256 C115.277982,47.8659948 115.024316,47.7366864 114.694346,47.7366864 C114.141291,47.7366864 113.691041,48.186936 113.691041,48.7399917 C113.691041,49.5443833 113.039257,50.1961677 112.234865,50.1961677 C111.430473,50.1961677 110.778689,49.5443833 110.778689,48.7399917 C110.778689,46.5807739 112.535129,44.8243343 114.694346,44.8243343 C115.99908,44.8243343 117.156449,45.4359283 117.869393,46.5021403 C118.633303,47.6449473 118.761446,49.1209273 118.211885,50.4507073 C117.817553,51.4047938 116.930159,52.489645 115.998789,53.454216 L117.510008,53.454216 C118.3144,53.454216 118.966184,54.1060004 118.966184,54.910392 C118.966184,55.7147837 118.314691,56.366568 117.5103,56.366568 L117.5103,56.366568 Z" id="路径" fill="#5365EA" fill-rule="nonzero"></path>
                            <path d="M111.588064,81.3594081 C103.955868,81.3594081 97.7687501,87.5465258 97.7687501,95.1787222 C97.7687501,102.810919 103.955868,108.998036 111.588064,108.998036 C119.220261,108.998036 125.407378,102.810919 125.407378,95.1787222 C125.407378,87.5465258 119.220261,81.3594081 111.588064,81.3594081 Z M111.588064,82.6020116 C118.53399,82.6020116 124.164775,88.2327968 124.164775,95.1787222 C124.164775,102.124648 118.53399,107.755433 111.588064,107.755433 C104.642139,107.755433 99.0113536,102.124648 99.0113536,95.1787222 C99.0113536,88.2327968 104.642139,82.6020116 111.588064,82.6020116 Z" id="椭圆形" fill="#0F1358" fill-rule="nonzero" transform="translate(111.588064, 95.178722) rotate(-83.457440) translate(-111.588064, -95.178722) "></path>
                            <circle id="椭圆形" fill="#FFFFFF" fill-rule="nonzero" transform="translate(111.588064, 95.178722) rotate(-83.457440) translate(-111.588064, -95.178722) " cx="111.588064" cy="95.1787222" r="12.4260355"></circle>
                            <g id="编组-14" transform="translate(107.692308, 88.639053)" fill="#5365EA">
                                <path d="M3.96206217,1.30336241e-13 C6.15024869,1.30336241e-13 7.92412435,1.84483068 7.92412435,4.12054466 C7.92412435,6.25725906 6.36032591,8.01411898 4.35807566,8.22076393 L4.35826839,10.3013617 L2.77344352,10.3013617 L2.77344352,6.59287146 L3.96206217,6.59287146 L3.96206217,6.59287146 C5.27497408,6.59287146 6.33929948,5.48597305 6.33929948,4.12054466 C6.33929948,2.75511627 5.27497408,1.64821786 3.96206217,1.64821786 C2.64915026,1.64821786 1.58482487,2.75511627 1.58482487,4.12054466 L-2.30716169e-13,4.12054466 C-2.30716169e-13,1.84483068 1.77387566,1.30336241e-13 3.96206217,1.30336241e-13 Z" id="Combined-Shape"></path>
                                <circle id="Oval-13" cx="3.56585596" cy="12.2823927" r="1.18861865"></circle>
                            </g>
                            <g id="编组" transform="translate(47.387204, 25.324519)" fill="#2626BC" fill-rule="nonzero">
                                <path d="M1.92454697,0.739899223 C1.12015533,0.739899223 0.468370932,1.39168362 0.468370932,2.19607526 L0.468370932,2.2385956 C0.468370932,3.04298724 1.12015533,3.69477163 1.92454697,3.69477163 C2.72893861,3.69477163 3.380723,3.04298724 3.380723,2.2385956 L3.380723,2.19607526 C3.380723,1.39168362 2.72893861,0.739899223 1.92454697,0.739899223 Z" id="路径"></path>
                                <path d="M7.55324982,0.739899223 C6.74885817,0.739899223 6.09707378,1.39168362 6.09707378,2.19607526 L6.09707378,2.2385956 C6.09707378,3.04298724 6.74885817,3.69477163 7.55324982,3.69477163 C8.35764146,3.69477163 9.00942585,3.04298724 9.00942585,2.2385956 L9.00942585,2.19607526 C9.00942585,1.39168362 8.35764146,0.739899223 7.55324982,0.739899223 Z" id="路径"></path>
                                <path d="M13.1819527,0.739899223 C12.377561,0.739899223 11.7257766,1.39168362 11.7257766,2.19607526 L11.7257766,2.2385956 C11.7257766,3.04298724 12.377561,3.69477163 13.1819527,3.69477163 C13.9863443,3.69477163 14.6381287,3.04298724 14.6381287,2.2385956 L14.6381287,2.19607526 C14.6381287,1.39168362 13.9863443,0.739899223 13.1819527,0.739899223 Z" id="路径"></path>
                            </g>
                            <path d="M147.657447,60.6564626 C146.853056,60.6564626 146.201271,60.0046783 146.201271,59.2002866 C146.201271,58.2339682 145.414936,57.4473419 144.448035,57.4473419 C143.643644,57.4473419 142.991859,56.7955575 142.991859,55.9911659 C142.991859,55.1867742 143.643644,54.5349898 144.448035,54.5349898 C145.414645,54.5349898 146.201271,53.7486548 146.201271,52.7817539 C146.201271,51.9773622 146.853056,51.3255778 147.657447,51.3255778 C148.461839,51.3255778 149.113623,51.9773622 149.113623,52.7817539 C149.113623,53.7483635 149.899958,54.5349898 150.866859,54.5349898 C151.671251,54.5349898 152.323035,55.1867742 152.323035,55.9911659 C152.323035,56.7955575 151.671251,57.4473419 150.866859,57.4473419 C149.90025,57.4473419 149.113623,58.233677 149.113623,59.2002866 C149.113623,60.0046783 148.461839,60.6564626 147.657447,60.6564626 Z" id="路径" fill="#E7EFFF" fill-rule="nonzero" opacity="0.750204397"></path>
                            <path d="M5.01121949,85.0676359 C4.20682785,85.0676359 3.55504345,84.4158515 3.55504345,83.6114599 C3.55504345,82.6448502 2.76870839,81.8582239 1.80180751,81.8582239 C0.997415865,81.8582239 0.345631472,81.2064395 0.345631472,80.4020479 C0.345631472,79.5976563 0.997415865,78.9458719 1.80180751,78.9458719 C2.76841716,78.9458719 3.55504345,78.1595368 3.55504345,77.1929271 C3.55504345,76.3885355 4.20682785,75.7367511 5.01121949,75.7367511 C5.81561113,75.7367511 6.46739553,76.3885355 6.46739553,77.1929271 C6.46739553,78.1592456 7.25373058,78.9458719 8.22063147,78.9458719 C9.02502311,78.9458719 9.67680751,79.5976563 9.67680751,80.4020479 C9.67680751,81.2064395 9.02502311,81.8582239 8.22063147,81.8582239 C7.25402182,81.8582239 6.46739553,82.644559 6.46739553,83.6114599 C6.46739553,84.4155603 5.81561113,85.0676359 5.01121949,85.0676359 Z" id="路径备份-2" fill="#6583FE" fill-rule="nonzero" opacity="0.500454215"></path>
                        </g>
                    </g>
                    <path d="M31.0885673,154.123905 L34.4021768,154.123905 L34.4021768,144.183077 L31.0885673,144.183077 L31.0885673,154.123905 Z M49.3134194,145.011479 C49.3134194,144.100237 48.5678573,143.354675 47.6566147,143.354675 L42.4293957,143.354675 L43.216378,139.568876 L43.24123,139.303787 C43.24123,138.964142 43.1004016,138.649349 42.876733,138.42568 L41.9986265,137.555858 L36.5477389,143.01503 C36.24123,143.313254 36.0589815,143.727456 36.0589815,144.183077 L36.0589815,152.467101 C36.0589815,153.378343 36.8045436,154.123905 37.7157863,154.123905 L45.1714076,154.123905 C45.8589815,154.123905 46.4471472,153.709704 46.6956679,153.113254 L49.1974431,147.273018 C49.2719993,147.082485 49.3134194,146.883669 49.3134194,146.668284 L49.3134194,145.011479 Z" id="形状" fill-opacity="0.32" fill="#D9E6F2" fill-rule="nonzero"></path>
                    <path d="M255.147929,35.3387524 L280,35.3387524 C279.852071,33.7115335 279.186391,32.897924 278.002959,32.897924 C276.227811,32.897924 275.340237,33.785498 274.89645,33.785498 C274.452663,33.785498 273.121302,30.6789891 270.902367,30.2352021 C268.683432,29.7914151 267.795858,31.5665631 266.908284,31.5665631 C266.02071,31.5665631 266.499196,28.8006046 262.026627,30.2352021 C259.044915,31.1916005 256.752015,32.8927839 255.147929,35.3387524 Z" id="直线-9" fill-opacity="0.32" fill="#D9E6F2"></path>
                    <path d="M31.2129712,16.1228323 L72.943382,16.1228323 C71.311485,14.2105693 69.5019553,13.2544379 67.5147929,13.2544379 C64.5340493,13.2544379 61.6327599,14.9112426 60.887574,14.9112426 C60.1423881,14.9112426 59.6430893,11.5976331 55.9171598,10.7692308 C52.1912302,9.9408284 50.7803126,12.4260355 49.2899408,12.4260355 C47.799569,12.4260355 45.2024316,5.60610826 37.6923077,8.28402367 C32.6855584,10.0693006 30.5257796,12.6822368 31.2129712,16.1228323 Z" id="直线-9" fill-opacity="0.32" fill="#D9E6F2"></path>
                </g>
            </g>
        </g>
    </g>
</svg>
