<?xml version="1.0" encoding="UTF-8"?>
<svg width="28px" height="28px" viewBox="0 0 28 28" version="1.1" xmlns="http://www.w3.org/2000/svg" xmlns:xlink="http://www.w3.org/1999/xlink">
    <title>编组</title>
    <defs>
        <path d="M10,20 C4.5,20 0,15.5 0,10 C0,4.5 4.5,0 10,0 C15.5,0 20,4.5 20,10 C20,15.5 15.5,20 10,20 Z" id="path-1"></path>
        <filter x="-30.0%" y="-30.0%" width="160.0%" height="160.0%" filterUnits="objectBoundingBox" id="filter-2">
            <feOffset dx="0" dy="0" in="SourceAlpha" result="shadowOffsetOuter1"></feOffset>
            <feGaussianBlur stdDeviation="2" in="shadowOffsetOuter1" result="shadowBlurOuter1"></feGaussianBlur>
            <feColorMatrix values="0 0 0 0 0.132058091   0 0 0 0 0.226766035   0 0 0 0 0.630151721  0 0 0 0.2 0" type="matrix" in="shadowBlurOuter1"></feColorMatrix>
        </filter>
    </defs>
    <g id="页面-1" stroke="none" stroke-width="1" fill="none" fill-rule="evenodd">
        <g id="需求池-编辑-解决" transform="translate(-925.000000, -58.000000)" fill-rule="nonzero">
            <g id="编组" transform="translate(929.000000, 62.000000)">
                <g id="形状">
                    <use fill="black" fill-opacity="1" filter="url(#filter-2)" xlink:href="#path-1"></use>
                    <use fill="#6681F4" xlink:href="#path-1"></use>
                </g>
                <path d="M15.4,9.4 L6.1,9.4 L9.3,6.3 C9.5,6.1 9.5,5.7 9.3,5.5 C9,5.3 8.7,5.3 8.4,5.5 L4.2,9.6 C4.1,9.7 4,9.8 4,10 C4,10.2 4.1,10.3 4.2,10.4 L8.4,14.5 C8.6,14.7 9,14.7 9.3,14.5 C9.5,14.3 9.5,13.9 9.3,13.7 L6.1,10.6 L15.4,10.6 C15.7,10.6 16,10.3 16,10 C16,9.7 15.7,9.4 15.4,9.4 L15.4,9.4 Z" id="路径" fill="#FFFFFF"></path>
            </g>
        </g>
    </g>
</svg>