<?xml version="1.0" encoding="UTF-8"?>
<svg width="16px" height="20px" viewBox="0 0 16 20" version="1.1" xmlns="http://www.w3.org/2000/svg" xmlns:xlink="http://www.w3.org/1999/xlink">
    <title>编组</title>
    <g id="UI&amp;UX上传" stroke="none" stroke-width="1" fill="none" fill-rule="evenodd">
        <g id="需求池-编辑-详情" transform="translate(-960.000000, -917.000000)" fill-rule="nonzero">
            <g id="编组-3备份" transform="translate(940.000000, 48.000000)">
                <g id="编组" transform="translate(20.000000, 869.000000)">
                    <path d="M0.977145522,0.00699626866 C0.725279851,0.00699626866 0.482742537,0.109608209 0.307835821,0.293843284 C0.132929104,0.473414179 0.0303171642,0.711287313 0.020988806,0.963152985 L0.020988806,18.1576493 C0.020988806,18.4095149 0.123600746,18.6520522 0.307835821,18.826959 C0.482742537,19.0088619 0.725279851,19.1114739 0.977145522,19.113806 L14.9883396,19.113806 C15.2402052,19.113806 15.4827425,19.011194 15.6576493,18.826959 C15.8395522,18.6520522 15.9421642,18.4095149 15.9444963,18.1576493 L15.9444963,5.41977612 L10.5293843,0.00699626866 L0.977145522,0.00699626866 Z" id="路径" fill="#415BC9"></path>
                    <path d="M15.9421642,5.41977612 L11.485541,5.41977612 C10.963153,5.40578358 10.5433769,4.98600746 10.5293843,4.4636194 L10.5293843,0.00699626866 L15.9421642,5.41977612 Z" id="路径" fill="#203CB4"></path>
                    <path d="M3.99020522,0.00699626866 L5.34281716,0.00699626866 L5.34281716,1.35960821 L3.99020522,1.35960821 L3.99020522,0.00699626866 L3.99020522,0.00699626866 Z M5.3358209,1.35960821 L6.68843284,1.35960821 L6.68843284,2.71222015 L5.3358209,2.71222015 L5.3358209,1.35960821 Z" id="形状" fill="#FFFFFF"></path>
                    <path d="M3.99020522,2.70522388 L5.34281716,2.70522388 L5.34281716,4.05783582 L3.99020522,4.05783582 L3.99020522,2.70522388 Z M5.3358209,4.05550373 L6.68843284,4.05550373 L6.68843284,5.40811567 L5.3358209,5.40811567 L5.3358209,4.05550373 Z" id="形状" fill="#FFFFFF"></path>
                    <path d="M3.99020522,5.4011194 L5.34281716,5.4011194 L5.34281716,6.75373134 L3.99020522,6.75373134 L3.99020522,5.4011194 Z M5.3358209,6.75373134 L6.68843284,6.75373134 L6.68843284,8.10634328 L5.3358209,8.10634328 L5.3358209,6.75373134 Z M3.99020522,8.10634328 L5.34281716,8.10634328 L5.34281716,9.45895522 L3.99020522,9.45895522 L3.99020522,8.10634328 Z" id="形状" fill="#FFFFFF"></path>
                    <path d="M5.3358209,9.45195896 L6.68843284,9.45195896 L6.68843284,10.8045709 L5.3358209,10.8045709 L5.3358209,9.45195896 L5.3358209,9.45195896 Z M3.99020522,12.3460821 L3.99020522,15.0373134 C3.99020522,15.2168843 4.06016791,15.3871269 4.18843284,15.5130597 C4.31436567,15.6389925 4.4869403,15.7112873 4.6641791,15.7112873 L6.03777985,15.7112873 C6.21735075,15.7112873 6.38759328,15.6413246 6.51352612,15.5130597 C6.63945896,15.3871269 6.71175373,15.2145522 6.71175373,15.0373134 L6.71175373,12.3460821 L3.99020522,12.3460821 Z M6.03777985,15.0373134 L4.6641791,15.0373134 L4.6641791,13.6847015 L6.03777985,13.6847015 L6.03777985,15.0373134 L6.03777985,15.0373134 Z" id="形状" fill="#FFFFFF"></path>
                </g>
            </g>
        </g>
    </g>
</svg>