<?xml version="1.0" encoding="UTF-8"?>
<svg width="30px" height="28px" viewBox="0 0 30 28" version="1.1" xmlns="http://www.w3.org/2000/svg" xmlns:xlink="http://www.w3.org/1999/xlink">
    <title>team</title>
    <g id="页面-1" stroke="none" stroke-width="1" fill="none" fill-rule="evenodd">
        <g id="规划--规划列表-路线视图-pi检查" transform="translate(-734.000000, -87.000000)" fill-rule="nonzero">
            <g id="未分配的子项目" transform="translate(720.000000, 77.000000)">
                <g id="team" transform="translate(14.000000, 10.000000)">
                    <path d="M17.8729248,22.7227108 L11.2564087,16.4117078 C10.8416748,16.016124 10.8412171,15.3762475 11.2550354,14.9815369 C11.4186859,14.8254429 11.6230774,14.7309132 11.8357086,14.6990394 C12.1595764,14.6490456 12.5040436,14.7435754 12.7546692,14.9826285 L11.0508728,13.357722 C10.8437347,13.1599301 10.7395935,12.9012288 10.739822,12.6427458 C10.739822,12.5890407 10.7444,12.5348989 10.7533264,12.4809755 C10.7874298,12.2779441 10.8860779,12.0834269 11.0497284,11.9273328 C11.2117767,11.772767 11.4125061,11.6791105 11.6221618,11.6459269 C11.9078064,11.6005177 12.2085571,11.666885 12.4484253,11.845247 L11.8000031,11.2267652 C11.592865,11.0291916 11.4887238,10.7693987 11.4887238,10.5109156 C11.4884948,10.456119 11.4933014,10.4006674 11.5029144,10.3465257 C11.5367889,10.1450225 11.635437,9.95137851 11.7984009,9.79593939 C11.9620514,9.63984531 12.166214,9.54553393 12.3797607,9.51344185 C12.7036286,9.4636664 13.0480957,9.55819614 13.2987213,9.79724924 L14.041214,10.5054578 C13.7908172,10.266623 13.6914826,9.93784305 13.7436676,9.62892961 C13.7773132,9.4261165 13.8757324,9.23159933 14.0398407,9.0750686 C14.4534302,8.68079467 15.1249695,8.68101297 15.5394745,9.07637851 L19.8392487,13.1778318 L19.8513794,13.1614583 C20.0692749,12.953624 20.3260804,12.8058258 20.6000519,12.7176273 C21.2763977,12.5004055 22.0543671,12.6488585 22.5938415,13.1634232 L24.5988464,15.0758483 C24.9842835,15.443488 25.2003479,15.9414608 25.2012634,16.46061 L25.2024079,17.6569673 C25.2028656,18.2160679 25.4360962,18.7524638 25.8512878,19.1484843 L26.2985229,19.5748503 L21.1846161,24.4524077 L20.613327,23.9074975 C20.2333832,23.5450973 19.7280121,23.3267839 19.1921997,23.293382 C18.6943817,23.2621631 18.2258606,23.0595683 17.8729248,22.7227108 L17.8729248,22.7227108 Z" id="路径" fill="#FECBAA"></path>
                    <path d="M20.8522796,24.7691804 L26.6564941,19.2329715 C26.8478394,19.0504616 27.1579743,19.0504616 27.3490905,19.2329715 L29.4163513,21.2045596 C29.6074676,21.3870696 29.6074676,21.6826659 29.4163513,21.8651759 L23.6119079,27.4016031 C23.4205628,27.5838947 23.1106567,27.5838947 22.9193115,27.4016031 L20.8522796,25.4297967 C20.6609344,25.247505 20.6609344,24.9516904 20.8522796,24.7691804 L20.8522796,24.7691804 Z" id="路径" fill="#FDD559"></path>
                    <path d="M12.1261597,22.7233658 L18.7426758,16.4123627 C19.1574097,16.016779 19.1576385,15.3769025 18.7438202,14.9821919 C18.5801696,14.8258795 18.3757782,14.7315681 18.1633758,14.699476 C17.8392792,14.6497006 17.4950409,14.7442303 17.2441864,14.9832834 L18.9479828,13.3581587 C19.1551208,13.1605851 19.2592621,12.9016654 19.2590336,12.6431824 C19.2590336,12.5894773 19.2546844,12.5353356 19.2455292,12.4816305 C19.2114258,12.2785991 19.1127777,12.0840818 18.9491272,11.9279878 C18.7873078,11.7734219 18.5863495,11.6797655 18.3766937,11.6465818 C18.0910492,11.6011727 17.7902985,11.6675399 17.5504303,11.8456836 L18.1988525,11.2272019 C18.4059906,11.0296282 18.5101318,10.7700536 18.5101318,10.5115706 C18.5103607,10.4565556 18.5055542,10.4013224 18.4959411,10.3471806 C18.4620667,10.1456774 18.3634186,9.95181511 18.2004547,9.79659428 C18.0368042,9.64050026 17.8326416,9.54597059 17.6193237,9.51409681 C17.2952271,9.46432136 16.9509888,9.55863273 16.7001343,9.79768589 L15.9576416,10.5058945 C16.2080384,10.267278 16.307373,9.938498 16.255188,9.62936627 C16.2217712,9.42677146 16.1231232,9.23225423 15.9590149,9.07572355 C15.5454254,8.68123127 14.8738861,8.68166793 14.45961,9.07681511 L10.1596069,13.1782685 L10.1474762,13.1621132 C9.9295807,12.9542789 9.67277525,12.8064808 9.39880371,12.7182822 C8.7226868,12.5008421 7.94448855,12.6495135 7.40501402,13.1640781 L5.40023801,15.0765033 C5.01480105,15.444143 4.79850768,15.9421158 4.79782102,16.4612649 L4.79644775,17.6576222 C4.79621889,18.2169411 4.56298828,18.7531188 4.1477966,19.1491392 L3.70056152,19.5755053 L8.81423953,24.4530626 L9.38575746,23.9081524 C9.76570131,23.5457522 10.2710724,23.3274389 10.8068848,23.2940369 C11.3044739,23.2628181 11.772995,23.060005 12.1261597,22.7233658 Z" id="路径" fill="#FECBAA"></path>
                    <path d="M9.14680482,24.7698353 L3.34236146,19.2334082 C3.15101625,19.0508982 2.84088135,19.0508982 2.649765,19.2334082 L0.582504258,21.2052146 C0.391387969,21.3875063 0.391387969,21.6833208 0.582504258,21.8658309 L6.38694762,27.4020397 C6.57829283,27.5845496 6.88819887,27.5845496 7.07954408,27.4020397 L9.14680482,25.4304516 C9.33792117,25.2479416 9.33792117,24.952127 9.14680482,24.7698353 L9.14680482,24.7698353 Z" id="路径" fill="#FF84A7"></path>
                    <path d="M19.2313385,7.59839694 L19.2313385,16.5234843 C19.2313385,17.0830214 18.7573242,17.5355851 18.1718445,17.5355851 C17.940445,17.5355851 17.7259827,17.4646333 17.5518036,17.3439059 C17.2858429,17.1605227 17.1123504,16.8616517 17.1123504,16.5234843 L17.1123504,18.8216692 C17.1123504,19.1011103 16.9940186,19.3543538 16.8024445,19.5370821 C16.762619,19.5750686 16.7193604,19.610217 16.6728973,19.6420908 C16.4982605,19.7628181 16.2844849,19.8337699 16.0530853,19.8337699 C15.8239746,19.8337699 15.6124878,19.7645646 15.4394531,19.6466754 C15.2039337,19.486215 15.0405121,19.2364645 15.0029754,18.9485092 L15.0029754,19.8232909 C15.0029754,20.102732 14.8839569,20.3564122 14.6923828,20.5391405 C14.6520996,20.5782186 14.6074676,20.614022 14.5605469,20.6458957 C14.3870544,20.7655315 14.1739655,20.8360466 13.9434814,20.8360466 C13.7120819,20.8360466 13.4976196,20.7648765 13.3229828,20.6437126 C13.0570221,20.4603293 12.8835296,20.1614583 12.8835296,19.8232909 L12.8835296,18.8216692 C12.8835296,19.1591816 12.7100372,19.4589259 12.4440765,19.6420908 C12.2701263,19.7628181 12.0561218,19.8337699 11.8242645,19.8337699 C11.2394714,19.8337699 10.7647705,19.3805514 10.7647705,18.8216692 L10.7647705,13.0213011 L10.7441712,13.0247941 C10.4360962,13.0247941 10.1447296,12.9560254 9.88586426,12.8335516 C9.2465973,12.5311876 8.80645752,11.9013536 8.80645752,11.1737151 L8.80645752,8.46924897 C8.80645752,7.94944485 9.02275084,7.45147206 9.40704346,7.08361404 L10.2930451,6.23699475 C10.7073212,5.84119261 10.9398651,5.30457832 10.9398651,4.74460453 L10.9398651,4.14162302 L18.1718445,4.14162302 L18.1718445,4.9122692 C18.1718445,5.424869 18.3675384,5.92000373 18.7213898,6.30510852 C19.050293,6.66270585 19.2313385,7.12225549 19.2313385,7.59839694 L19.2313385,7.59839694 Z" id="路径" fill="#FEDFC5"></path>
                    <path d="M18.7438202,14.9821919 C18.5801696,14.8258795 18.3757782,14.7315681 18.1633758,14.699476 C17.8392792,14.6497006 17.4950409,14.7442303 17.2444153,14.9832834 L18.9482116,13.3581587 C19.1553497,13.1605851 19.2592621,12.9016654 19.2592621,12.6431824 C19.2592621,12.5894773 19.2546844,12.5353356 19.2455292,12.4816305 C19.2116546,12.2783807 19.1130066,12.0840818 18.9493561,11.9279878 C18.7873078,11.7734219 18.5863495,11.6797655 18.3766937,11.6465818 C18.091278,11.6011727 17.7905273,11.6675399 17.5506592,11.8456836 L18.1990814,11.2272019 C18.4062195,11.0296282 18.5101318,10.7700536 18.5101318,10.5115706 C18.5105896,10.4565556 18.5055542,10.4013224 18.4959411,10.3471806 C18.4620667,10.1456774 18.3634186,9.95181511 18.2006836,9.79659428 C18.0370331,9.64050026 17.8326416,9.54597059 17.6193237,9.51409681 C17.2952271,9.46432136 16.9509888,9.55863273 16.7003631,9.79768589 L15.9578705,10.5058945 C16.2080384,10.267278 16.3076019,9.938498 16.255188,9.62936627 C16.2217712,9.42677146 16.1231232,9.23225423 15.9590149,9.07572355 C15.5454254,8.68123127 14.8738861,8.68166793 14.45961,9.07681511 L10.1596069,13.1782685 L10.1474762,13.1621132 C9.9295807,12.9542789 9.67277525,12.8064808 9.39880371,12.7182822 C9.07447816,12.6139284 8.72657777,12.5949351 8.39286803,12.6591192 C8.6618042,13.0466255 9.03739928,13.3679828 9.49562074,13.5847679 C9.62265012,13.6448041 9.75288393,13.6952345 9.88563539,13.7360591 L9.88563539,18.8216692 C9.88563539,19.8420659 10.7551575,20.6720933 11.8240356,20.6720933 C11.9524383,20.6720933 12.0792389,20.6603044 12.2026062,20.6369448 C12.3406219,20.9059069 12.5461579,21.1425586 12.805481,21.3213573 C12.9663849,21.4331337 13.1419372,21.5187126 13.3266449,21.5780938 L18.7424469,16.4121444 C19.1574097,16.016779 19.1578675,15.3769025 18.7438202,14.9821919 L18.7438202,14.9821919 Z" id="路径" fill="#FFAE85"></path>
                    <path d="M20.1095581,16.5234843 L20.1095581,12.9542789 C20.018692,13.0149701 19.9319458,13.0841754 19.8506927,13.1616766 L19.8387909,13.1778318 L15.5387878,9.07637851 C15.1245117,8.68123127 14.4527435,8.68079467 14.0393829,9.0752869 C13.8752747,9.23181763 13.7766266,9.4261165 13.742981,9.62892961 C13.6907959,9.93806135 13.7903595,10.2668413 14.0405273,10.5054578 L13.2980347,9.79724924 C13.047409,9.55819614 12.7031708,9.46388476 12.3790741,9.51366015 C12.1657562,9.54553393 11.9613647,9.64006361 11.7977142,9.79615768 C11.6349792,9.95137851 11.5363312,10.1452408 11.5022278,10.346744 C11.4928436,10.4008857 11.4878082,10.456119 11.488266,10.511134 C11.488266,10.769617 11.5921784,11.0291916 11.7995453,11.2267652 L12.4479675,11.845247 C12.2078705,11.6671033 11.9071198,11.600736 11.6217041,11.6461452 C11.4120483,11.6793288 11.2110901,11.7729853 11.0490417,11.9275512 C10.8853912,12.0836452 10.7867432,12.2779441 10.7528687,12.4811939 C10.7437134,12.5348989 10.7391357,12.5890407 10.7391357,12.6427458 C10.7391357,12.9012288 10.8430481,13.1601484 11.0501862,13.357722 L12.7539826,14.9828468 C12.5033569,14.7437937 12.1591187,14.649264 11.835022,14.6990394 C11.6226196,14.7311315 11.4182282,14.8254429 11.2545776,14.9815369 C10.8407593,15.3764658 10.8412171,16.0163423 11.2559509,16.4119261 L15.6884766,20.639783 C15.8074951,20.6613959 15.9292603,20.6723116 16.0526276,20.6723116 C16.4632416,20.6723116 16.8560028,20.5509294 17.1865082,20.3223553 C17.2709655,20.264284 17.3506165,20.1994448 17.4234009,20.1300212 C17.7893829,19.7811564 17.990799,19.3165856 17.990799,18.8218875 L17.990799,18.3662675 C18.0505371,18.371507 18.110733,18.3741267 18.1713867,18.3741267 C19.240036,18.3739084 20.1095581,17.543881 20.1095581,16.5234843 L20.1095581,16.5234843 Z" id="路径" fill="#FFAE85"></path>
                    <path d="M19.2313385,7.59839694 L19.2313385,16.5234843 C19.2313385,17.0830214 18.7573242,17.5355851 18.1718445,17.5355851 C18.1560516,17.5355851 18.1391144,17.5355851 18.1219482,17.5344935 C17.9104614,17.5251061 17.7143097,17.4563373 17.5531769,17.3445609 C17.5524902,17.3445609 17.5524902,17.3439059 17.5518036,17.3439059 C17.2858429,17.1605227 17.1123504,16.8616517 17.1123504,16.5234843 L17.1123504,18.8216692 C17.1123504,19.1011103 16.9940186,19.3543538 16.8024445,19.5370821 C16.762619,19.5750686 16.7193604,19.610217 16.6728973,19.6420908 C16.4982605,19.7628181 16.2844849,19.8337699 16.0530853,19.8337699 C15.8239746,19.8337699 15.6124878,19.7645646 15.4394531,19.6466754 C15.2039337,19.486215 15.0405121,19.2364645 15.0029754,18.9485092 L15.0029754,19.8232909 C15.0029754,20.102732 14.8839569,20.3564122 14.6923828,20.5391405 C14.6520996,20.5782186 14.6074676,20.614022 14.5605469,20.6458957 C14.3870544,20.7655315 14.1739655,20.8360466 13.9434814,20.8360466 C13.7120819,20.8360466 13.4976196,20.7648765 13.3229828,20.6437126 C13.0570221,20.4603293 12.8835296,20.1614583 12.8835296,19.8232909 L12.8835296,18.8216692 C12.8835296,19.1591816 12.7100372,19.4589259 12.4440765,19.6420908 C12.2701263,19.7628181 12.0561218,19.8337699 11.8242645,19.8337699 C11.2394714,19.8337699 10.7647705,19.3805514 10.7647705,18.8216692 L10.7647705,13.0213011 L10.7441712,13.0247941 C10.4360962,13.0247941 10.1447296,12.9560254 9.88586426,12.8335516 C9.2465973,12.5311876 8.80645752,11.9013536 8.80645752,11.1737151 L8.80645752,8.46924897 C8.80645752,7.94944485 9.02275084,7.45147206 9.40704346,7.08361404 L10.2930451,6.23699475 C10.5491638,5.99204717 10.7361603,5.69361277 10.8409881,5.36832588 C10.9066772,5.16725922 10.9398651,4.95527692 10.9398651,4.74460453 L10.9398651,4.14162302 L18.1718445,4.14162302 L18.1718445,4.9122692 C18.1718445,5.08495509 18.1910706,5.26724677 18.2416535,5.43381983 C18.325882,5.75408556 18.4899902,6.05295661 18.7213898,6.30510852 C19.0473175,6.66008609 19.2313385,7.1255302 19.2313385,7.59839694 L19.2313385,7.59839694 Z" id="路径" fill="#FEDFC5"></path>
                    <path d="M19.2313385,7.59839694 L19.2313385,16.5234843 C19.2313385,17.0830214 18.7573242,17.5355851 18.1718445,17.5355851 C18.1560516,17.5355851 18.1391144,17.5355851 18.1219482,17.5344935 C17.9104614,17.5251061 17.7143097,17.4563373 17.5531769,17.3445609 L17.5712585,8.74410552 C17.5712585,8.69214697 17.5588989,8.61006114 17.5360107,8.50548902 C17.1318054,6.62712076 15.4694367,5.36832588 13.4589386,5.36832588 L10.8409881,5.36832588 C10.9066772,5.16725922 10.9398651,4.95527692 10.9398651,4.74460453 L10.9398651,4.14162302 L18.1718445,4.14162302 L18.1718445,4.9122692 C18.1718445,5.08495509 18.1910706,5.26724677 18.2416535,5.43381983 C18.325882,5.75408556 18.4899902,6.05295661 18.7213898,6.30510852 C19.0473175,6.66008609 19.2313385,7.1255302 19.2313385,7.59839694 L19.2313385,7.59839694 Z" id="路径" fill="#FECBAA"></path>
                    <path d="M18.6417389,4.14184132 L10.4328919,4.14184132 C10.1625824,4.14184132 9.94331361,3.93269713 9.94331361,3.6746507 L9.94331361,0.886352295 C9.94331361,0.628305916 10.1625824,0.419161677 10.4328919,0.419161677 L18.6417389,0.419161677 C18.9120483,0.419161677 19.1313171,0.628305916 19.1313171,0.886352295 L19.1313171,3.6746507 C19.1313171,3.93269713 18.9120483,4.14184132 18.6417389,4.14184132 Z" id="路径" fill="#83D9FF"></path>
                    <path d="M12.3257446,25.0315931 L12.2376251,25.4422405 L12.3225403,25.0311564 C12.0845032,24.9864022 11.8533325,25.1342003 11.8064118,25.3612462 C11.7594909,25.5885105 11.914444,25.8087887 12.15271,25.8535429 C12.1533966,25.8537612 12.1600342,25.8548528 12.1607208,25.8550711 C12.1886444,25.8600923 12.2163391,25.862712 12.243805,25.862712 C12.4504852,25.862712 12.6347351,25.7229915 12.6747894,25.5221432 C12.7205658,25.2946607 12.5642395,25.0750374 12.3257446,25.0315931 Z" id="路径" fill="#000000"></path>
                    <path d="M15.68573,25.1662924 L15.7294464,25.5832709 L15.6843567,25.1665107 C15.4428864,25.1900886 15.267334,25.3959581 15.2922821,25.6262787 C15.3153991,25.8419723 15.5062866,26.002651 15.7287598,26.002651 C15.7438659,26.002651 15.759201,26.0017777 15.7743073,26.0004678 L15.786438,25.9991579 C16.0267639,25.9723054 16.1972809,25.7655626 16.1705017,25.5363336 C16.1434937,25.3073228 15.9260559,25.142278 15.68573,25.1662924 L15.68573,25.1662924 Z" id="路径" fill="#000000"></path>
                    <path d="M14.0034485,25.2191243 C14.0034485,25.2191243 13.9972687,25.2189059 13.9970398,25.2189059 C13.7548828,25.2084269 13.5525513,25.3878805 13.5415649,25.6190744 C13.5308075,25.8502682 13.7212372,26.0460953 13.963623,26.0565743 C13.9704895,26.057011 13.9771271,26.057011 13.9839935,26.057011 C14.217453,26.057011 14.4120026,25.8817053 14.4225311,25.6568426 C14.4335174,25.4256487 14.2460632,25.2296033 14.0034485,25.2191243 L14.0034485,25.2191243 Z" id="路径" fill="#000000"></path>
                    <path d="M10.7025146,24.6056637 L10.6970215,24.6036989 C10.4685974,24.5255427 10.2195739,24.6395023 10.1376343,24.857379 C10.0554657,25.0752558 10.1767731,25.3162737 10.4051971,25.3946482 C10.4544067,25.4114583 10.5045319,25.4193176 10.5537415,25.4193176 C10.7338714,25.4193176 10.9030151,25.312999 10.9673309,25.1418413 C11.0494995,24.9239646 10.9309387,24.6838198 10.7025146,24.6056637 L10.7025146,24.6056637 Z" id="路径" fill="#000000"></path>
                    <path d="M17.3442077,24.8728792 L17.4524689,25.2791604 L17.3428345,24.8733159 C17.1077728,24.9309506 16.9663239,25.1595247 17.0267487,25.3837325 C17.0777893,25.5727919 17.2563171,25.6985404 17.4520111,25.6985404 C17.4884033,25.6985404 17.5252533,25.6941742 17.5621032,25.685005 C17.5639343,25.6845683 17.5717163,25.6826035 17.5737762,25.6821669 C17.8070068,25.6214758 17.9434204,25.3929017 17.8811646,25.1700037 C17.8189087,24.9473241 17.5783539,24.8148079 17.3442077,24.8728792 L17.3442077,24.8728792 Z" id="路径" fill="#000000"></path>
                    <path d="M18.9328766,24.3443426 L19.1070557,24.7290107 L18.9315033,24.3447792 C18.7090301,24.437344 18.6071777,24.6842565 18.7039948,24.8964571 C18.7760925,25.0542977 18.9376831,25.1483907 19.1072845,25.1483907 C19.1656494,25.1483907 19.2253876,25.1370385 19.2823792,25.1134606 C19.2842102,25.1125874 19.2913055,25.1097492 19.2931366,25.108876 C19.5135498,25.0139097 19.6108246,24.7676522 19.5124054,24.5569798 C19.4139862,24.3460891 19.1544342,24.2515594 18.9328766,24.3443426 L18.9328766,24.3443426 Z" id="路径" fill="#000000"></path>
                    <path d="M9.02389523,5.2366829 C9.0943909,5.2366829 9.1660309,5.22052768 9.23217773,5.18690745 C9.44641113,5.07796906 9.52720641,4.82407059 9.41299441,4.61972928 C9.29878236,4.41560626 9.03282164,4.33810505 8.81858824,4.44726174 L8.81332395,4.4498815 C8.59931947,4.55881983 8.52081299,4.81140845 8.63502504,5.01574976 C8.71376039,5.15678018 8.86665346,5.2366829 9.02389523,5.2366829 Z" id="路径" fill="#000000"></path>
                    <path d="M3.94065855,9.91841317 C4.00588992,9.95094185 4.07569887,9.96644212 4.14459229,9.96644212 C4.30274965,9.96644212 4.45564271,9.88479294 4.53414914,9.74179767 L4.54193115,9.72717066 C4.64904785,9.51933633 4.55932617,9.26805762 4.34143066,9.16610526 C4.12513734,9.06437126 3.86375426,9.14820359 3.7552643,9.35319986 C3.64311217,9.55797778 3.72596742,9.81100299 3.94065855,9.91841317 Z" id="路径" fill="#000000"></path>
                    <path d="M3.32199094,11.4952907 C3.36868289,11.5103543 3.41606139,11.5175586 3.46298215,11.5175586 C3.64608762,11.5175586 3.81706236,11.4073104 3.87908936,11.2326597 L3.88481139,11.2160679 C3.95622252,10.9949164 3.82598877,10.7602295 3.59390262,10.6923341 C3.36387633,10.624657 3.11965945,10.7464758 3.04618834,10.9647892 C2.96905518,11.1837575 3.0924225,11.4212824 3.32199094,11.4952907 Z" id="路径" fill="#000000"></path>
                    <path d="M4.80766295,8.45200226 C4.88571164,8.50614398 4.97611998,8.53234158 5.06584166,8.53234158 C5.20156863,8.53234158 5.33569336,8.47230539 5.42152406,8.35965569 L5.42724609,8.35223301 C5.5682373,8.16404691 5.52223207,7.90294411 5.32539369,7.76846307 C5.12832645,7.63376374 4.85366824,7.67698976 4.71221924,7.86473926 L5.06629945,8.1131799 L4.71084598,7.86648576 C4.56802371,8.05379867 4.61151123,8.31599301 4.80766295,8.45200226 Z" id="路径" fill="#000000"></path>
                    <path d="M7.53204346,6.14202847 C7.62428285,6.14202847 7.71720885,6.11430266 7.79663086,6.05666793 C7.99255371,5.92000373 8.03489684,5.65780938 7.89161684,5.47093313 C7.74810791,5.28405689 7.47322084,5.24366893 7.27752686,5.38033307 L7.26654053,5.38797405 C7.07336426,5.52791291 7.03491211,5.79141717 7.18162535,5.97589195 C7.26814271,6.08461204 7.39929199,6.14202847 7.53204346,6.14202847 Z" id="路径" fill="#000000"></path>
                    <path d="M2.9296875,17.8521395 C2.98782352,18.032248 3.16131592,18.1477358 3.34899902,18.1477358 C3.39179994,18.1477358 3.43551633,18.141623 3.47854617,18.1289608 C3.70925906,18.061502 3.83949281,17.8283433 3.77037047,17.6078468 C3.70422363,17.387787 3.46504213,17.2585454 3.23226926,17.3190182 C2.99812318,17.3799276 2.86010742,17.6104665 2.92396547,17.8338011 C2.92533873,17.8381674 2.92831418,17.8477732 2.9296875,17.8521395 Z" id="路径" fill="#000000"></path>
                    <path d="M6.20452881,7.24669408 C6.31874086,7.24669408 6.43295285,7.20455962 6.51924135,7.12072728 C6.69067383,6.95699228 6.69067383,6.69152322 6.51924135,6.52800651 C6.34757994,6.36427146 6.06925963,6.36427146 5.89759828,6.52800651 L5.89027406,6.53499254 C5.72044371,6.70025575 5.72387695,6.96528816 5.89714049,7.12727671 C5.9825134,7.20717938 6.09352113,7.24669408 6.20452881,7.24669408 Z" id="路径" fill="#000000"></path>
                    <path d="M3.41537473,16.0246382 C3.38447572,15.7969374 3.16635129,15.6353855 2.92739871,15.6624564 C2.68661496,15.6899638 2.51449582,15.8984531 2.54310609,16.1283371 L2.54562375,16.1451472 C2.57766727,16.3534182 2.76512145,16.5027445 2.97958371,16.5027445 C3.0006409,16.5027445 3.02215576,16.5012163 3.04389955,16.4981599 C3.28308105,16.4649763 3.44902037,16.2527757 3.41537473,16.0246382 Z" id="路径" fill="#000000"></path>
                    <path d="M2.8633118,14.824133 C2.86788938,14.824133 2.87223814,14.8243513 2.87658691,14.8243513 C3.1132507,14.8243513 3.30871582,14.6446794 3.3155823,14.4174152 L3.31604004,14.3995135 C3.31604004,14.167883 3.11920166,13.9803518 2.87658691,13.9803518 C2.63557436,13.9803518 2.44010924,14.1650449 2.43713379,14.3940556 C2.4307251,14.6250312 2.62138365,14.8173653 2.8633118,14.824133 L2.8633118,14.824133 Z" id="路径" fill="#000000"></path>
                    <path d="M2.95967104,13.14312 C2.98599246,13.1474863 3.01185609,13.1496694 3.03771973,13.1496694 C3.24645996,13.1496694 3.43162535,13.0071108 3.46984863,12.8042977 C3.47099303,12.7981849 3.47190855,12.7920721 3.47282408,12.7859593 C3.50830078,12.5569486 3.34236146,12.3438748 3.10203551,12.3102545 C2.86468506,12.2766342 2.64244078,12.4322917 2.6042175,12.6580277 C2.56256104,12.8855102 2.721405,13.1022954 2.95967104,13.14312 Z" id="路径" fill="#000000"></path>
                    <path d="M23.6894989,8.58430014 C23.7746429,8.70218936 23.9115143,8.76528196 24.0511322,8.76528196 C24.1369629,8.76528196 24.223938,8.74126747 24.2999268,8.69127372 C24.4997406,8.56028569 24.5503235,8.2991829 24.4129944,8.10837698 L24.0476989,8.34153566 L24.4116211,8.10641218 C24.2752075,7.91473306 24.0019226,7.86473926 23.8011932,7.99463573 C23.600235,8.1245322 23.547821,8.38519834 23.6840057,8.57687751 L23.6894989,8.58430014 Z" id="路径" fill="#000000"></path>
                    <path d="M25.9336853,12.8023328 C25.6924438,12.8280938 25.5189514,13.0357098 25.5461883,13.2658121 L25.5484772,13.2839321 C25.579834,13.492858 25.7679749,13.6437126 25.9831238,13.6437126 C26.0037231,13.6437126 26.0247803,13.6424027 26.0458374,13.6395646 C26.2841034,13.6070359 26.4502716,13.3976734 26.4193726,13.1706275 C26.3916779,12.9411802 26.1733246,12.7765719 25.9336853,12.8023328 Z" id="路径" fill="#000000"></path>
                    <path d="M25.1921081,11.619511 L25.1939392,11.6249688 C25.2502441,11.8076971 25.4253387,11.926023 25.6153107,11.926023 C25.6562805,11.926023 25.697937,11.9205651 25.7393646,11.9087762 C25.9723663,11.8435005 26.1055755,11.6105601 26.0371399,11.3883171 L26.0353089,11.3828593 C25.9668732,11.1606162 25.7226563,11.0335579 25.4896546,11.0990519 C25.2568817,11.1643276 25.1236725,11.397268 25.1921081,11.619511 L25.1921081,11.619511 Z" id="路径" fill="#000000"></path>
                    <path d="M24.5713806,10.0522393 C24.648056,10.2009107 24.8048401,10.2875811 24.967804,10.2875811 C25.0325775,10.2875811 25.0984955,10.2738273 25.1605225,10.2445734 C25.3781891,10.1424027 25.4685974,9.89265217 25.3612518,9.68481784 L24.9629974,9.86187 L25.3607941,9.68394464 C25.2577972,9.4743638 24.9961853,9.38420034 24.7764587,9.48244138 C24.5567321,9.58068237 24.4619751,9.83021457 24.564972,10.0397954 L24.5713806,10.0522393 Z" id="路径" fill="#000000"></path>
                    <path d="M22.5826263,7.27529315 C22.6686859,7.35912549 22.7824402,7.40104165 22.8964233,7.40104165 C23.007431,7.40104165 23.1184387,7.36130865 23.2040405,7.28118762 C23.3761597,7.12050898 23.3800506,6.85787798 23.2141113,6.69239647 C23.0495453,6.52320359 22.7721405,6.51294285 22.5940704,6.66969188 C22.4157715,6.82665921 22.4047852,7.09190992 22.5693512,7.26197605 L22.5826263,7.27529315 Z" id="路径" fill="#000000"></path>
                    <path d="M26.0765075,14.5525512 C25.8350372,14.5466567 25.6329346,14.7272019 25.624466,14.9575224 C25.6134796,15.1869698 25.7981872,15.3823603 26.038971,15.3952408 C26.0474396,15.3956774 26.0554505,15.3958957 26.0639191,15.3958957 C26.2953186,15.3958957 26.4891815,15.2232098 26.5022278,14.9998752 L26.5029144,14.9826285 C26.5097809,14.7514346 26.3188934,14.5593188 26.0765075,14.5525512 L26.0765075,14.5525512 Z" id="路径" fill="#000000"></path>
                    <path d="M19.7724152,5.21703467 L19.7829437,5.22249249 C19.8484039,5.25567612 19.9186706,5.27139468 19.987793,5.27139468 C20.1441193,5.27139468 20.2954102,5.19105536 20.3748322,5.05024325 C20.4892731,4.84699349 20.4087067,4.59287677 20.1963043,4.48284683 L19.9836731,4.8496133 L20.194931,4.48197352 C19.9820709,4.37063373 19.7149658,4.44507858 19.5982361,4.64811004 C19.4817352,4.85092315 19.559555,5.10591317 19.7724152,5.21703467 L19.7724152,5.21703467 Z" id="路径" fill="#000000"></path>
                    <path d="M21.2587738,6.1363523 L21.2656403,6.14137352 C21.3450622,6.19878989 21.4382171,6.2265157 21.5309143,6.2265157 C21.6636657,6.2265157 21.7948151,6.16931763 21.8813324,6.06059754 C22.0280456,5.87612275 21.9900513,5.61327345 21.796875,5.47333459 L21.7938996,5.47136979 C21.6014099,5.33033932 21.3256073,5.36483286 21.1777496,5.5484344 C21.029892,5.73203593 21.0662842,5.99532188 21.2587738,6.1363523 L21.2587738,6.1363523 Z" id="路径" fill="#000000"></path>
                    <path d="M29.728775,20.898266 L27.665863,18.9271145 C27.4903107,18.7594498 27.2570801,18.6671033 27.0087433,18.6671033 C26.7606354,18.6671033 26.5271759,18.7594498 26.3518524,18.9271145 L26.3040161,18.972742 L26.1685181,18.8435005 C26.0012054,18.6834768 25.8716583,18.4972555 25.7837677,18.2944424 C25.7759857,18.2675898 25.765686,18.2413922 25.7524109,18.2167228 C25.6851196,18.0363959 25.6501007,17.8444985 25.6501007,17.6473615 L25.6501007,17.0897892 C25.690155,17.109874 25.7338714,17.124501 25.7807923,17.132142 C25.8059692,17.1362899 25.8309173,17.1382548 25.8556366,17.1382548 C26.0641479,17.1382548 26.2486267,16.996351 26.2873078,16.7946295 C26.3342285,16.5680202 26.1801911,16.347742 25.9423828,16.3023328 C25.8377838,16.2824663 25.7343292,16.2997131 25.6473541,16.3446856 C25.6203461,15.7491267 25.3651429,15.1928643 24.921112,14.7684631 L22.9197693,12.8562562 C22.4707031,12.4272705 21.8735504,12.1910554 21.2384033,12.1910554 C20.7467651,12.1910554 20.2784729,12.3331774 19.8834229,12.596245 L19.6710205,12.3925586 L19.6710205,7.59839694 C19.6710205,7.02052149 19.4510651,6.4629491 19.0518952,6.02872382 C18.7678528,5.72002868 18.6115265,5.32357159 18.6115265,4.9122692 L18.6115265,4.56100299 L18.6417389,4.56100299 C19.1539764,4.56100299 19.5707702,4.16345436 19.5707702,3.6746507 L19.5707702,0.886352295 C19.5707702,0.397548639 19.1539764,3.1768777e-15 18.6417389,3.1768777e-15 L10.4328919,3.1768777e-15 C9.9206543,3.1768777e-15 9.50386049,0.397548639 9.50386049,0.886352295 L9.50386049,3.6746507 C9.50386049,4.16345436 9.9206543,4.56100299 10.4328919,4.56100299 L10.5006409,4.56100299 L10.5006409,4.74482288 C10.5006409,5.19673154 10.316391,5.62156939 9.98199463,5.94096181 L9.09599303,6.7875811 C8.62586977,7.23687 8.36700439,7.83395709 8.36700439,8.46924897 L8.36700439,11.1734967 C8.36700439,11.5409182 8.45947266,11.8878181 8.62220766,12.1952033 C8.03947447,12.2272954 7.49633789,12.4589259 7.08023074,12.8562562 L5.07888797,14.7684631 C4.60876465,15.217752 4.34989928,15.8150574 4.34989928,16.450131 L4.34989928,17.6473615 C4.34989928,18.0992702 4.16587828,18.524108 3.83148193,18.8435005 L3.69758607,18.9714321 C3.69689941,18.9718688 3.69644168,18.9723054 3.69598389,18.972742 L3.64837646,18.9271145 C3.47282408,18.7594498 3.23959348,18.6671033 2.9912567,18.6671033 C2.74314879,18.6671033 2.50968932,18.7594498 2.33436586,18.9271145 L0.271224961,20.898266 C-0.0904083398,21.243856 -0.0904083398,21.8062313 0.271224961,22.1518214 L0.977783203,22.826628 C1.14921568,22.9905814 1.427536,22.9907997 1.5991974,22.8272829 C1.77085875,22.6635479 1.77131654,22.3982971 1.59965514,22.2343438 L0.89332582,21.5593188 C0.873413086,21.5403256 0.873413086,21.5095434 0.89332582,21.4905502 L2.95646666,19.5193987 C2.97569273,19.5010604 3.00704953,19.5008421 3.02627566,19.5193987 L3.38493346,19.8621507 L3.38516238,19.8621507 L8.28254701,24.5414796 L8.83117676,25.0658683 C8.85108949,25.0848615 8.85108949,25.1156437 8.83117676,25.134637 L6.76826479,27.1057884 C6.74880984,27.124345 6.71745299,27.124345 6.69822691,27.1057884 L2.8438568,23.4230601 C2.67242432,23.2591068 2.394104,23.2588885 2.22244266,23.4224052 C2.05055238,23.5861402 2.05032352,23.851391 2.221756,24.0153443 L6.07635498,27.6980726 C6.25167844,27.8657373 6.48513797,27.9580838 6.73347475,27.9580838 C6.98158266,27.9580838 7.2148132,27.8657373 7.39036559,27.6980726 L9.45327762,25.7269212 C9.81491086,25.3815494 9.81491086,24.8191742 9.45327762,24.4735841 L9.43084717,24.4521894 L9.6910858,24.2035304 C9.99504088,23.9129554 10.3987884,23.7383047 10.8279419,23.7118888 C11.4319611,23.6745571 12.0002747,23.4287363 12.4280548,23.0198353 L14.3231964,21.2082709 C14.8697663,21.0713885 15.2952575,20.646769 15.4108429,20.1149576 C15.6056214,20.2033745 15.8232879,20.25315 16.0530853,20.25315 C16.8795776,20.25315 17.5520325,19.6110903 17.5520325,18.8216692 L17.5520325,17.8263785 C17.7410889,17.9086826 17.9509735,17.9549651 18.1720734,17.9549651 C18.9985657,17.9549651 19.6707916,17.3129055 19.6707916,16.5234843 L19.6707916,13.5810566 L21.0225677,14.8767465 C21.1083984,14.9590506 21.2212372,15.0000935 21.3340759,15.0000935 C21.446228,15.0000935 21.5583802,14.9594873 21.6442108,14.8780564 C21.8161011,14.714758 21.8167877,14.4495072 21.6455841,14.2853356 L20.51857,13.205121 C20.7366943,13.0905065 20.9825134,13.0293787 21.2384033,13.0293787 C21.6384888,13.0293787 22.0147705,13.1782685 22.2976685,13.4487587 L24.2990112,15.3607472 C24.6034241,15.651759 24.7711945,16.0386103 24.7711945,16.450131 L24.7711945,17.6473615 C24.7711945,18.3230414 25.0465393,18.958115 25.5464173,19.4357847 L25.6828308,19.5661178 L25.0453949,20.1752121 L21.1901092,23.8588136 L20.9751892,23.6533807 C20.9729004,23.6514159 20.9708405,23.6492328 20.9685516,23.647268 L20.9307861,23.6110279 C20.475769,23.176366 19.8712921,22.9150449 19.2290497,22.8753119 C18.8383484,22.8510791 18.4707642,22.692147 18.1926727,22.4266779 L16.7486572,21.0567615 C16.5765381,20.8934631 16.2982178,20.894118 16.1270142,21.0582897 C15.9560394,21.2224613 15.9567261,21.4879304 16.1288452,21.6510105 L17.5719452,23.0198353 C17.9997253,23.4287363 18.5680389,23.6745571 19.172287,23.7118888 C19.6012116,23.7383047 20.0049591,23.9129554 20.3089142,24.2033121 L20.3302002,24.2236153 C20.3416443,24.2360591 20.353775,24.2476297 20.3665924,24.2585454 L20.5691528,24.4519711 L20.5467224,24.4735841 C20.1850891,24.8191742 20.1850891,25.3813311 20.5467224,25.7269212 L22.6096344,27.6980726 C22.7851868,27.8657373 23.0184173,27.9580838 23.2667542,27.9580838 C23.514862,27.9580838 23.7483216,27.8657373 23.9238739,27.6980726 L29.728775,22.1516031 C30.0904083,21.806013 30.0904083,21.243856 29.728775,20.898266 L29.728775,20.898266 Z M25.9563232,16.7589169 L25.9469969,16.7565732 L25.8563232,16.7288388 L25.9563232,16.7589169 Z M11.805954,22.4275512 C11.5292358,22.692147 11.1616516,22.8510791 10.7711792,22.8753119 C10.1287079,22.9150449 9.52423096,23.176366 9.06921387,23.6110279 L8.80989076,23.8588136 L8.57643129,23.6356973 C8.57345578,23.6328593 8.57048033,23.6298029 8.56750488,23.6271831 L4.31716922,19.5661178 L4.45358273,19.4357847 C4.95346066,18.958115 5.22880553,18.3230414 5.22880553,17.6473615 L5.22880553,16.450131 C5.22880553,16.0386103 5.39634703,15.651759 5.70098877,15.3607472 L7.70233154,13.4487587 C7.98522949,13.1782685 8.36151123,13.0293787 8.76159668,13.0293787 C9.0181732,13.0293787 9.26490785,13.0909431 9.48371889,13.2064309 L8.35487367,14.2848989 C8.18344113,14.448634 8.18367006,14.7141031 8.35533141,14.8776198 C8.44116211,14.9592689 8.55354311,15.0000935 8.6659241,15.0000935 C8.77853391,15.0000935 8.89114383,14.9590506 8.97697447,14.8771831 L10.3253174,13.5886976 L10.3253174,18.8216692 C10.3253174,19.6110903 10.9977722,20.25315 11.8242645,20.25315 C12.0572663,20.25315 12.2779083,20.2020646 12.4747467,20.1112462 C12.5640106,20.5266966 12.8423309,20.8768713 13.2195282,21.0764097 L11.805954,22.4275512 Z M18.7921143,16.5237026 C18.7921143,16.850736 18.5137939,17.11686 18.1720734,17.11686 C17.8301239,17.11686 17.5520325,16.850736 17.5520325,16.5237026 L17.5520325,11.8480851 C17.5520325,11.6166729 17.355423,11.4289234 17.1125794,11.4289234 C16.8697357,11.4289234 16.6731263,11.6166729 16.6731263,11.8480851 L16.6731263,18.8218875 C16.6731263,19.1489209 16.3950348,19.4148266 16.0530853,19.4148266 C15.7461548,19.4148266 15.4914093,19.2004429 15.4421997,18.9199102 L15.4421997,11.8432822 C15.4421997,11.6116517 15.2455902,11.4241205 15.0027466,11.4241205 C14.9246979,11.4241205 14.8512268,11.4437687 14.7875977,11.4778256 C14.6486664,11.5483408 14.5541382,11.6876248 14.5541382,11.8480851 L14.5541382,18.8216692 C14.5541382,18.8749376 14.5573425,18.9271145 14.5632935,18.9788548 L14.5632935,19.8235092 C14.5632935,20.1505427 14.285202,20.4166667 13.9432526,20.4166667 C13.601532,20.4166667 13.3234406,20.1505427 13.3234406,19.8235092 L13.3234406,11.838261 C13.3234406,11.6068488 13.1266022,11.4190993 12.8839874,11.4190993 C12.6411438,11.4190993 12.4443054,11.6068488 12.4443054,11.838261 L12.4443054,18.8216692 C12.4443054,19.1487026 12.166214,19.4148266 11.8244934,19.4148266 C11.4825439,19.4148266 11.2044525,19.1487026 11.2044525,18.8216692 L11.2044525,11.024607 C11.2044525,10.7929766 11.0076141,10.605227 10.7649994,10.605227 C10.5221558,10.605227 10.3255463,10.7929766 10.3255463,11.024607 L10.3255463,12.4667852 C10.2886963,12.4781375 10.2529907,12.4940744 10.2198029,12.5150325 C9.65148926,12.311346 9.24591064,11.7869573 9.24591064,11.1734967 L9.24591064,8.46924897 C9.24591064,8.05772828 9.41368102,7.67087698 9.71809389,7.37986527 L10.6040954,6.53324604 C11.1042023,6.05557632 11.3795471,5.42050273 11.3795471,4.74482288 L11.3795471,4.56100299 L12.263031,4.56100299 C12.5058746,4.56100299 12.7024841,4.37325349 12.7024841,4.14184132 C12.7024841,3.91021084 12.5058746,3.72267964 12.263031,3.72267964 L10.4328919,3.72267964 C10.4051971,3.72267964 10.3827667,3.7010666 10.3827667,3.6746507 L10.3827667,0.886352295 C10.3827667,0.859936391 10.4051971,0.838323353 10.4328919,0.838323353 L18.64151,0.838323353 C18.6694336,0.838323353 18.691864,0.859936391 18.691864,0.886352295 L18.691864,3.6746507 C18.691864,3.7012849 18.6694336,3.72267964 18.64151,3.72267964 L14.3261719,3.72267964 C14.0835571,3.72267964 13.8867188,3.91021084 13.8867188,4.14184132 C13.8867188,4.37325349 14.0835571,4.56100299 14.3261719,4.56100299 L17.7326203,4.56100299 L17.7326203,4.9122692 C17.7326203,5.52703966 17.9663086,6.11976048 18.3908844,6.58171158 C18.6495209,6.8628992 18.7921143,7.22398949 18.7921143,7.59839694 L18.7921143,16.5237026 Z M29.1066742,21.5593188 L23.3017731,27.1057884 C23.29216,27.1151759 23.280487,27.1197605 23.2667542,27.1197605 C23.2532501,27.1197605 23.2415771,27.1151759 23.2317352,27.1057884 L21.1688232,25.134637 C21.1489105,25.1156437 21.1489105,25.0848615 21.1688232,25.0658683 L21.5009308,24.7484406 C21.5009308,24.7484406 21.5011597,24.7482223 21.5011597,24.7482223 L24.870987,21.5285367 L26.9737243,19.5193987 C26.9929505,19.5008421 27.0243073,19.5008421 27.0435333,19.5193987 L29.1066742,21.4905502 C29.1265869,21.5095434 29.1265869,21.5403256 29.1066742,21.5593188 L29.1066742,21.5593188 Z" id="形状" fill="#000000"></path>
                    <path d="M11.8242645,1.83339574 C11.5663147,1.83339574 11.35643,2.03402568 11.35643,2.28050152 C11.35643,2.52719561 11.5663147,2.72760731 11.8242645,2.72760731 C12.0824432,2.72760731 12.2923279,2.52719561 12.2923279,2.28050152 C12.2923279,2.03402568 12.0824432,1.83339574 11.8242645,1.83339574 Z" id="路径" fill="#000000"></path>
                    <path d="M27.1524811,20.9406188 C26.8943024,20.9406188 26.6844177,21.1412488 26.6844177,21.3877246 C26.6844177,21.6342003 26.8943024,21.8348303 27.1524811,21.8348303 C27.4104309,21.8348303 27.6203156,21.6342003 27.6203156,21.3877246 C27.6203156,21.1412488 27.4104309,20.9406188 27.1524811,20.9406188 Z" id="路径" fill="#000000"></path>
                    <path d="M7.32330322,25.2169411 C7.32330322,24.9704653 7.11341859,24.7698353 6.85546875,24.7698353 C6.59729004,24.7698353 6.38740541,24.9704653 6.38740541,25.2169411 C6.38740541,25.4634169 6.59729004,25.6640469 6.85546875,25.6640469 C7.11341859,25.6640469 7.32330322,25.4634169 7.32330322,25.2169411 Z" id="路径" fill="#000000"></path>
                </g>
            </g>
        </g>
    </g>
</svg>