<?xml version="1.0" standalone="no"?><!DOCTYPE svg PUBLIC "-//W3C//DTD SVG 1.1//EN" "http://www.w3.org/Graphics/SVG/1.1/DTD/svg11.dtd"><svg t="1619593585013" class="icon" viewBox="0 0 1024 1024" version="1.1" xmlns="http://www.w3.org/2000/svg" p-id="2336" xmlns:xlink="http://www.w3.org/1999/xlink" width="200" height="200"><defs><style type="text/css"></style></defs><path d="M784 976H240a96 96 0 0 1-96-96V144a96 96 0 0 1 96-96h448l192 192v640a96 96 0 0 1-96 96z" fill="#CFD2FC" p-id="2337"></path><path d="M144 720h736v160a96 96 0 0 1-96 96H240a96 96 0 0 1-96-96v-160z" fill="#5153FF" p-id="2338"></path><path d="M880 240h-96a96 96 0 0 1-96-96V48zM752 352H400a16 16 0 0 1 0-32h352a16 16 0 0 1 0 32zM560 416H272a16 16 0 0 1 0-32h288a16 16 0 0 1 0 32zM752 480H496a16 16 0 0 1 0-32h256a16 16 0 0 1 0 32zM640 544H272a16 16 0 0 1 0-32h368a16 16 0 0 1 0 32zM336 352h-64a16 16 0 0 1 0-32h64a16 16 0 0 1 0 32zM752 416h-128a16 16 0 0 1 0-32h128a16 16 0 0 1 0 32zM432 480h-160a16 16 0 0 1 0-32h160a16 16 0 0 1 0 32zM752 544h-48a16 16 0 0 1 0-32h48a16 16 0 0 1 0 32zM368 608h-96a16 16 0 0 1 0-32h96a16 16 0 0 1 0 32zM432 288h-160a16 16 0 0 1 0-32h160a16 16 0 0 1 0 32zM592 608h-160a16 16 0 0 1 0-32h160a16 16 0 0 1 0 32zM752 608h-96a16 16 0 0 1 0-32h96a16 16 0 0 1 0 32z" fill="#8690FA" p-id="2339"></path><path d="M336 768a16 16 0 0 0-16 16v128a16 16 0 0 0 16 16 80 80 0 0 0 0-160z m16 125.258v-90.516a48 48 0 0 1 0 90.516zM512 768c-35.29 0-64 35.888-64 80s28.71 80 64 80 64-35.888 64-80-28.71-80-64-80z m0 128c-17.346 0-32-21.982-32-48s14.654-48 32-48 32 21.982 32 48-14.654 48-32 48zM672 800a21.416 21.416 0 0 1 9.18 2.116 16 16 0 1 0 13.64-28.948A53.162 53.162 0 0 0 672 768c-35.29 0-64 35.888-64 80s28.71 80 64 80a53.2 53.2 0 0 0 22.822-5.168 16 16 0 0 0-13.644-28.946A21.42 21.42 0 0 1 672 896c-17.346 0-32-21.982-32-48s14.654-48 32-48z" fill="#FFFFFF" p-id="2340"></path></svg>