<?xml version="1.0" standalone="no"?><!DOCTYPE svg PUBLIC "-//W3C//DTD SVG 1.1//EN" "http://www.w3.org/Graphics/SVG/1.1/DTD/svg11.dtd"><svg t="1619593549355" class="icon" viewBox="0 0 1024 1024" version="1.1" xmlns="http://www.w3.org/2000/svg" p-id="1545" xmlns:xlink="http://www.w3.org/1999/xlink" width="200" height="200"><defs><style type="text/css"></style></defs><path d="M784 976H240a96 96 0 0 1-96-96V144a96 96 0 0 1 96-96h448l192 192v640a96 96 0 0 1-96 96z" fill="#CFD2FC" p-id="1546"></path><path d="M144 720h736v160a96 96 0 0 1-96 96H240a96 96 0 0 1-96-96v-160z" fill="#5153FF" p-id="1547"></path><path d="M880 240h-96a96 96 0 0 1-96-96V48zM400 528a15.952 15.952 0 0 1-11.314-4.686l-96-96a16 16 0 0 1 0-22.628l96-96a16 16 0 0 1 22.628 22.628L326.626 416l84.688 84.686A16 16 0 0 1 400 528zM624 528a16 16 0 0 1-11.314-27.314L697.374 416l-84.688-84.686a16 16 0 0 1 22.628-22.628l96 96a16 16 0 0 1 0 22.628l-96 96A15.952 15.952 0 0 1 624 528zM464 576a16.012 16.012 0 0 1-15.18-21.064l96-288a16 16 0 1 1 30.356 10.12l-96 288A16 16 0 0 1 464 576z" fill="#8690FA" p-id="1548"></path><path d="M336 768a16 16 0 0 0-16 16v48h-32v-48a16 16 0 0 0-32 0v128a16 16 0 0 0 32 0v-48h32v48a16 16 0 0 0 32 0v-128a16 16 0 0 0-16-16zM464 768h-64a16 16 0 0 0 0 32h16v112a16 16 0 0 0 32 0v-112h16a16 16 0 0 0 0-32zM627.676 768.428a16 16 0 0 0-17.986 8.416L576 844.222l-33.69-67.378A16 16 0 0 0 512 784v128a16 16 0 0 0 32 0v-60.222l17.69 35.378a16 16 0 0 0 28.62 0L608 851.778V912a16 16 0 0 0 32 0v-128a16 16 0 0 0-12.324-15.572zM752 896h-48v-112a16 16 0 0 0-32 0v128a16 16 0 0 0 16 16h64a16 16 0 0 0 0-32z" fill="#FFFFFF" p-id="1549"></path></svg>