<?xml version="1.0" standalone="no"?><!DOCTYPE svg PUBLIC "-//W3C//DTD SVG 1.1//EN" "http://www.w3.org/Graphics/SVG/1.1/DTD/svg11.dtd"><svg t="1619593542588" class="icon" viewBox="0 0 1024 1024" version="1.1" xmlns="http://www.w3.org/2000/svg" p-id="1412" xmlns:xlink="http://www.w3.org/1999/xlink" width="200" height="200"><defs><style type="text/css"></style></defs><path d="M784 976H240a96 96 0 0 1-96-96V144a96 96 0 0 1 96-96h448l192 192v640a96 96 0 0 1-96 96z" fill="#CFD2FC" p-id="1413"></path><path d="M144 720h736v160a96 96 0 0 1-96 96H240a96 96 0 0 1-96-96v-160z" fill="#5153FF" p-id="1414"></path><path d="M880 240h-96a96 96 0 0 1-96-96V48z" fill="#8690FA" p-id="1415"></path><path d="M304 272h416v320H304z" fill="#FFFFFF" p-id="1416"></path><path d="M432 432l80 96 96-32 112 96H304z" fill="#8690FA" p-id="1417"></path><path d="M576 400m-32 0a32 32 0 1 0 64 0 32 32 0 1 0-64 0Z" fill="#5153FF" p-id="1418"></path><path d="M496 768h-32a16 16 0 0 0-16 16v128a16 16 0 0 0 32 0v-48h16a48 48 0 0 0 0-96z m0 64h-16v-32h16a16 16 0 0 1 0 32zM400 768a16 16 0 0 0-16 16v96a16 16 0 0 1-32 0 16 16 0 0 0-32 0 48 48 0 0 0 96 0v-96a16 16 0 0 0-16-16zM688 832h-32a16 16 0 0 0 0 32h14.098c-4.504 18.434-16.472 32-30.098 32-17.346 0-32-21.982-32-48s14.654-48 32-48a21.42 21.42 0 0 1 9.178 2.114 16 16 0 0 0 13.644-28.946A53.2 53.2 0 0 0 640 768c-35.29 0-64 35.888-64 80s28.71 80 64 80 64-35.888 64-80a16 16 0 0 0-16-16z" fill="#FFFFFF" p-id="1419"></path></svg>