<?xml version="1.0" standalone="no"?><!DOCTYPE svg PUBLIC "-//W3C//DTD SVG 1.1//EN" "http://www.w3.org/Graphics/SVG/1.1/DTD/svg11.dtd"><svg t="1619593554178" class="icon" viewBox="0 0 1024 1024" version="1.1" xmlns="http://www.w3.org/2000/svg" p-id="1675" xmlns:xlink="http://www.w3.org/1999/xlink" width="200" height="200"><defs><style type="text/css"></style></defs><path d="M784 976H240a96 96 0 0 1-96-96V144a96 96 0 0 1 96-96h448l192 192v640a96 96 0 0 1-96 96z" fill="#CFD2FC" p-id="1676"></path><path d="M144 720h736v160a96 96 0 0 1-96 96H240a96 96 0 0 1-96-96v-160z" fill="#5153FF" p-id="1677"></path><path d="M880 240h-96a96 96 0 0 1-96-96V48z" fill="#8690FA" p-id="1678"></path><path d="M400 368m-96 0a96 96 0 1 0 192 0 96 96 0 1 0-192 0Z" fill="#8690FA" p-id="1679"></path><path d="M416 400h192v192h-192z" fill="#FFFFFF" p-id="1680"></path><path d="M624 272l96 192h-192z" fill="#5153FF" p-id="1681"></path><path d="M688 768a16 16 0 0 0-16 16v96a16 16 0 0 1-32 0 16 16 0 0 0-32 0 48 48 0 0 0 96 0v-96a16 16 0 0 0-16-16zM528 768h-32a16 16 0 0 0-16 16v128a16 16 0 0 0 16 16h32a47.968 47.968 0 0 0 35.738-80A47.968 47.968 0 0 0 528 768z m-16 32h16a16 16 0 0 1 0 32h-16z m16 96h-16v-32h16a16 16 0 0 1 0 32zM384 768c-35.29 0-64 35.888-64 80s28.71 80 64 80 64-35.888 64-80-28.71-80-64-80z m0 128c-17.346 0-32-21.98-32-48s14.654-48 32-48 32 21.98 32 48-14.654 48-32 48z" fill="#FFFFFF" p-id="1682"></path></svg>