<?xml version="1.0" standalone="no"?><!DOCTYPE svg PUBLIC "-//W3C//DTD SVG 1.1//EN" "http://www.w3.org/Graphics/SVG/1.1/DTD/svg11.dtd"><svg t="1619593589802" class="icon" viewBox="0 0 1024 1024" version="1.1" xmlns="http://www.w3.org/2000/svg" p-id="2466" xmlns:xlink="http://www.w3.org/1999/xlink" width="200" height="200"><defs><style type="text/css"></style></defs><path d="M784 976H240a96 96 0 0 1-96-96V144a96 96 0 0 1 96-96h448l192 192v640a96 96 0 0 1-96 96z" fill="#CFD2FC" p-id="2467"></path><path d="M272 272h160v192h-160zM144 720h736v160a96 96 0 0 1-96 96H240a96 96 0 0 1-96-96v-160z" fill="#5153FF" p-id="2468"></path><path d="M880 240h-96a96 96 0 0 1-96-96V48zM752 352H496a16 16 0 0 1 0-32h256a16 16 0 0 1 0 32zM560 416h-64a16 16 0 0 1 0-32h64a16 16 0 0 1 0 32zM752 480H496a16 16 0 0 1 0-32h256a16 16 0 0 1 0 32zM640 544H272a16 16 0 0 1 0-32h368a16 16 0 0 1 0 32zM752 416h-128a16 16 0 0 1 0-32h128a16 16 0 0 1 0 32zM752 544h-48a16 16 0 0 1 0-32h48a16 16 0 0 1 0 32zM368 608h-96a16 16 0 0 1 0-32h96a16 16 0 0 1 0 32zM592 608h-160a16 16 0 0 1 0-32h160a16 16 0 0 1 0 32zM752 608h-96a16 16 0 0 1 0-32h96a16 16 0 0 1 0 32zM624 288h-128a16 16 0 0 1 0-32h128a16 16 0 0 1 0 32z" fill="#8690FA" p-id="2469"></path><path d="M672 768h-64a16 16 0 0 0-16 16v128a16 16 0 0 0 32 0v-48h16a16 16 0 0 0 0-32h-16v-32h48a16 16 0 0 0 0-32zM384 768h-32a16 16 0 0 0-16 16v128a16 16 0 0 0 32 0v-48h16a48 48 0 0 0 0-96z m0 64h-16v-32h16a16 16 0 0 1 0 32zM480 768a16 16 0 0 0-16 16v128a16 16 0 0 0 16 16 80 80 0 0 0 0-160z m16 125.258v-90.516a48 48 0 0 1 0 90.516z" fill="#FFFFFF" p-id="2470"></path></svg>