<?xml version="1.0" standalone="no"?><!DOCTYPE svg PUBLIC "-//W3C//DTD SVG 1.1//EN" "http://www.w3.org/Graphics/SVG/1.1/DTD/svg11.dtd"><svg t="1619593569509" class="icon" viewBox="0 0 1024 1024" version="1.1" xmlns="http://www.w3.org/2000/svg" p-id="2072" xmlns:xlink="http://www.w3.org/1999/xlink" width="200" height="200"><defs><style type="text/css"></style></defs><path d="M784 976H240a96 96 0 0 1-96-96V144a96 96 0 0 1 96-96h448l192 192v640a96 96 0 0 1-96 96z" fill="#CFD2FC" p-id="2073"></path><path d="M352 272h320v320H352z" fill="#8690FA" p-id="2074"></path><path d="M144 720h736v160a96 96 0 0 1-96 96H240a96 96 0 0 1-96-96v-160z" fill="#5153FF" p-id="2075"></path><path d="M880 240h-96a96 96 0 0 1-96-96V48z" fill="#8690FA" p-id="2076"></path><path d="M352 272h64v64h-64zM480 272h64v64h-64zM608 272h64v64h-64zM352 400h64v64h-64zM480 400h64v64h-64zM608 400h64v64h-64zM352 528h64v64h-64zM480 528h64v64h-64zM608 528h64v64h-64zM416 464h64v64h-64zM544 464h64v64h-64zM416 336h64v64h-64zM544 336h64v64h-64zM368 768h-32a16 16 0 0 0-16 16v128a16 16 0 0 0 32 0v-48h16a48 48 0 0 0 0-96z m0 64h-16v-32h16a16 16 0 0 1 0 32zM688 832h-32a16 16 0 0 0 0 32h14.098c-4.504 18.434-16.472 32-30.098 32-17.346 0-32-21.982-32-48s14.654-48 32-48a21.42 21.42 0 0 1 9.178 2.114 16 16 0 0 0 13.644-28.946A53.2 53.2 0 0 0 640 768c-35.29 0-64 35.888-64 80s28.71 80 64 80 64-35.888 64-80a16 16 0 0 0-16-16zM528 768a16 16 0 0 0-16 16v60.222l-33.69-67.378A16 16 0 0 0 448 784v128a16 16 0 0 0 32 0v-60.222l33.69 67.378A16 16 0 0 0 544 912v-128a16 16 0 0 0-16-16z" fill="#FFFFFF" p-id="2077"></path></svg>