<?xml version="1.0" standalone="no"?><!DOCTYPE svg PUBLIC "-//W3C//DTD SVG 1.1//EN" "http://www.w3.org/Graphics/SVG/1.1/DTD/svg11.dtd"><svg t="1619593560126" class="icon" viewBox="0 0 1024 1024" version="1.1" xmlns="http://www.w3.org/2000/svg" p-id="1808" xmlns:xlink="http://www.w3.org/1999/xlink" width="200" height="200"><defs><style type="text/css"></style></defs><path d="M784 976H240a96 96 0 0 1-96-96V144a96 96 0 0 1 96-96h448l192 192v640a96 96 0 0 1-96 96z" fill="#CFD2FC" p-id="1809"></path><path d="M144 720h736v160a96 96 0 0 1-96 96H240a96 96 0 0 1-96-96v-160z" fill="#5153FF" p-id="1810"></path><path d="M880 240h-96a96 96 0 0 1-96-96V48z" fill="#8690FA" p-id="1811"></path><path d="M526.98 778.382a16 16 0 0 0-29.96 0l-48 128a16 16 0 1 0 29.96 11.236L487.088 896h49.824l8.108 21.618a16 16 0 1 0 29.96-11.236zM499.088 864L512 829.568 524.912 864zM374.212 863.584A48 48 0 0 0 368 768h-32a16 16 0 0 0-16 16v128a16 16 0 0 0 32 0v-25.372l36.686 36.686a16 16 0 1 0 22.628-22.628zM352 800h16a16 16 0 0 1 0 32h-16zM662.212 863.584A48 48 0 0 0 656 768h-32a16 16 0 0 0-16 16v128a16 16 0 0 0 32 0v-25.372l36.686 36.686a16 16 0 0 0 22.628-22.628zM640 800h16a16 16 0 0 1 0 32h-16z" fill="#FFFFFF" p-id="1812"></path><path d="M240 416h-32a16 16 0 0 1 0-32h32a16 16 0 0 1 0 32zM368 416h-32a16 16 0 0 1 0-32h32a16 16 0 0 1 0 32zM496 416h-32a16 16 0 0 1 0-32h32a16 16 0 0 1 0 32zM624 416h-32a16 16 0 0 1 0-32h32a16 16 0 0 1 0 32zM752 416h-32a16 16 0 0 1 0-32h32a16 16 0 0 1 0 32zM240 480h-32a16 16 0 0 1 0-32h32a16 16 0 0 1 0 32zM368 480h-32a16 16 0 0 1 0-32h32a16 16 0 0 1 0 32zM496 480h-32a16 16 0 0 1 0-32h32a16 16 0 0 1 0 32zM624 480h-32a16 16 0 0 1 0-32h32a16 16 0 0 1 0 32zM752 480h-32a16 16 0 0 1 0-32h32a16 16 0 0 1 0 32zM880 480h-32a16 16 0 0 1 0-32h32z" fill="#8690FA" p-id="1813"></path><path d="M144 416h32a16 16 0 0 1 0 32H144zM304 448h-32a16 16 0 0 1 0-32h32a16 16 0 0 1 0 32zM432 448h-32a16 16 0 0 1 0-32h32a16 16 0 0 1 0 32zM560 448h-32a16 16 0 0 1 0-32h32a16 16 0 0 1 0 32zM688 448h-32a16 16 0 0 1 0-32h32a16 16 0 0 1 0 32zM816 448h-32a16 16 0 0 1 0-32h32a16 16 0 0 1 0 32z" fill="#5153FF" p-id="1814"></path><path d="M880 416h-32a16 16 0 0 1 0-32h32z" fill="#8690FA" p-id="1815"></path></svg>