<?xml version="1.0" standalone="no"?><!DOCTYPE svg PUBLIC "-//W3C//DTD SVG 1.1//EN" "http://www.w3.org/Graphics/SVG/1.1/DTD/svg11.dtd"><svg t="1619593516078" class="icon" viewBox="0 0 1024 1024" version="1.1" xmlns="http://www.w3.org/2000/svg" p-id="1282" xmlns:xlink="http://www.w3.org/1999/xlink" width="200" height="200"><defs><style type="text/css"></style></defs><path d="M784 976H240a96 96 0 0 1-96-96V144a96 96 0 0 1 96-96h448l192 192v640a96 96 0 0 1-96 96z" fill="#CFD2FC" p-id="1283"></path><path d="M144 720h736v160a96 96 0 0 1-96 96H240a96 96 0 0 1-96-96v-160z" fill="#5153FF" p-id="1284"></path><path d="M880 240h-96a96 96 0 0 1-96-96V48zM752 416H272a16 16 0 0 1 0-32h480a16 16 0 0 1 0 32zM752 480H272a16 16 0 0 1 0-32h480a16 16 0 0 1 0 32zM752 544H272a16 16 0 0 1 0-32h480a16 16 0 0 1 0 32zM752 352H272a16 16 0 0 1 0-32h480a16 16 0 0 1 0 32zM656 608H272a16 16 0 0 1 0-32h384a16 16 0 0 1 0 32zM416 288h-144a16 16 0 0 1 0-32h144a16 16 0 0 1 0 32z" fill="#8690FA" p-id="1285"></path><path d="M416 768h-64a16 16 0 0 0 0 32h16v112a16 16 0 0 0 32 0v-112h16a16 16 0 0 0 0-32zM672 768h-64a16 16 0 0 0 0 32h16v112a16 16 0 0 0 32 0v-112h16a16 16 0 0 0 0-32zM551.156 769.69a16 16 0 0 0-21.466 7.154L512 812.224l-17.69-35.38a16 16 0 0 0-28.62 14.312L494.112 848l-28.422 56.844a16 16 0 1 0 28.62 14.312l17.69-35.38 17.69 35.38a16 16 0 1 0 28.62-14.312L529.888 848l28.422-56.844a16 16 0 0 0-7.154-21.466z" fill="#FFFFFF" p-id="1286"></path></svg>