<?xml version="1.0" standalone="no"?><!DOCTYPE svg PUBLIC "-//W3C//DTD SVG 1.1//EN" "http://www.w3.org/Graphics/SVG/1.1/DTD/svg11.dtd"><svg t="1619593574686" class="icon" viewBox="0 0 1024 1024" version="1.1" xmlns="http://www.w3.org/2000/svg" p-id="2203" xmlns:xlink="http://www.w3.org/1999/xlink" width="200" height="200"><defs><style type="text/css"></style></defs><path d="M784 976H240a96 96 0 0 1-96-96V144a96 96 0 0 1 96-96h448l192 192v640a96 96 0 0 1-96 96z" fill="#CFD2FC" p-id="2204"></path><path d="M288 320h448v256H288z" fill="#5153FF" p-id="2205"></path><path d="M432 400h304v176H432z" fill="#8690FA" p-id="2206"></path><path d="M144 720h736v160a96 96 0 0 1-96 96H240a96 96 0 0 1-96-96v-160z" fill="#5153FF" p-id="2207"></path><path d="M880 240h-96a96 96 0 0 1-96-96V48z" fill="#8690FA" p-id="2208"></path><path d="M544 896h-48v-112a16 16 0 0 0-32 0v128a16 16 0 0 0 16 16h64a16 16 0 0 0 0-32zM423.156 769.69a16 16 0 0 0-21.466 7.154L384 812.224l-17.69-35.38a16 16 0 0 0-28.62 14.312L366.112 848l-28.422 56.844a16 16 0 1 0 28.62 14.312l17.69-35.38 17.69 35.38a16 16 0 1 0 28.62-14.312L401.888 848l28.422-56.844a16 16 0 0 0-7.154-21.466zM640 800h32a16 16 0 0 0 0-32h-32a48 48 0 0 0 0 96 16 16 0 0 1 0 32h-32a16 16 0 0 0 0 32h32a48 48 0 0 0 0-96 16 16 0 0 1 0-32zM288 384h448v32H288zM288 480h448v32H288z" fill="#FFFFFF" p-id="2209"></path><path d="M416 320h32v256h-32zM576 320h32v256h-32z" fill="#FFFFFF" p-id="2210"></path></svg>