<?xml version="1.0" standalone="no"?><!DOCTYPE svg PUBLIC "-//W3C//DTD SVG 1.1//EN" "http://www.w3.org/Graphics/SVG/1.1/DTD/svg11.dtd"><svg t="1619593564771" class="icon" viewBox="0 0 1024 1024" version="1.1" xmlns="http://www.w3.org/2000/svg" p-id="1941" xmlns:xlink="http://www.w3.org/1999/xlink" width="200" height="200"><defs><style type="text/css"></style></defs><path d="M784 976H240a96 96 0 0 1-96-96V144a96 96 0 0 1 96-96h448l192 192v640a96 96 0 0 1-96 96z" fill="#CFD2FC" p-id="1942"></path><path d="M320 48h96v448h-96z" fill="#FFFFFF" p-id="1943"></path><path d="M352 48h32v480h-32zM144 720h736v160a96 96 0 0 1-96 96H240a96 96 0 0 1-96-96v-160z" fill="#5153FF" p-id="1944"></path><path d="M880 240h-96a96 96 0 0 1-96-96V48zM416 128h-96a16 16 0 0 1 0-32h96a16 16 0 0 1 0 32zM416 192h-96a16 16 0 0 1 0-32h96a16 16 0 0 1 0 32zM416 256h-96a16 16 0 0 1 0-32h96a16 16 0 0 1 0 32zM416 320h-96a16 16 0 0 1 0-32h96a16 16 0 0 1 0 32zM416 384h-96a16 16 0 0 1 0-32h96a16 16 0 0 1 0 32zM416 448h-96a16 16 0 0 1 0-32h96a16 16 0 0 1 0 32zM396.24 544.958L384 496h-32l-12.24 48.958a32 32 0 1 0 56.48 0z" fill="#8690FA" p-id="1945"></path><path d="M544 800a16 16 0 0 0 0-32h-64a16 16 0 0 0 0 32h16v96h-16a16 16 0 0 0 0 32h64a16 16 0 0 0 0-32h-16v-96zM640 768h-32a16 16 0 0 0-16 16v128a16 16 0 0 0 32 0v-48h16a48 48 0 0 0 0-96z m0 64h-16v-32h16a16 16 0 0 1 0 32zM416 896h-38.112l52.422-104.844A16 16 0 0 0 416 768h-64a16 16 0 0 0 0 32h38.112l-52.422 104.844A16 16 0 0 0 352 928h64a16 16 0 0 0 0-32z" fill="#FFFFFF" p-id="1946"></path></svg>