<?xml version="1.0" encoding="UTF-8"?>
<svg width="339px" height="206px" viewBox="0 0 339 206" version="1.1" xmlns="http://www.w3.org/2000/svg" xmlns:xlink="http://www.w3.org/1999/xlink">
    <title>工作列表</title>
    <g id="页面-1" stroke="none" stroke-width="1" fill="none" fill-rule="evenodd">
        <g id="新主题缺省图" transform="translate(-86.000000, -87.000000)">
            <g id="工作列表" transform="translate(87.000000, 88.000000)">
                <path d="M212.5,41 L254,41 C259.522847,41 264,45.4771525 264,51 L264,76.46 L264,76.46 L212.5,76.46 L212.5,41 Z" id="矩形" stroke="#5365EA" stroke-width="1.5" stroke-dasharray="2,3"></path>
                <path d="M54.0836684,166.049571 L54.0836684,144.049571 L95.5836684,144.049571 C101.106516,144.049571 105.583668,148.526724 105.583668,154.049571 L105.583668,166.049571 L105.583668,166.049571 L88.3387769,166.049571" id="路径" stroke="#5365EA" stroke-width="1.5" stroke-dasharray="2,3" transform="translate(79.833668, 155.049571) scale(-1, -1) translate(-79.833668, -155.049571) "></path>
                <g id="编组-22" transform="translate(234.836350, 99.289506) rotate(22.000000) translate(-234.836350, -99.289506) translate(200.836350, 56.289506)">
                    <rect id="矩形" stroke="#323288" stroke-width="1.5" fill="#FFFFFF" x="4.54747351e-13" y="4" width="67.5" height="80.5" rx="6"></rect>
                    <rect id="矩形" fill="#D9E6F2" x="6.25" y="11.25" width="54.5" height="3" rx="1.5"></rect>
                    <rect id="矩形" fill="#D9E6F2" x="6.25" y="47.25" width="54.5" height="3" rx="1.5"></rect>
                    <rect id="矩形" fill="#D9E6F2" x="6.25" y="20.25" width="54.5" height="3" rx="1.5"></rect>
                    <rect id="矩形" fill="#D9E6F2" x="6.25" y="56.25" width="54.5" height="3" rx="1.5"></rect>
                    <rect id="矩形" fill="#D9E6F2" x="6.25" y="29.25" width="54.5" height="3" rx="1.5"></rect>
                    <rect id="矩形" fill="#D9E6F2" x="6.25" y="65.25" width="54.5" height="3" rx="1.5"></rect>
                    <rect id="矩形" fill="#D9E6F2" x="6.25" y="38.25" width="54.5" height="3" rx="1.5"></rect>
                    <rect id="矩形" fill="#D9E6F2" x="6.25" y="74.25" width="40" height="3" rx="1.5"></rect>
                    <path d="M23.6246066,-1.14605766 C23.9152645,-1.07686932 24.204407,-0.985061375 24.4898839,-0.869721194 L29.6246066,1.20494234 L29.6246066,88.0259423 L23.6246066,85.6019423 L23.6246066,-1.14605766 Z" id="路径" fill-opacity="0.08" fill="#5365EA" transform="translate(26.624607, 43.439942) rotate(-22.000000) translate(-26.624607, -43.439942) "></path>
                </g>
                <g id="编组-13" transform="translate(86.000000, 4.319571)">
                    <rect id="矩形" stroke="#0F1358" stroke-width="1.5" fill="#E7EFFF" x="0" y="16.6804286" width="138" height="183" rx="10"></rect>
                    <rect id="矩形" stroke="#0F1358" stroke-width="1.5" fill="#FFFFFF" x="11.5" y="27.6804286" width="115" height="157" rx="2"></rect>
                    <path d="M83.5,11.6804286 L90,11.6804286 C95.5228475,11.6804286 100,16.1575811 100,21.6804286 L100,32.6804286 L37.5,32.6804286 L37.5,21.6804286 C37.5,16.1575811 41.9771525,11.6804286 47.5,11.6804286 L53.5,11.6804286 C56.1666667,10.8099863 57.5,10.1965815 57.5,9.84021432 C57.5,4.40561401 62.5367966,2.27373675e-13 68.75,2.27373675e-13 C74.9632034,2.27373675e-13 80,4.40561401 80,9.84021432 C80,10.1965815 81.1666667,10.8099863 83.5,11.6804286 Z" id="路径" stroke="#323288" stroke-width="1.5" fill="#FFFFFF"></path>
                    <path d="M89.7732055,12.236276 C94.9829152,12.236276 99.2062193,16.4595802 99.2062193,21.6692898 L99.2062193,32.045605 L94.4330138,32.045605 L94.4330138,21.6692898 C94.4330138,16.5478803 91.3516593,12.3797222 86.2640346,12.2399 L89.7732055,12.236276 Z" id="路径" fill="#E7EFFF"></path>
                    <circle id="椭圆形" fill="#323288" cx="68.75" cy="9.84021432" r="4"></circle>
                    <g id="编组-25" transform="translate(24.500000, 47.180429)">
                        <g id="编组-19">
                            <circle id="椭圆形" fill="#5365EA" cx="9" cy="9" r="9"></circle>
                            <path d="M11.4551487,6.48460011 C11.7397962,6.18368704 12.2144868,6.17050119 12.5153999,6.45514869 C12.7889572,6.71391914 12.8247235,7.12975004 12.6151057,7.4292975 L12.5448513,7.51539989 L7.81493595,12.5155961 L5.46966991,10.1703301 C5.1767767,9.87743687 5.1767767,9.40256313 5.46966991,9.10966991 C5.73593648,8.84340335 6.15260016,8.8191973 6.44621165,9.03705176 L6.53033009,9.10966991 L7.785,10.364 L11.4551487,6.48460011 Z" id="直线-6" fill="#FFFFFF" fill-rule="nonzero"></path>
                            <path d="M88.0454545,0 C88.5726354,0 89,0.44771525 89,1 C89,1.51283584 88.6315071,1.93550716 88.1567747,1.99327227 L88.0454545,2 L26.9545455,2 C26.4273646,2 26,1.55228475 26,1 C26,0.487164161 26.3684929,0.0644928393 26.8432253,0.00672773133 L26.9545455,0 L88.0454545,0 Z" id="路径" fill="#D9E6F2" fill-rule="nonzero"></path>
                            <path d="M88.0454545,8 C88.5726354,8 89,8.44771525 89,9 C89,9.51283584 88.6315071,9.93550716 88.1567747,9.99327227 L88.0454545,10 L26.9545455,10 C26.4273646,10 26,9.55228475 26,9 C26,8.48716416 26.3684929,8.06449284 26.8432253,8.00672773 L26.9545455,8 L88.0454545,8 Z" id="路径" fill="#D9E6F2" fill-rule="nonzero"></path>
                            <path d="M73.5619492,16 C74.0820644,16 74.503701,16.4477153 74.503701,17 C74.503701,17.5128358 74.140147,17.9355072 73.6717774,17.9932723 L73.5619492,18 L26.9417518,18 C26.4216366,18 26,17.5522847 26,17 C26,16.4871642 26.363554,16.0644928 26.8319236,16.0067277 L26.9417518,16 L73.5619492,16 Z" id="路径" fill="#D9E6F2" fill-rule="nonzero"></path>
                        </g>
                        <g id="编组-19" transform="translate(0.000000, 31.000000)">
                            <circle id="椭圆形" fill="#5365EA" cx="9" cy="10" r="9"></circle>
                            <path d="M11.2051487,7.23460192 C11.4897962,6.93368885 11.9644868,6.920503 12.2653999,7.2051505 C12.5389572,7.46392095 12.5747235,7.87975185 12.3651057,8.17929931 L12.2948513,8.2654017 L7.56493595,13.2655979 L5.21966991,10.9203319 C4.9267767,10.6274387 4.9267767,10.1525649 5.21966991,9.85967173 C5.48593648,9.59340516 5.90260016,9.56919911 6.19621165,9.78705357 L6.28033009,9.85967173 L7.535,11.1140018 L11.2051487,7.23460192 Z" id="直线-6" fill="#FFFFFF" fill-rule="nonzero"></path>
                            <path d="M88.0454545,0 C88.5726354,0 89,0.44771525 89,1 C89,1.51283584 88.6315071,1.93550716 88.1567747,1.99327227 L88.0454545,2 L26.9545455,2 C26.4273646,2 26,1.55228475 26,1 C26,0.487164161 26.3684929,0.0644928393 26.8432253,0.00672773133 L26.9545455,0 L88.0454545,0 Z" id="路径" fill="#D9E6F2" fill-rule="nonzero"></path>
                            <path d="M88.0454545,8 C88.5726354,8 89,8.44771525 89,9 C89,9.51283584 88.6315071,9.93550716 88.1567747,9.99327227 L88.0454545,10 L26.9545455,10 C26.4273646,10 26,9.55228475 26,9 C26,8.48716416 26.3684929,8.06449284 26.8432253,8.00672773 L26.9545455,8 L88.0454545,8 Z" id="路径" fill="#D9E6F2" fill-rule="nonzero"></path>
                            <path d="M73.5619492,16 C74.0820644,16 74.503701,16.4477153 74.503701,17 C74.503701,17.5128358 74.140147,17.9355072 73.6717774,17.9932723 L73.5619492,18 L26.9417518,18 C26.4216366,18 26,17.5522847 26,17 C26,16.4871642 26.363554,16.0644928 26.8319236,16.0067277 L26.9417518,16 L73.5619492,16 Z" id="路径" fill="#D9E6F2" fill-rule="nonzero"></path>
                        </g>
                        <g id="编组-19" transform="translate(0.000000, 62.000000)">
                            <circle id="椭圆形" fill="#5365EA" cx="9" cy="10" r="9"></circle>
                            <path d="M11.2051487,7.23460192 C11.4897962,6.93368885 11.9644868,6.920503 12.2653999,7.2051505 C12.5389572,7.46392095 12.5747235,7.87975185 12.3651057,8.17929931 L12.2948513,8.2654017 L7.56493595,13.2655979 L5.21966991,10.9203319 C4.9267767,10.6274387 4.9267767,10.1525649 5.21966991,9.85967173 C5.48593648,9.59340516 5.90260016,9.56919911 6.19621165,9.78705357 L6.28033009,9.85967173 L7.535,11.1140018 L11.2051487,7.23460192 Z" id="直线-6" fill="#FFFFFF" fill-rule="nonzero"></path>
                            <path d="M88.0454545,0 C88.5726354,0 89,0.44771525 89,1 C89,1.51283584 88.6315071,1.93550716 88.1567747,1.99327227 L88.0454545,2 L26.9545455,2 C26.4273646,2 26,1.55228475 26,1 C26,0.487164161 26.3684929,0.0644928393 26.8432253,0.00672773133 L26.9545455,0 L88.0454545,0 Z" id="路径" fill="#D9E6F2" fill-rule="nonzero"></path>
                            <path d="M88.0454545,8 C88.5726354,8 89,8.44771525 89,9 C89,9.51283584 88.6315071,9.93550716 88.1567747,9.99327227 L88.0454545,10 L26.9545455,10 C26.4273646,10 26,9.55228475 26,9 C26,8.48716416 26.3684929,8.06449284 26.8432253,8.00672773 L26.9545455,8 L88.0454545,8 Z" id="路径" fill="#D9E6F2" fill-rule="nonzero"></path>
                            <path d="M73.5619492,16 C74.0820644,16 74.503701,16.4477153 74.503701,17 C74.503701,17.5128358 74.140147,17.9355072 73.6717774,17.9932723 L73.5619492,18 L26.9417518,18 C26.4216366,18 26,17.5522847 26,17 C26,16.4871642 26.363554,16.0644928 26.8319236,16.0067277 L26.9417518,16 L73.5619492,16 Z" id="路径" fill="#D9E6F2" fill-rule="nonzero"></path>
                        </g>
                        <g id="编组-19" transform="translate(0.000000, 93.000000)">
                            <circle id="椭圆形" fill="#5365EA" cx="9" cy="10" r="9"></circle>
                            <path d="M11.2051487,7.23460192 C11.4897962,6.93368885 11.9644868,6.920503 12.2653999,7.2051505 C12.5389572,7.46392095 12.5747235,7.87975185 12.3651057,8.17929931 L12.2948513,8.2654017 L7.56493595,13.2655979 L5.21966991,10.9203319 C4.9267767,10.6274387 4.9267767,10.1525649 5.21966991,9.85967173 C5.48593648,9.59340516 5.90260016,9.56919911 6.19621165,9.78705357 L6.28033009,9.85967173 L7.535,11.1140018 L11.2051487,7.23460192 Z" id="直线-6" fill="#FFFFFF" fill-rule="nonzero"></path>
                            <path d="M88.0454545,0 C88.5726354,0 89,0.44771525 89,1 C89,1.51283584 88.6315071,1.93550716 88.1567747,1.99327227 L88.0454545,2 L26.9545455,2 C26.4273646,2 26,1.55228475 26,1 C26,0.487164161 26.3684929,0.0644928393 26.8432253,0.00672773133 L26.9545455,0 L88.0454545,0 Z" id="路径" fill="#D9E6F2" fill-rule="nonzero"></path>
                            <path d="M88.0454545,8 C88.5726354,8 89,8.44771525 89,9 C89,9.51283584 88.6315071,9.93550716 88.1567747,9.99327227 L88.0454545,10 L26.9545455,10 C26.4273646,10 26,9.55228475 26,9 C26,8.48716416 26.3684929,8.06449284 26.8432253,8.00672773 L26.9545455,8 L88.0454545,8 Z" id="路径" fill="#D9E6F2" fill-rule="nonzero"></path>
                            <path d="M73.5619492,16 C74.0820644,16 74.503701,16.4477153 74.503701,17 C74.503701,17.5128358 74.140147,17.9355072 73.6717774,17.9932723 L73.5619492,18 L26.9417518,18 C26.4216366,18 26,17.5522847 26,17 C26,16.4871642 26.363554,16.0644928 26.8319236,16.0067277 L26.9417518,16 L73.5619492,16 Z" id="路径" fill="#D9E6F2" fill-rule="nonzero"></path>
                        </g>
                    </g>
                </g>
                <g id="编组-12" transform="translate(223.282381, 142.718249) rotate(-225.000000) translate(-223.282381, -142.718249) translate(173.782381, 136.218249)">
                    <path d="M4,0 L88.6075949,0 L88.6075949,0 L88.6075949,12.6582278 L4,12.6582278 C1.790861,12.6582278 2.705415e-16,10.8673668 0,8.65822785 L0,4 C-2.705415e-16,1.790861 1.790861,4.05812251e-16 4,0 Z" id="矩形" stroke="#323288" stroke-width="1.5" fill="#FFFFFF"></path>
                    <path d="M2.92229665,7.52074132 L89.3147017,7.52074132 L89.3147017,7.52074132 L89.3147017,11.9511211 L2.92229665,11.9511211 C1.69888107,11.9511211 0.707106781,10.9593468 0.707106781,9.73593119 C0.707106781,8.51251561 1.69888107,7.52074132 2.92229665,7.52074132 Z" id="矩形" fill="#E7EFFF"></path>
                    <polygon id="矩形" stroke="#323288" stroke-width="1.5" fill="#FFFFFF" transform="translate(93.450471, 6.329114) scale(-1, 1) translate(-93.450471, -6.329114) " points="98.9262588 0 98.9262588 12.6582278 91.3094991 8.25636432 87.9746835 6.32911392 91.3094991 4.41837197"></polygon>
                    <polygon id="矩形" fill="#323288" transform="translate(97.258851, 6.337368) scale(-1, 1) translate(-97.258851, -6.337368) " points="98.9262588 8.25636432 95.5914432 6.32911392 98.9262588 4.41837197"></polygon>
                    <path d="M4,0 L14.613179,0 L14.613179,0 L14.613179,12.6582278 L4,12.6582278 C1.790861,12.6582278 -1.73547709e-16,10.8673668 0,8.65822785 L0,4 C-7.1463071e-16,1.790861 1.790861,-4.82366169e-16 4,0 Z" id="矩形" stroke="#323288" stroke-width="1.5" fill="#5365EA"></path>
                </g>
                <path d="M82.6301391,85.416643 C83.0079683,85.1193871 83.555233,85.1847046 83.8524889,85.5625339 L83.8524889,85.5625339 L103.937742,111.092035 C104.058458,111.245472 104.124088,111.435034 104.124088,111.630265 C104.124088,112.11101 103.734367,112.500731 103.253622,112.500731 L103.253622,112.500731 L91.0436124,112.50026 L91.0443263,155.447581 C91.0443263,155.928326 90.6546053,156.318047 90.17386,156.318047 L76.1628771,156.318047 C75.6821319,156.318047 75.2924108,155.928326 75.2924108,155.447581 L75.2916124,112.50026 L63.0831154,112.500731 C62.926931,112.500731 62.774374,112.458728 62.6410392,112.38012 L62.5448859,112.314385 C62.1670567,112.017129 62.1017391,111.469865 62.3989951,111.092035 L62.3989951,111.092035 L82.4842482,85.5625339 C82.5269229,85.5082919 82.5758971,85.4593177 82.6301391,85.416643 Z" id="Combined-Shape" stroke="#323288" stroke-width="1.5" fill="#FFFFFF" transform="translate(83.168350, 120.774154) scale(-1, 1) rotate(-45.000000) translate(-83.168350, -120.774154) "></path>
                <polygon id="路径-2" fill="#E7EFFF" points="84.5098647 109.365587 87.8801702 112.5 56.6490162 143.422777 53.5169238 140.336975"></polygon>
                <g id="编组-21" transform="translate(215.898283, 0.000000)">
                    <line x1="0" y1="6" x2="12" y2="6" id="直线-8" stroke="#5365EA" stroke-width="1.5" stroke-linecap="square"></line>
                    <line x1="0" y1="6" x2="12" y2="6" id="直线-8" stroke="#5365EA" stroke-width="1.5" stroke-linecap="square" transform="translate(6.000000, 6.000000) rotate(90.000000) translate(-6.000000, -6.000000) "></line>
                    <rect id="矩形" fill="#5365EA" transform="translate(6.000000, 6.000000) rotate(45.000000) translate(-6.000000, -6.000000) " x="2" y="2" width="8" height="8"></rect>
                </g>
                <g id="编组-21" transform="translate(230.916332, 17.500000)" stroke="#5365EA">
                    <line x1="0" y1="3" x2="6" y2="3" id="直线-8" stroke-width="1.5" stroke-linecap="square"></line>
                    <polygon id="矩形" fill="#5365EA" transform="translate(3.000000, 3.000000) rotate(45.000000) translate(-3.000000, -3.000000) " points="1.25 1.25 4.75 1.25 4.75 4.75 1.25 4.75"></polygon>
                    <line x1="1.00280713e-15" y1="3" x2="6" y2="3" id="直线-8" stroke-width="1.5" stroke-linecap="square" transform="translate(3.000000, 3.000000) rotate(90.000000) translate(-3.000000, -3.000000) "></line>
                </g>
                <g id="编组-23" transform="translate(24.182172, 50.847239) rotate(-22.000000) translate(-24.182172, -50.847239) translate(4.682172, 35.347239)">
                    <path d="M37.7559324,19.223768 C37.7559324,21.5005621 35.9650714,23.3462684 33.7559324,23.3462684 L16.125,23.3462684 L9.41846282,30.1067204 C9.26434601,30.2620632 9.06446482,30.3616958 8.8501687,30.392347 L8.72011203,30.4028582 C8.20731041,30.408278 7.78020784,30.0271461 7.71670144,29.5305079 L7.70862697,29.4139723 L7.638,23.3462684 L4,23.3462684 C1.790861,23.3462684 0,21.5005621 0,19.223768 L0.374606593,4.54158492 C0.374606593,2.26479081 2.16546759,0.419084509 4.37460659,0.419084509 L34.130539,0.419084509 C36.339678,0.419084509 38.130539,2.26479081 38.130539,4.54158492 C38.130539,11.0352265 37.7559324,15.4734428 37.7559324,16.0018661" id="路径" stroke="#0F1358" stroke-linecap="round" stroke-linejoin="round"></path>
                    <g id="info_black_24dp" transform="translate(11.065270, 3.646377)">
                        <polygon id="路径" points="0 0 16 0 16 16 0 16"></polygon>
                        <path d="M8,1.33333333 C4.32,1.33333333 1.33333333,4.32 1.33333333,8 C1.33333333,11.68 4.32,14.6666667 8,14.6666667 C11.68,14.6666667 14.6666667,11.68 14.6666667,8 C14.6666667,4.32 11.68,1.33333333 8,1.33333333 Z M8.36253879,4.45361112 L9.59878393,4.95308658 L7.76952518,9.48066087 L6.53328004,8.98118541 L8.36253879,4.45361112 Z M11.9584806,9.73943719 L11.4590051,10.9756823 L7.76631387,9.48373821 L8.26578933,8.24749307 L11.9584806,9.73943719 Z" id="形状" fill="#5365EA" fill-rule="nonzero"></path>
                    </g>
                </g>
                <g id="编组-24" transform="translate(316.543578, 72.501903) rotate(5.000000) translate(-316.543578, -72.501903) translate(297.043578, 57.001903)"></g>
                <g id="编组-26" transform="translate(314.543578, 72.814742) rotate(6.000000) translate(-314.543578, -72.814742) translate(295.043578, 57.314742)">
                    <path d="M15.8667906,3.55271368e-15 C19.1795501,3.55271368e-15 25.5572865,3.55271368e-15 35,3.55271368e-15 C37.209139,3.55271368e-15 39,1.790861 39,4 L39,21 C39,23.209139 37.209139,25 35,25 L31.185,25 L31.185076,29.803352 C31.185076,29.9721147 31.1423802,30.1374193 31.0618741,30.2842129 L30.9944814,30.3906022 C30.6951005,30.8034798 30.1392678,30.9197283 29.7039314,30.6801145 L29.5978258,30.6127575 L21.862,25 L4,25 C1.790861,25 3.55271368e-15,23.209139 3.55271368e-15,21 L3.55271368e-15,4 C3.55271368e-15,1.790861 1.790861,3.55271368e-15 4,3.55271368e-15 C7.0176234,3.55271368e-15 9.28084095,3.55271368e-15 10.7896526,3.55271368e-15" id="路径" stroke="#0F1358" fill="#FFFFFF" stroke-linecap="round" stroke-linejoin="round"></path>
                    <path d="M30.6290212,9.46558407 C32.2858755,9.46558407 33.6290212,10.8087298 33.6290212,12.4655841 C33.6290212,14.1224383 32.2858755,15.4655841 30.6290212,15.4655841 C28.972167,15.4655841 27.6290212,14.1224383 27.6290212,12.4655841 C27.6290212,10.8087298 28.972167,9.46558407 30.6290212,9.46558407 Z M19.9747356,9.45010328 C21.6315899,9.45010328 22.9747356,10.793249 22.9747356,12.4501033 C22.9747356,14.1069575 21.6315899,15.4501033 19.9747356,15.4501033 C18.3178814,15.4501033 16.9747356,14.1069575 16.9747356,12.4501033 C16.9747356,10.793249 18.3178814,9.45010328 19.9747356,9.45010328 Z M9.32044999,9.43462248 C10.9773042,9.43462248 12.32045,10.7777682 12.32045,12.4346225 C12.32045,14.0914767 10.9773042,15.4346225 9.32044999,15.4346225 C7.66359574,15.4346225 6.32044999,14.0914767 6.32044999,12.4346225 C6.32044999,10.7777682 7.66359574,9.43462248 9.32044999,9.43462248 Z" id="形状结合" fill="#5365EA"></path>
                </g>
                <path d="M291.094117,24.5 L289.094117,26.5 L287.094117,24.5 L289.094117,22.5 L291.094117,24.5 Z M289.094117,18.5 L291.214117,20.62 L293.714117,18.12 L289.094117,13.5 L284.474117,18.12 L286.974117,20.62 L289.094117,18.5 Z M283.094117,24.5 L285.214117,22.38 L282.714117,19.88 L278.094117,24.5 L282.714117,29.12 L285.214117,26.62 L283.094117,24.5 Z M295.094117,24.5 L292.974117,26.62 L295.474117,29.12 L300.094117,24.5 L295.474117,19.88 L292.974117,22.38 L295.094117,24.5 Z M289.094117,30.5 L286.974117,28.38 L284.474117,30.88 L289.094117,35.5 L293.714117,30.88 L291.214117,28.38 L289.094117,30.5 Z" id="形状" fill-opacity="0.32" fill="#D9E6F2" fill-rule="nonzero"></path>
                <g opacity="0.32" transform="translate(12.000000, 109.000000)" fill="#D9E6F2" fill-rule="nonzero" id="形状">
                    <path d="M0,0.01091875 L2.6768,0.01091875 L2.6768,2.68771875 L0,2.68771875 L0,0.01091875 Z M5.5,0.01091875 L20,0.01091875 L20,2.68771875 L5.5,2.68771875 L5.5,0.01091875 Z M0,5.36091875 L2.6768,5.36091875 L2.6768,8.03771875 L0,8.03771875 L0,5.36091875 Z M5.5,5.36091875 L20,5.36091875 L20,8.03771875 L5.5,8.03771875 L5.5,5.36091875 Z M0,10.7107188 L2.6768,10.7107188 L2.6768,13.3877188 L0,13.3877188 L0,10.7107188 Z M5.5,10.7107188 L20,10.7107188 L20,13.3877188 L5.5,13.3877188 L5.5,10.7107188 Z"></path>
                </g>
                <path d="M313.5,124.589571 L311.5,124.589571 L311.5,133.589571 L298.5,133.589571 L298.5,135.589571 C298.5,136.139571 298.95,136.589571 299.5,136.589571 L310.5,136.589571 L314.5,140.589571 L314.5,125.589571 C314.5,125.039571 314.05,124.589571 313.5,124.589571 Z M309.5,130.589571 L309.5,121.589571 C309.5,121.039571 309.05,120.589571 308.5,120.589571 L295.5,120.589571 C294.95,120.589571 294.5,121.039571 294.5,121.589571 L294.5,135.589571 L298.5,131.589571 L308.5,131.589571 C309.05,131.589571 309.5,131.139571 309.5,130.589571 Z" id="形状" fill-opacity="0.32" fill="#D9E6F2" fill-rule="nonzero" transform="translate(304.500000, 130.589571) rotate(-10.000000) translate(-304.500000, -130.589571) "></path>
                <path d="M27.528342,186.049571 L31.528342,186.049571 L31.528342,174.049571 L27.528342,174.049571 L27.528342,186.049571 Z M49.528342,175.049571 C49.528342,173.949571 48.628342,173.049571 47.528342,173.049571 L41.218342,173.049571 L42.168342,168.479571 L42.198342,168.159571 C42.198342,167.749571 42.028342,167.369571 41.758342,167.099571 L40.698342,166.049571 L34.118342,172.639571 C33.748342,172.999571 33.528342,173.499571 33.528342,174.049571 L33.528342,184.049571 C33.528342,185.149571 34.428342,186.049571 35.528342,186.049571 L44.528342,186.049571 C45.358342,186.049571 46.068342,185.549571 46.368342,184.829571 L49.388342,177.779571 C49.478342,177.549571 49.528342,177.309571 49.528342,177.049571 L49.528342,175.049571 Z" id="形状" fill-opacity="0.32" fill="#D9E6F2" fill-rule="nonzero"></path>
                <path d="M270,167.5 L326,167.5 C325.666667,163.833333 324.166667,162 321.5,162 C317.5,162 315.5,164 314.5,164 C313.5,164 310.5,157 305.5,156 C300.5,155 298.5,159 296.5,159 C294.5,159 294.5,159 285.5,156 C278.781208,158.155084 273.614541,161.988418 270,167.5 Z" id="直线-9" fill-opacity="0.32" fill="#D9E6F2"></path>
                <path d="M27.6785153,19.4625618 L78.0530826,19.4625618 C76.0831498,17.1541873 73.8987889,16 71.5,16 C67.9018166,16 64.3995458,18 63.5,18 C62.6004542,18 61.9977292,14 57.5,13 C53.0022708,12 51.2990917,15 49.5,15 C47.7009083,15 44.5657925,6.76737355 35.5,10 C29.4561384,12.1550843 26.8489768,15.3092716 27.6785153,19.4625618 Z" id="直线-9" fill-opacity="0.32" fill="#D9E6F2"></path>
                <polygon id="路径-3" fill="#E7EFFF" points="84.5098647 109.365587 75.3493938 100.058926 107.761697 96.2199517 87.8801702 112.5"></polygon>
            </g>
        </g>
    </g>
</svg>
