<?xml version="1.0" encoding="UTF-8"?>
<svg width="74px" height="53px" viewBox="0 0 74 53" version="1.1" xmlns="http://www.w3.org/2000/svg" xmlns:xlink="http://www.w3.org/1999/xlink">
    <!-- Generator: Sketch 63.1 (92452) - https://sketch.com -->
    <title>Group 2</title>
    <desc>Created with Sketch.</desc>
    <defs>
        <path d="M2,0.0423451906 L5.2,0.0423451906 C6.3045695,0.0423451906 7.2,0.937775691 7.2,2.04234519 L7.2,25.2423452 L7.2,25.2423452 L0,25.2423452 L0,2.04234519 C-1.3527075e-16,0.937775691 0.8954305,0.0423451906 2,0.0423451906 Z" id="path-1"></path>
        <path d="M2,0.0423451906 L5.2,0.0423451906 C6.3045695,0.0423451906 7.2,0.937775691 7.2,2.04234519 L7.2,19.2 L7.2,19.2 L0,19.2 L0,2.04234519 C-1.3527075e-16,0.937775691 0.8954305,0.0423451906 2,0.0423451906 Z" id="path-3"></path>
        <path d="M2,0.0423451906 L5.2,0.0423451906 C6.3045695,0.0423451906 7.2,0.937775691 7.2,2.04234519 L7.2,26.8 L7.2,26.8 L0,26.8 L0,2.04234519 C-1.3527075e-16,0.937775691 0.8954305,0.0423451906 2,0.0423451906 Z" id="path-5"></path>
        <path d="M2,0.0423451906 L5.2,0.0423451906 C6.3045695,0.0423451906 7.2,0.937775691 7.2,2.04234519 L7.2,32.4 L7.2,32.4 L0,32.4 L0,2.04234519 C-1.3527075e-16,0.937775691 0.8954305,0.0423451906 2,0.0423451906 Z" id="path-7"></path>
        <path d="M2,0.0423451906 L5.2,0.0423451906 C6.3045695,0.0423451906 7.2,0.937775691 7.2,2.04234519 L7.2,15.2 L7.2,15.2 L0,15.2 L0,2.04234519 C-1.3527075e-16,0.937775691 0.8954305,0.0423451906 2,0.0423451906 Z" id="path-9"></path>
        <path d="M2,0.0423451906 L5.2,0.0423451906 C6.3045695,0.0423451906 7.2,0.937775691 7.2,2.04234519 L7.2,36.8 L7.2,36.8 L0,36.8 L0,2.04234519 C-1.3527075e-16,0.937775691 0.8954305,0.0423451906 2,0.0423451906 Z" id="path-11"></path>
        <circle id="path-13" cx="10" cy="10" r="10"></circle>
    </defs>
    <g id="页面-1" stroke="none" stroke-width="1" fill="none" fill-rule="evenodd">
        <g id="团队绩效-质量分析-缺省页" transform="translate(-807.000000, -976.000000)">
            <g id="编组-3" transform="translate(803.000000, 976.000000)">
                <g id="Group-2" transform="translate(4.000000, -0.000000)">
                    <rect id="Rectangle-7-Copy-13" fill="#DEE0ED" x="0" y="0" width="73.6" height="52.8" rx="4"></rect>
                    <path d="M0,9.6 L73.6,9.6 L73.6,48.8 C73.6,51.009139 71.809139,52.8 69.6,52.8 L4,52.8 C1.790861,52.8 2.705415e-16,51.009139 0,48.8 L0,9.6 L0,9.6 Z" id="Rectangle-7-Copy-13" fill="#F2F4FD"></path>
                    <g id="Group-8" transform="translate(4.400000, 27.600000)">
                        <mask id="mask-2" fill="white">
                            <use xlink:href="#path-1"></use>
                        </mask>
                        <use id="Mask" fill="#E8EAF4" xlink:href="#path-1"></use>
                        <g mask="url(#mask-2)" stroke="#DEE0ED" stroke-linecap="square">
                            <g transform="translate(7.508535, 10.308535) rotate(45.000000) translate(-7.508535, -10.308535) translate(-11.291465, -11.491465)">
                                <line x1="0.25" y1="0.2" x2="0.25" y2="43.4" id="Line-5"></line>
                                <line x1="19.45" y1="0.2" x2="19.45" y2="43.4" id="Line-5-Copy-16"></line>
                                <line x1="9.85" y1="0.2" x2="9.85" y2="43.4" id="Line-5-Copy-8"></line>
                                <line x1="29.05" y1="0.2" x2="29.05" y2="43.4" id="Line-5-Copy-17"></line>
                                <line x1="5.05" y1="0.2" x2="5.05" y2="43.4" id="Line-5-Copy-4"></line>
                                <line x1="24.25" y1="0.2" x2="24.25" y2="43.4" id="Line-5-Copy-18"></line>
                                <line x1="14.65" y1="0.2" x2="14.65" y2="43.4" id="Line-5-Copy-9"></line>
                                <line x1="33.85" y1="0.2" x2="33.85" y2="43.4" id="Line-5-Copy-19"></line>
                                <line x1="1.45" y1="0.2" x2="1.45" y2="43.4" id="Line-5-Copy"></line>
                                <line x1="20.65" y1="0.2" x2="20.65" y2="43.4" id="Line-5-Copy-20"></line>
                                <line x1="11.05" y1="0.2" x2="11.05" y2="43.4" id="Line-5-Copy-10"></line>
                                <line x1="30.25" y1="0.2" x2="30.25" y2="43.4" id="Line-5-Copy-21"></line>
                                <line x1="6.25" y1="0.2" x2="6.25" y2="43.4" id="Line-5-Copy-5"></line>
                                <line x1="25.45" y1="0.2" x2="25.45" y2="43.4" id="Line-5-Copy-22"></line>
                                <line x1="15.85" y1="0.2" x2="15.85" y2="43.4" id="Line-5-Copy-11"></line>
                                <line x1="35.05" y1="0.2" x2="35.05" y2="43.4" id="Line-5-Copy-23"></line>
                                <line x1="2.65" y1="0.2" x2="2.65" y2="43.4" id="Line-5-Copy-2"></line>
                                <line x1="21.85" y1="0.2" x2="21.85" y2="43.4" id="Line-5-Copy-24"></line>
                                <line x1="12.25" y1="0.2" x2="12.25" y2="43.4" id="Line-5-Copy-12"></line>
                                <line x1="31.45" y1="0.2" x2="31.45" y2="43.4" id="Line-5-Copy-25"></line>
                                <line x1="7.45" y1="0.2" x2="7.45" y2="43.4" id="Line-5-Copy-6"></line>
                                <line x1="26.65" y1="0.2" x2="26.65" y2="43.4" id="Line-5-Copy-26"></line>
                                <line x1="17.05" y1="0.2" x2="17.05" y2="43.4" id="Line-5-Copy-13"></line>
                                <line x1="36.25" y1="0.2" x2="36.25" y2="43.4" id="Line-5-Copy-27"></line>
                                <line x1="3.85" y1="0.2" x2="3.85" y2="43.4" id="Line-5-Copy-3"></line>
                                <line x1="23.05" y1="0.2" x2="23.05" y2="43.4" id="Line-5-Copy-28"></line>
                                <line x1="13.45" y1="0.2" x2="13.45" y2="43.4" id="Line-5-Copy-14"></line>
                                <line x1="32.65" y1="0.2" x2="32.65" y2="43.4" id="Line-5-Copy-29"></line>
                                <line x1="8.65" y1="0.2" x2="8.65" y2="43.4" id="Line-5-Copy-7"></line>
                                <line x1="27.85" y1="0.2" x2="27.85" y2="43.4" id="Line-5-Copy-30"></line>
                                <line x1="18.25" y1="0.2" x2="18.25" y2="43.4" id="Line-5-Copy-15"></line>
                                <line x1="37.45" y1="0.2" x2="37.45" y2="43.4" id="Line-5-Copy-31"></line>
                            </g>
                        </g>
                    </g>
                    <g id="Group-8-Copy-2" transform="translate(26.800000, 33.600000)">
                        <mask id="mask-4" fill="white">
                            <use xlink:href="#path-3"></use>
                        </mask>
                        <use id="Mask" fill="#E8EAF4" xlink:href="#path-3"></use>
                        <g id="Group-8" mask="url(#mask-4)" stroke="#DEE0ED" stroke-linecap="square">
                            <g transform="translate(7.508535, 10.708535) rotate(45.000000) translate(-7.508535, -10.708535) translate(-11.291465, -11.091465)">
                                <line x1="0.25" y1="0.2" x2="0.25" y2="43.4" id="Line-5"></line>
                                <line x1="19.45" y1="0.2" x2="19.45" y2="43.4" id="Line-5-Copy-16"></line>
                                <line x1="9.85" y1="0.2" x2="9.85" y2="43.4" id="Line-5-Copy-8"></line>
                                <line x1="29.05" y1="0.2" x2="29.05" y2="43.4" id="Line-5-Copy-17"></line>
                                <line x1="5.05" y1="0.2" x2="5.05" y2="43.4" id="Line-5-Copy-4"></line>
                                <line x1="24.25" y1="0.2" x2="24.25" y2="43.4" id="Line-5-Copy-18"></line>
                                <line x1="14.65" y1="0.2" x2="14.65" y2="43.4" id="Line-5-Copy-9"></line>
                                <line x1="33.85" y1="0.2" x2="33.85" y2="43.4" id="Line-5-Copy-19"></line>
                                <line x1="1.45" y1="0.2" x2="1.45" y2="43.4" id="Line-5-Copy"></line>
                                <line x1="20.65" y1="0.2" x2="20.65" y2="43.4" id="Line-5-Copy-20"></line>
                                <line x1="11.05" y1="0.2" x2="11.05" y2="43.4" id="Line-5-Copy-10"></line>
                                <line x1="30.25" y1="0.2" x2="30.25" y2="43.4" id="Line-5-Copy-21"></line>
                                <line x1="6.25" y1="0.2" x2="6.25" y2="43.4" id="Line-5-Copy-5"></line>
                                <line x1="25.45" y1="0.2" x2="25.45" y2="43.4" id="Line-5-Copy-22"></line>
                                <line x1="15.85" y1="0.2" x2="15.85" y2="43.4" id="Line-5-Copy-11"></line>
                                <line x1="35.05" y1="0.2" x2="35.05" y2="43.4" id="Line-5-Copy-23"></line>
                                <line x1="2.65" y1="0.2" x2="2.65" y2="43.4" id="Line-5-Copy-2"></line>
                                <line x1="21.85" y1="0.2" x2="21.85" y2="43.4" id="Line-5-Copy-24"></line>
                                <line x1="12.25" y1="0.2" x2="12.25" y2="43.4" id="Line-5-Copy-12"></line>
                                <line x1="31.45" y1="0.2" x2="31.45" y2="43.4" id="Line-5-Copy-25"></line>
                                <line x1="7.45" y1="0.2" x2="7.45" y2="43.4" id="Line-5-Copy-6"></line>
                                <line x1="26.65" y1="0.2" x2="26.65" y2="43.4" id="Line-5-Copy-26"></line>
                                <line x1="17.05" y1="0.2" x2="17.05" y2="43.4" id="Line-5-Copy-13"></line>
                                <line x1="36.25" y1="0.2" x2="36.25" y2="43.4" id="Line-5-Copy-27"></line>
                                <line x1="3.85" y1="0.2" x2="3.85" y2="43.4" id="Line-5-Copy-3"></line>
                                <line x1="23.05" y1="0.2" x2="23.05" y2="43.4" id="Line-5-Copy-28"></line>
                                <line x1="13.45" y1="0.2" x2="13.45" y2="43.4" id="Line-5-Copy-14"></line>
                                <line x1="32.65" y1="0.2" x2="32.65" y2="43.4" id="Line-5-Copy-29"></line>
                                <line x1="8.65" y1="0.2" x2="8.65" y2="43.4" id="Line-5-Copy-7"></line>
                                <line x1="27.85" y1="0.2" x2="27.85" y2="43.4" id="Line-5-Copy-30"></line>
                                <line x1="18.25" y1="0.2" x2="18.25" y2="43.4" id="Line-5-Copy-15"></line>
                                <line x1="37.45" y1="0.2" x2="37.45" y2="43.4" id="Line-5-Copy-31"></line>
                            </g>
                        </g>
                    </g>
                    <g id="Group-8-Copy-3" transform="translate(38.000000, 26.000000)">
                        <mask id="mask-6" fill="white">
                            <use xlink:href="#path-5"></use>
                        </mask>
                        <use id="Mask" fill="#E8EAF4" xlink:href="#path-5"></use>
                        <g id="Group-8" mask="url(#mask-6)" stroke="#DEE0ED" stroke-linecap="square">
                            <g transform="translate(7.508535, 10.708535) rotate(45.000000) translate(-7.508535, -10.708535) translate(-11.291465, -11.091465)">
                                <line x1="0.25" y1="0.2" x2="0.25" y2="43.4" id="Line-5"></line>
                                <line x1="19.45" y1="0.2" x2="19.45" y2="43.4" id="Line-5-Copy-16"></line>
                                <line x1="9.85" y1="0.2" x2="9.85" y2="43.4" id="Line-5-Copy-8"></line>
                                <line x1="29.05" y1="0.2" x2="29.05" y2="43.4" id="Line-5-Copy-17"></line>
                                <line x1="5.05" y1="0.2" x2="5.05" y2="43.4" id="Line-5-Copy-4"></line>
                                <line x1="24.25" y1="0.2" x2="24.25" y2="43.4" id="Line-5-Copy-18"></line>
                                <line x1="14.65" y1="0.2" x2="14.65" y2="43.4" id="Line-5-Copy-9"></line>
                                <line x1="33.85" y1="0.2" x2="33.85" y2="43.4" id="Line-5-Copy-19"></line>
                                <line x1="1.45" y1="0.2" x2="1.45" y2="43.4" id="Line-5-Copy"></line>
                                <line x1="20.65" y1="0.2" x2="20.65" y2="43.4" id="Line-5-Copy-20"></line>
                                <line x1="11.05" y1="0.2" x2="11.05" y2="43.4" id="Line-5-Copy-10"></line>
                                <line x1="30.25" y1="0.2" x2="30.25" y2="43.4" id="Line-5-Copy-21"></line>
                                <line x1="6.25" y1="0.2" x2="6.25" y2="43.4" id="Line-5-Copy-5"></line>
                                <line x1="25.45" y1="0.2" x2="25.45" y2="43.4" id="Line-5-Copy-22"></line>
                                <line x1="15.85" y1="0.2" x2="15.85" y2="43.4" id="Line-5-Copy-11"></line>
                                <line x1="35.05" y1="0.2" x2="35.05" y2="43.4" id="Line-5-Copy-23"></line>
                                <line x1="2.65" y1="0.2" x2="2.65" y2="43.4" id="Line-5-Copy-2"></line>
                                <line x1="21.85" y1="0.2" x2="21.85" y2="43.4" id="Line-5-Copy-24"></line>
                                <line x1="12.25" y1="0.2" x2="12.25" y2="43.4" id="Line-5-Copy-12"></line>
                                <line x1="31.45" y1="0.2" x2="31.45" y2="43.4" id="Line-5-Copy-25"></line>
                                <line x1="7.45" y1="0.2" x2="7.45" y2="43.4" id="Line-5-Copy-6"></line>
                                <line x1="26.65" y1="0.2" x2="26.65" y2="43.4" id="Line-5-Copy-26"></line>
                                <line x1="17.05" y1="0.2" x2="17.05" y2="43.4" id="Line-5-Copy-13"></line>
                                <line x1="36.25" y1="0.2" x2="36.25" y2="43.4" id="Line-5-Copy-27"></line>
                                <line x1="3.85" y1="0.2" x2="3.85" y2="43.4" id="Line-5-Copy-3"></line>
                                <line x1="23.05" y1="0.2" x2="23.05" y2="43.4" id="Line-5-Copy-28"></line>
                                <line x1="13.45" y1="0.2" x2="13.45" y2="43.4" id="Line-5-Copy-14"></line>
                                <line x1="32.65" y1="0.2" x2="32.65" y2="43.4" id="Line-5-Copy-29"></line>
                                <line x1="8.65" y1="0.2" x2="8.65" y2="43.4" id="Line-5-Copy-7"></line>
                                <line x1="27.85" y1="0.2" x2="27.85" y2="43.4" id="Line-5-Copy-30"></line>
                                <line x1="18.25" y1="0.2" x2="18.25" y2="43.4" id="Line-5-Copy-15"></line>
                                <line x1="37.45" y1="0.2" x2="37.45" y2="43.4" id="Line-5-Copy-31"></line>
                            </g>
                        </g>
                    </g>
                    <g id="Group-8-Copy-4" transform="translate(49.200000, 20.400000)">
                        <mask id="mask-8" fill="white">
                            <use xlink:href="#path-7"></use>
                        </mask>
                        <use id="Mask" fill="#E8EAF4" xlink:href="#path-7"></use>
                        <g id="Group-8" mask="url(#mask-8)" stroke="#DEE0ED" stroke-linecap="square">
                            <g transform="translate(7.508535, 10.708535) rotate(45.000000) translate(-7.508535, -10.708535) translate(-11.291465, -11.091465)">
                                <line x1="0.25" y1="0.2" x2="0.25" y2="43.4" id="Line-5"></line>
                                <line x1="19.45" y1="0.2" x2="19.45" y2="43.4" id="Line-5-Copy-16"></line>
                                <line x1="9.85" y1="0.2" x2="9.85" y2="43.4" id="Line-5-Copy-8"></line>
                                <line x1="29.05" y1="0.2" x2="29.05" y2="43.4" id="Line-5-Copy-17"></line>
                                <line x1="5.05" y1="0.2" x2="5.05" y2="43.4" id="Line-5-Copy-4"></line>
                                <line x1="24.25" y1="0.2" x2="24.25" y2="43.4" id="Line-5-Copy-18"></line>
                                <line x1="14.65" y1="0.2" x2="14.65" y2="43.4" id="Line-5-Copy-9"></line>
                                <line x1="33.85" y1="0.2" x2="33.85" y2="43.4" id="Line-5-Copy-19"></line>
                                <line x1="1.45" y1="0.2" x2="1.45" y2="43.4" id="Line-5-Copy"></line>
                                <line x1="20.65" y1="0.2" x2="20.65" y2="43.4" id="Line-5-Copy-20"></line>
                                <line x1="11.05" y1="0.2" x2="11.05" y2="43.4" id="Line-5-Copy-10"></line>
                                <line x1="30.25" y1="0.2" x2="30.25" y2="43.4" id="Line-5-Copy-21"></line>
                                <line x1="6.25" y1="0.2" x2="6.25" y2="43.4" id="Line-5-Copy-5"></line>
                                <line x1="25.45" y1="0.2" x2="25.45" y2="43.4" id="Line-5-Copy-22"></line>
                                <line x1="15.85" y1="0.2" x2="15.85" y2="43.4" id="Line-5-Copy-11"></line>
                                <line x1="35.05" y1="0.2" x2="35.05" y2="43.4" id="Line-5-Copy-23"></line>
                                <line x1="2.65" y1="0.2" x2="2.65" y2="43.4" id="Line-5-Copy-2"></line>
                                <line x1="21.85" y1="0.2" x2="21.85" y2="43.4" id="Line-5-Copy-24"></line>
                                <line x1="12.25" y1="0.2" x2="12.25" y2="43.4" id="Line-5-Copy-12"></line>
                                <line x1="31.45" y1="0.2" x2="31.45" y2="43.4" id="Line-5-Copy-25"></line>
                                <line x1="7.45" y1="0.2" x2="7.45" y2="43.4" id="Line-5-Copy-6"></line>
                                <line x1="26.65" y1="0.2" x2="26.65" y2="43.4" id="Line-5-Copy-26"></line>
                                <line x1="17.05" y1="0.2" x2="17.05" y2="43.4" id="Line-5-Copy-13"></line>
                                <line x1="36.25" y1="0.2" x2="36.25" y2="43.4" id="Line-5-Copy-27"></line>
                                <line x1="3.85" y1="0.2" x2="3.85" y2="43.4" id="Line-5-Copy-3"></line>
                                <line x1="23.05" y1="0.2" x2="23.05" y2="43.4" id="Line-5-Copy-28"></line>
                                <line x1="13.45" y1="0.2" x2="13.45" y2="43.4" id="Line-5-Copy-14"></line>
                                <line x1="32.65" y1="0.2" x2="32.65" y2="43.4" id="Line-5-Copy-29"></line>
                                <line x1="8.65" y1="0.2" x2="8.65" y2="43.4" id="Line-5-Copy-7"></line>
                                <line x1="27.85" y1="0.2" x2="27.85" y2="43.4" id="Line-5-Copy-30"></line>
                                <line x1="18.25" y1="0.2" x2="18.25" y2="43.4" id="Line-5-Copy-15"></line>
                                <line x1="37.45" y1="0.2" x2="37.45" y2="43.4" id="Line-5-Copy-31"></line>
                            </g>
                        </g>
                    </g>
                    <g id="Group-8-Copy-5" transform="translate(62.000000, 37.600000)">
                        <mask id="mask-10" fill="white">
                            <use xlink:href="#path-9"></use>
                        </mask>
                        <use id="Mask" fill="#E8EAF4" xlink:href="#path-9"></use>
                        <g id="Group-8" mask="url(#mask-10)" stroke="#DEE0ED" stroke-linecap="square">
                            <g transform="translate(7.508535, 10.708535) rotate(45.000000) translate(-7.508535, -10.708535) translate(-11.291465, -11.091465)">
                                <line x1="0.25" y1="0.2" x2="0.25" y2="43.4" id="Line-5"></line>
                                <line x1="19.45" y1="0.2" x2="19.45" y2="43.4" id="Line-5-Copy-16"></line>
                                <line x1="9.85" y1="0.2" x2="9.85" y2="43.4" id="Line-5-Copy-8"></line>
                                <line x1="29.05" y1="0.2" x2="29.05" y2="43.4" id="Line-5-Copy-17"></line>
                                <line x1="5.05" y1="0.2" x2="5.05" y2="43.4" id="Line-5-Copy-4"></line>
                                <line x1="24.25" y1="0.2" x2="24.25" y2="43.4" id="Line-5-Copy-18"></line>
                                <line x1="14.65" y1="0.2" x2="14.65" y2="43.4" id="Line-5-Copy-9"></line>
                                <line x1="33.85" y1="0.2" x2="33.85" y2="43.4" id="Line-5-Copy-19"></line>
                                <line x1="1.45" y1="0.2" x2="1.45" y2="43.4" id="Line-5-Copy"></line>
                                <line x1="20.65" y1="0.2" x2="20.65" y2="43.4" id="Line-5-Copy-20"></line>
                                <line x1="11.05" y1="0.2" x2="11.05" y2="43.4" id="Line-5-Copy-10"></line>
                                <line x1="30.25" y1="0.2" x2="30.25" y2="43.4" id="Line-5-Copy-21"></line>
                                <line x1="6.25" y1="0.2" x2="6.25" y2="43.4" id="Line-5-Copy-5"></line>
                                <line x1="25.45" y1="0.2" x2="25.45" y2="43.4" id="Line-5-Copy-22"></line>
                                <line x1="15.85" y1="0.2" x2="15.85" y2="43.4" id="Line-5-Copy-11"></line>
                                <line x1="35.05" y1="0.2" x2="35.05" y2="43.4" id="Line-5-Copy-23"></line>
                                <line x1="2.65" y1="0.2" x2="2.65" y2="43.4" id="Line-5-Copy-2"></line>
                                <line x1="21.85" y1="0.2" x2="21.85" y2="43.4" id="Line-5-Copy-24"></line>
                                <line x1="12.25" y1="0.2" x2="12.25" y2="43.4" id="Line-5-Copy-12"></line>
                                <line x1="31.45" y1="0.2" x2="31.45" y2="43.4" id="Line-5-Copy-25"></line>
                                <line x1="7.45" y1="0.2" x2="7.45" y2="43.4" id="Line-5-Copy-6"></line>
                                <line x1="26.65" y1="0.2" x2="26.65" y2="43.4" id="Line-5-Copy-26"></line>
                                <line x1="17.05" y1="0.2" x2="17.05" y2="43.4" id="Line-5-Copy-13"></line>
                                <line x1="36.25" y1="0.2" x2="36.25" y2="43.4" id="Line-5-Copy-27"></line>
                                <line x1="3.85" y1="0.2" x2="3.85" y2="43.4" id="Line-5-Copy-3"></line>
                                <line x1="23.05" y1="0.2" x2="23.05" y2="43.4" id="Line-5-Copy-28"></line>
                                <line x1="13.45" y1="0.2" x2="13.45" y2="43.4" id="Line-5-Copy-14"></line>
                                <line x1="32.65" y1="0.2" x2="32.65" y2="43.4" id="Line-5-Copy-29"></line>
                                <line x1="8.65" y1="0.2" x2="8.65" y2="43.4" id="Line-5-Copy-7"></line>
                                <line x1="27.85" y1="0.2" x2="27.85" y2="43.4" id="Line-5-Copy-30"></line>
                                <line x1="18.25" y1="0.2" x2="18.25" y2="43.4" id="Line-5-Copy-15"></line>
                                <line x1="37.45" y1="0.2" x2="37.45" y2="43.4" id="Line-5-Copy-31"></line>
                            </g>
                        </g>
                    </g>
                    <g id="Group-8-Copy" transform="translate(15.600000, 16.000000)">
                        <mask id="mask-12" fill="white">
                            <use xlink:href="#path-11"></use>
                        </mask>
                        <use id="Mask" fill="#E8EAF4" xlink:href="#path-11"></use>
                        <g id="Group-8" mask="url(#mask-12)" stroke="#DEE0ED" stroke-linecap="square">
                            <g transform="translate(3.508535, 18.708535) rotate(45.000000) translate(-3.508535, -18.708535) translate(-15.291465, -3.091465)">
                                <line x1="0.25" y1="0.2" x2="0.25" y2="43.4" id="Line-5"></line>
                                <line x1="19.45" y1="0.2" x2="19.45" y2="43.4" id="Line-5-Copy-16"></line>
                                <line x1="9.85" y1="0.2" x2="9.85" y2="43.4" id="Line-5-Copy-8"></line>
                                <line x1="29.05" y1="0.2" x2="29.05" y2="43.4" id="Line-5-Copy-17"></line>
                                <line x1="5.05" y1="0.2" x2="5.05" y2="43.4" id="Line-5-Copy-4"></line>
                                <line x1="24.25" y1="0.2" x2="24.25" y2="43.4" id="Line-5-Copy-18"></line>
                                <line x1="14.65" y1="0.2" x2="14.65" y2="43.4" id="Line-5-Copy-9"></line>
                                <line x1="33.85" y1="0.2" x2="33.85" y2="43.4" id="Line-5-Copy-19"></line>
                                <line x1="1.45" y1="0.2" x2="1.45" y2="43.4" id="Line-5-Copy"></line>
                                <line x1="20.65" y1="0.2" x2="20.65" y2="43.4" id="Line-5-Copy-20"></line>
                                <line x1="11.05" y1="0.2" x2="11.05" y2="43.4" id="Line-5-Copy-10"></line>
                                <line x1="30.25" y1="0.2" x2="30.25" y2="43.4" id="Line-5-Copy-21"></line>
                                <line x1="6.25" y1="0.2" x2="6.25" y2="43.4" id="Line-5-Copy-5"></line>
                                <line x1="25.45" y1="0.2" x2="25.45" y2="43.4" id="Line-5-Copy-22"></line>
                                <line x1="15.85" y1="0.2" x2="15.85" y2="43.4" id="Line-5-Copy-11"></line>
                                <line x1="35.05" y1="0.2" x2="35.05" y2="43.4" id="Line-5-Copy-23"></line>
                                <line x1="2.65" y1="0.2" x2="2.65" y2="43.4" id="Line-5-Copy-2"></line>
                                <line x1="21.85" y1="0.2" x2="21.85" y2="43.4" id="Line-5-Copy-24"></line>
                                <line x1="12.25" y1="0.2" x2="12.25" y2="43.4" id="Line-5-Copy-12"></line>
                                <line x1="31.45" y1="0.2" x2="31.45" y2="43.4" id="Line-5-Copy-25"></line>
                                <line x1="7.45" y1="0.2" x2="7.45" y2="43.4" id="Line-5-Copy-6"></line>
                                <line x1="26.65" y1="0.2" x2="26.65" y2="43.4" id="Line-5-Copy-26"></line>
                                <line x1="17.05" y1="0.2" x2="17.05" y2="43.4" id="Line-5-Copy-13"></line>
                                <line x1="36.25" y1="0.2" x2="36.25" y2="43.4" id="Line-5-Copy-27"></line>
                                <line x1="3.85" y1="0.2" x2="3.85" y2="43.4" id="Line-5-Copy-3"></line>
                                <line x1="23.05" y1="0.2" x2="23.05" y2="43.4" id="Line-5-Copy-28"></line>
                                <line x1="13.45" y1="0.2" x2="13.45" y2="43.4" id="Line-5-Copy-14"></line>
                                <line x1="32.65" y1="0.2" x2="32.65" y2="43.4" id="Line-5-Copy-29"></line>
                                <line x1="8.65" y1="0.2" x2="8.65" y2="43.4" id="Line-5-Copy-7"></line>
                                <line x1="27.85" y1="0.2" x2="27.85" y2="43.4" id="Line-5-Copy-30"></line>
                                <line x1="18.25" y1="0.2" x2="18.25" y2="43.4" id="Line-5-Copy-15"></line>
                                <line x1="37.45" y1="0.2" x2="37.45" y2="43.4" id="Line-5-Copy-31"></line>
                            </g>
                        </g>
                    </g>
                    <polyline id="Path-5" stroke="#CFD5F1" stroke-width="2" points="8 38.8 19.3077235 24.7178506 30.5115865 38.8 41.6188519 19.0836171 52.969427 28.9418085 65.6 15.2"></polyline>
                    <circle id="Oval-10" fill="#6776C4" cx="8" cy="38.8" r="2.8"></circle>
                    <circle id="Oval-10-Copy-2" fill="#6776C4" cx="19.2" cy="24.8" r="2.8"></circle>
                    <circle id="Oval-10-Copy-3" fill="#6776C4" cx="30.4" cy="38.8" r="2.8"></circle>
                    <circle id="Oval-10-Copy-4" fill="#6776C4" cx="41.6" cy="19.2" r="2.8"></circle>
                    <circle id="Oval-10-Copy-5" fill="#6776C4" cx="52.8" cy="28.8" r="2.8"></circle>
                    <circle id="Oval-10-Copy-6" fill="#6776C4" cx="65.6" cy="15.2" r="2.8"></circle>
                    <rect id="Rectangle-21-Copy-14" fill="#F9FAFF" x="3.2" y="3.6" width="3.2" height="3.2" rx="1.6"></rect>
                    <rect id="Rectangle-21-Copy-19" fill="#F9FAFF" x="8.8" y="3.6" width="3.2" height="3.2" rx="1.6"></rect>
                    <rect id="Rectangle-21-Copy-18" fill="#F9FAFF" x="14.4" y="3.6" width="19.2" height="3.2" rx="1.6"></rect>
                    <g id="Group-9-Copy" transform="translate(29.200000, 6.800000)">
                        <g id="Group-7" transform="translate(25.314423, 25.314423) rotate(-45.000000) translate(-25.314423, -25.314423) translate(11.714423, 3.114423)">
                            <rect id="Rectangle-25" fill="#6776C4" x="12.4" y="26.4" width="2.4" height="4.8"></rect>
                            <rect id="Rectangle-25-Copy" fill="#2A2E76" x="10.8" y="30.8" width="5.6" height="13.6" rx="2"></rect>
                            <circle id="Oval-11" fill="#3D42A3" cx="13.6" cy="13.6" r="13.6"></circle>
                            <circle id="Oval-11" fill="#FFBA1C" cx="13.6" cy="13.6" r="10"></circle>
                        </g>
                        <g id="189" transform="translate(9.200000, 9.210765)">
                            <mask id="mask-14" fill="white">
                                <use xlink:href="#path-13"></use>
                            </mask>
                            <use id="Mask" fill="#FFBA1C" xlink:href="#path-13"></use>
                            <g id="编组" mask="url(#mask-14)" fill="#FFFFFF" fill-rule="nonzero">
                                <g transform="translate(3.200000, 4.389235)" id="形状">
                                    <path d="M9.38663793,9.32282686 C9.24985633,9.26420617 9.16192529,9.13719467 9.14238505,9.00041307 C9.1228448,8.86363147 9.20100574,8.71707974 9.31824712,8.63891883 C10.7144155,7.73872691 11.5287349,6.16586328 11.4579023,4.50616021 C11.3602011,2.07340159 9.38663793,0.109608485 6.96364943,0.0119073276 C4.85132367,-0.0755041846 2.9437378,1.26701948 2.31307471,3.28489583 C1.67801724,5.2975395 2.45962643,7.48604526 4.23778736,8.63891883 C4.36479887,8.71707974 4.43318966,8.85386137 4.41364943,9.00041307 C4.40306225,9.14669524 4.30735054,9.27303469 4.16939655,9.32282686 C2.00043103,10.2216774 0.437212636,12.1561602 0.0268678085,14.4619073 C-0.0219827586,14.7452407 0.0561781533,15.0383441 0.241810345,15.2630568 C0.427442536,15.4877694 0.701005739,15.6147809 0.994109188,15.6050108 L12.5521552,15.6050108 C12.8452586,15.6050108 13.1188218,15.4779993 13.304454,15.2630568 C13.4900862,15.0383441 13.5682471,14.7550108 13.5193966,14.4619073 C13.1132392,12.1539699 11.5536955,10.2146792 9.38663793,9.32282686 L9.38663793,9.32282686 Z M8.17514367,13.7096085 L6.96364943,15.0481142 C6.92456897,15.0969648 6.85617818,15.116505 6.77801724,15.116505 C6.69985631,15.116505 6.64123564,15.0871947 6.59238505,15.0481142 L5.38089081,13.7096085 C5.31321351,13.6394131 5.29398709,13.5355905 5.33204022,13.4458154 L6.54353448,10.4561602 L6.31882185,10.4561602 C6.25043103,10.4561602 6.19181034,10.4268499 6.17227012,10.3779993 L5.99640805,9.91880388 C5.97686783,9.88949353 5.98663793,9.85041307 6.00617815,9.82110272 C6.03523159,9.79405983 6.07401158,9.77995802 6.11364943,9.78202228 L7.42284483,9.78202228 C7.47169539,9.78202228 7.51077586,9.8015625 7.53031608,9.82110272 C7.55962643,9.85041307 7.55962643,9.87972341 7.54008621,9.91880388 L7.36422414,10.3779993 C7.34468392,10.4268498 7.2762931,10.4561602 7.21767241,10.4561602 L6.99295978,10.4561602 L8.20445402,13.4458154 C8.26307471,13.5337464 8.24353448,13.6314476 8.17514367,13.7096085 L8.17514367,13.7096085 Z"></path>
                                </g>
                            </g>
                        </g>
                    </g>
                </g>
            </g>
        </g>
    </g>
</svg>