<?xml version="1.0" encoding="UTF-8"?>
<svg width="74px" height="53px" viewBox="0 0 74 53" version="1.1" xmlns="http://www.w3.org/2000/svg" xmlns:xlink="http://www.w3.org/1999/xlink">
    <!-- Generator: Sketch 63.1 (92452) - https://sketch.com -->
    <title>Group 2</title>
    <desc>Created with Sketch.</desc>
    <defs>
        <rect id="path-1" x="0.748559657" y="0.950469674" width="7" height="45" rx="1"></rect>
        <path d="M1.84855966,0.450469674 L6.84855966,0.450469674 C7.40084441,0.450469674 7.84855966,0.898184924 7.84855966,1.45046967 L7.84855966,33.4504697 C7.84855966,34.0027544 7.40084441,34.4504697 6.84855966,34.4504697 L1.84855966,34.4504697 C1.29627491,34.4504697 0.848559657,34.0027544 0.848559657,33.4504697 L0.848559657,1.45046967 C0.848559657,0.898184924 1.29627491,0.450469674 1.84855966,0.450469674 Z" id="path-3"></path>
        <path d="M1.14855966,0.950469674 L6.14855966,0.950469674 C6.70084441,0.950469674 7.14855966,1.39818492 7.14855966,1.95046967 L7.14855966,46.9504697 C7.14855966,47.5027544 6.70084441,47.9504697 6.14855966,47.9504697 L1.14855966,47.9504697 C0.596274907,47.9504697 0.148559657,47.5027544 0.148559657,46.9504697 L0.148559657,1.95046967 C0.148559657,1.39818492 0.596274907,0.950469674 1.14855966,0.950469674 Z" id="path-5"></path>
        <path d="M1.54855966,0.950469674 L6.54855966,0.950469674 C7.10084441,0.950469674 7.54855966,1.39818492 7.54855966,1.95046967 L7.54855966,64.9504697 C7.54855966,65.5027544 7.10084441,65.9504697 6.54855966,65.9504697 L1.54855966,65.9504697 C0.996274907,65.9504697 0.548559657,65.5027544 0.548559657,64.9504697 L0.548559657,1.95046967 C0.548559657,1.39818492 0.996274907,0.950469674 1.54855966,0.950469674 Z" id="path-7"></path>
        <circle id="path-9" cx="10" cy="10" r="10"></circle>
    </defs>
    <g id="页面-1" stroke="none" stroke-width="1" fill="none" fill-rule="evenodd">
        <g id="团队绩效-质量分析-缺省页" transform="translate(-448.000000, -445.000000)">
            <g id="编组-3" transform="translate(446.000000, 445.000000)">
                <g id="Group-2" transform="translate(2.000000, 0.000000)">
                    <rect id="Rectangle-7-Copy-13" fill="#DEE0ED" x="0" y="0" width="73.6" height="52.8" rx="4"></rect>
                    <path d="M0,9.6 L73.6,9.6 L73.6,48.8 C73.6,51.009139 71.809139,52.8 69.6,52.8 L4,52.8 C1.790861,52.8 2.705415e-16,51.009139 0,48.8 L0,9.6 L0,9.6 Z" id="Rectangle-7-Copy-13" fill="#F2F4FD"></path>
                    <g id="Group-8" transform="translate(26.000000, 16.000000) rotate(-270.000000) translate(-26.000000, -16.000000) translate(22.000000, -7.000000)">
                        <mask id="mask-2" fill="white">
                            <use xlink:href="#path-1"></use>
                        </mask>
                        <use id="Mask" fill="#E8EAF4" xlink:href="#path-1"></use>
                        <g mask="url(#mask-2)" stroke="#DEE0ED" stroke-linecap="square">
                            <g transform="translate(8.454142, 19.792985) rotate(45.000000) translate(-8.454142, -19.792985) translate(-10.545858, -19.207015)">
                                <line x1="0.25" y1="0.353846154" x2="0.25" y2="76.7846154" id="Line-5"></line>
                                <line x1="19.45" y1="0.353846154" x2="19.45" y2="76.7846154" id="Line-5-Copy-16"></line>
                                <line x1="9.85" y1="0.353846154" x2="9.85" y2="76.7846154" id="Line-5-Copy-8"></line>
                                <line x1="29.05" y1="0.353846154" x2="29.05" y2="76.7846154" id="Line-5-Copy-17"></line>
                                <line x1="5.05" y1="0.353846154" x2="5.05" y2="76.7846154" id="Line-5-Copy-4"></line>
                                <line x1="24.25" y1="0.353846154" x2="24.25" y2="76.7846154" id="Line-5-Copy-18"></line>
                                <line x1="14.65" y1="0.353846154" x2="14.65" y2="76.7846154" id="Line-5-Copy-9"></line>
                                <line x1="33.85" y1="0.353846154" x2="33.85" y2="76.7846154" id="Line-5-Copy-19"></line>
                                <line x1="1.45" y1="0.353846154" x2="1.45" y2="76.7846154" id="Line-5-Copy"></line>
                                <line x1="20.65" y1="0.353846154" x2="20.65" y2="76.7846154" id="Line-5-Copy-20"></line>
                                <line x1="11.05" y1="0.353846154" x2="11.05" y2="76.7846154" id="Line-5-Copy-10"></line>
                                <line x1="30.25" y1="0.353846154" x2="30.25" y2="76.7846154" id="Line-5-Copy-21"></line>
                                <line x1="6.25" y1="0.353846154" x2="6.25" y2="76.7846154" id="Line-5-Copy-5"></line>
                                <line x1="25.45" y1="0.353846154" x2="25.45" y2="76.7846154" id="Line-5-Copy-22"></line>
                                <line x1="15.85" y1="0.353846154" x2="15.85" y2="76.7846154" id="Line-5-Copy-11"></line>
                                <line x1="35.05" y1="0.353846154" x2="35.05" y2="76.7846154" id="Line-5-Copy-23"></line>
                                <line x1="2.65" y1="0.353846154" x2="2.65" y2="76.7846154" id="Line-5-Copy-2"></line>
                                <line x1="21.85" y1="0.353846154" x2="21.85" y2="76.7846154" id="Line-5-Copy-24"></line>
                                <line x1="12.25" y1="0.353846154" x2="12.25" y2="76.7846154" id="Line-5-Copy-12"></line>
                                <line x1="31.45" y1="0.353846154" x2="31.45" y2="76.7846154" id="Line-5-Copy-25"></line>
                                <line x1="7.45" y1="0.353846154" x2="7.45" y2="76.7846154" id="Line-5-Copy-6"></line>
                                <line x1="26.65" y1="0.353846154" x2="26.65" y2="76.7846154" id="Line-5-Copy-26"></line>
                                <line x1="17.05" y1="0.353846154" x2="17.05" y2="76.7846154" id="Line-5-Copy-13"></line>
                                <line x1="36.25" y1="0.353846154" x2="36.25" y2="76.7846154" id="Line-5-Copy-27"></line>
                                <line x1="3.85" y1="0.353846154" x2="3.85" y2="76.7846154" id="Line-5-Copy-3"></line>
                                <line x1="23.05" y1="0.353846154" x2="23.05" y2="76.7846154" id="Line-5-Copy-28"></line>
                                <line x1="13.45" y1="0.353846154" x2="13.45" y2="76.7846154" id="Line-5-Copy-14"></line>
                                <line x1="32.65" y1="0.353846154" x2="32.65" y2="76.7846154" id="Line-5-Copy-29"></line>
                                <line x1="8.65" y1="0.353846154" x2="8.65" y2="76.7846154" id="Line-5-Copy-7"></line>
                                <line x1="27.85" y1="0.353846154" x2="27.85" y2="76.7846154" id="Line-5-Copy-30"></line>
                                <line x1="18.25" y1="0.353846154" x2="18.25" y2="76.7846154" id="Line-5-Copy-15"></line>
                                <line x1="37.45" y1="0.353846154" x2="37.45" y2="76.7846154" id="Line-5-Copy-31"></line>
                            </g>
                        </g>
                    </g>
                    <g id="Group-8-Copy-2" transform="translate(20.100000, 36.400000) rotate(-270.000000) translate(-20.100000, -36.400000) translate(16.100000, 18.900000)">
                        <mask id="mask-4" fill="white">
                            <use xlink:href="#path-3"></use>
                        </mask>
                        <use id="Mask" fill="#E8EAF4" xlink:href="#path-3"></use>
                        <g id="Group-8" mask="url(#mask-4)" stroke="#DEE0ED" stroke-linecap="square">
                            <g transform="translate(8.370060, 19.384349) rotate(45.000000) translate(-8.370060, -19.384349) translate(-10.629940, -19.615651)">
                                <line x1="0.25" y1="0.354166667" x2="0.25" y2="76.8541667" id="Line-5"></line>
                                <line x1="19.45" y1="0.354166667" x2="19.45" y2="76.8541667" id="Line-5-Copy-16"></line>
                                <line x1="9.85" y1="0.354166667" x2="9.85" y2="76.8541667" id="Line-5-Copy-8"></line>
                                <line x1="29.05" y1="0.354166667" x2="29.05" y2="76.8541667" id="Line-5-Copy-17"></line>
                                <line x1="5.05" y1="0.354166667" x2="5.05" y2="76.8541667" id="Line-5-Copy-4"></line>
                                <line x1="24.25" y1="0.354166667" x2="24.25" y2="76.8541667" id="Line-5-Copy-18"></line>
                                <line x1="14.65" y1="0.354166667" x2="14.65" y2="76.8541667" id="Line-5-Copy-9"></line>
                                <line x1="33.85" y1="0.354166667" x2="33.85" y2="76.8541667" id="Line-5-Copy-19"></line>
                                <line x1="1.45" y1="0.354166667" x2="1.45" y2="76.8541667" id="Line-5-Copy"></line>
                                <line x1="20.65" y1="0.354166667" x2="20.65" y2="76.8541667" id="Line-5-Copy-20"></line>
                                <line x1="11.05" y1="0.354166667" x2="11.05" y2="76.8541667" id="Line-5-Copy-10"></line>
                                <line x1="30.25" y1="0.354166667" x2="30.25" y2="76.8541667" id="Line-5-Copy-21"></line>
                                <line x1="6.25" y1="0.354166667" x2="6.25" y2="76.8541667" id="Line-5-Copy-5"></line>
                                <line x1="25.45" y1="0.354166667" x2="25.45" y2="76.8541667" id="Line-5-Copy-22"></line>
                                <line x1="15.85" y1="0.354166667" x2="15.85" y2="76.8541667" id="Line-5-Copy-11"></line>
                                <line x1="35.05" y1="0.354166667" x2="35.05" y2="76.8541667" id="Line-5-Copy-23"></line>
                                <line x1="2.65" y1="0.354166667" x2="2.65" y2="76.8541667" id="Line-5-Copy-2"></line>
                                <line x1="21.85" y1="0.354166667" x2="21.85" y2="76.8541667" id="Line-5-Copy-24"></line>
                                <line x1="12.25" y1="0.354166667" x2="12.25" y2="76.8541667" id="Line-5-Copy-12"></line>
                                <line x1="31.45" y1="0.354166667" x2="31.45" y2="76.8541667" id="Line-5-Copy-25"></line>
                                <line x1="7.45" y1="0.354166667" x2="7.45" y2="76.8541667" id="Line-5-Copy-6"></line>
                                <line x1="26.65" y1="0.354166667" x2="26.65" y2="76.8541667" id="Line-5-Copy-26"></line>
                                <line x1="17.05" y1="0.354166667" x2="17.05" y2="76.8541667" id="Line-5-Copy-13"></line>
                                <line x1="36.25" y1="0.354166667" x2="36.25" y2="76.8541667" id="Line-5-Copy-27"></line>
                                <line x1="3.85" y1="0.354166667" x2="3.85" y2="76.8541667" id="Line-5-Copy-3"></line>
                                <line x1="23.05" y1="0.354166667" x2="23.05" y2="76.8541667" id="Line-5-Copy-28"></line>
                                <line x1="13.45" y1="0.354166667" x2="13.45" y2="76.8541667" id="Line-5-Copy-14"></line>
                                <line x1="32.65" y1="0.354166667" x2="32.65" y2="76.8541667" id="Line-5-Copy-29"></line>
                                <line x1="8.65" y1="0.354166667" x2="8.65" y2="76.8541667" id="Line-5-Copy-7"></line>
                                <line x1="27.85" y1="0.354166667" x2="27.85" y2="76.8541667" id="Line-5-Copy-30"></line>
                                <line x1="18.25" y1="0.354166667" x2="18.25" y2="76.8541667" id="Line-5-Copy-15"></line>
                                <line x1="37.45" y1="0.354166667" x2="37.45" y2="76.8541667" id="Line-5-Copy-31"></line>
                            </g>
                        </g>
                    </g>
                    <g id="Group-8-Copy-3" transform="translate(26.950470, 46.851440) rotate(-270.000000) translate(-26.950470, -46.851440) translate(22.950470, 22.851440)">
                        <mask id="mask-6" fill="white">
                            <use xlink:href="#path-5"></use>
                        </mask>
                        <use id="Mask" fill="#E8EAF4" xlink:href="#path-5"></use>
                        <g id="Group-8" mask="url(#mask-6)" stroke="#DEE0ED" stroke-linecap="square">
                            <g transform="translate(7.459988, 20.111284) rotate(45.000000) translate(-7.459988, -20.111284) translate(-11.540012, -18.388716)">
                                <line x1="0.25" y1="0.350746269" x2="0.25" y2="76.1119403" id="Line-5"></line>
                                <line x1="19.45" y1="0.350746269" x2="19.45" y2="76.1119403" id="Line-5-Copy-16"></line>
                                <line x1="9.85" y1="0.350746269" x2="9.85" y2="76.1119403" id="Line-5-Copy-8"></line>
                                <line x1="29.05" y1="0.350746269" x2="29.05" y2="76.1119403" id="Line-5-Copy-17"></line>
                                <line x1="5.05" y1="0.350746269" x2="5.05" y2="76.1119403" id="Line-5-Copy-4"></line>
                                <line x1="24.25" y1="0.350746269" x2="24.25" y2="76.1119403" id="Line-5-Copy-18"></line>
                                <line x1="14.65" y1="0.350746269" x2="14.65" y2="76.1119403" id="Line-5-Copy-9"></line>
                                <line x1="33.85" y1="0.350746269" x2="33.85" y2="76.1119403" id="Line-5-Copy-19"></line>
                                <line x1="1.45" y1="0.350746269" x2="1.45" y2="76.1119403" id="Line-5-Copy"></line>
                                <line x1="20.65" y1="0.350746269" x2="20.65" y2="76.1119403" id="Line-5-Copy-20"></line>
                                <line x1="11.05" y1="0.350746269" x2="11.05" y2="76.1119403" id="Line-5-Copy-10"></line>
                                <line x1="30.25" y1="0.350746269" x2="30.25" y2="76.1119403" id="Line-5-Copy-21"></line>
                                <line x1="6.25" y1="0.350746269" x2="6.25" y2="76.1119403" id="Line-5-Copy-5"></line>
                                <line x1="25.45" y1="0.350746269" x2="25.45" y2="76.1119403" id="Line-5-Copy-22"></line>
                                <line x1="15.85" y1="0.350746269" x2="15.85" y2="76.1119403" id="Line-5-Copy-11"></line>
                                <line x1="35.05" y1="0.350746269" x2="35.05" y2="76.1119403" id="Line-5-Copy-23"></line>
                                <line x1="2.65" y1="0.350746269" x2="2.65" y2="76.1119403" id="Line-5-Copy-2"></line>
                                <line x1="21.85" y1="0.350746269" x2="21.85" y2="76.1119403" id="Line-5-Copy-24"></line>
                                <line x1="12.25" y1="0.350746269" x2="12.25" y2="76.1119403" id="Line-5-Copy-12"></line>
                                <line x1="31.45" y1="0.350746269" x2="31.45" y2="76.1119403" id="Line-5-Copy-25"></line>
                                <line x1="7.45" y1="0.350746269" x2="7.45" y2="76.1119403" id="Line-5-Copy-6"></line>
                                <line x1="26.65" y1="0.350746269" x2="26.65" y2="76.1119403" id="Line-5-Copy-26"></line>
                                <line x1="17.05" y1="0.350746269" x2="17.05" y2="76.1119403" id="Line-5-Copy-13"></line>
                                <line x1="36.25" y1="0.350746269" x2="36.25" y2="76.1119403" id="Line-5-Copy-27"></line>
                                <line x1="3.85" y1="0.350746269" x2="3.85" y2="76.1119403" id="Line-5-Copy-3"></line>
                                <line x1="23.05" y1="0.350746269" x2="23.05" y2="76.1119403" id="Line-5-Copy-28"></line>
                                <line x1="13.45" y1="0.350746269" x2="13.45" y2="76.1119403" id="Line-5-Copy-14"></line>
                                <line x1="32.65" y1="0.350746269" x2="32.65" y2="76.1119403" id="Line-5-Copy-29"></line>
                                <line x1="8.65" y1="0.350746269" x2="8.65" y2="76.1119403" id="Line-5-Copy-7"></line>
                                <line x1="27.85" y1="0.350746269" x2="27.85" y2="76.1119403" id="Line-5-Copy-30"></line>
                                <line x1="18.25" y1="0.350746269" x2="18.25" y2="76.1119403" id="Line-5-Copy-15"></line>
                                <line x1="37.45" y1="0.350746269" x2="37.45" y2="76.1119403" id="Line-5-Copy-31"></line>
                            </g>
                        </g>
                    </g>
                    <g id="Group-8-Copy" transform="translate(35.950470, 26.451440) rotate(-270.000000) translate(-35.950470, -26.451440) translate(31.950470, -6.548560)">
                        <mask id="mask-8" fill="white">
                            <use xlink:href="#path-7"></use>
                        </mask>
                        <use id="Mask" fill="#E8EAF4" xlink:href="#path-7"></use>
                        <g id="Group-8" mask="url(#mask-8)" stroke="#DEE0ED" stroke-linecap="square">
                            <g transform="translate(4.360906, 34.182546) rotate(45.000000) translate(-4.360906, -34.182546) translate(-20.139094, -11.817454)">
                                <line x1="5.25" y1="8.35326087" x2="5.25" y2="84.6576087" id="Line-5"></line>
                                <line x1="24.45" y1="8.35326087" x2="24.45" y2="84.6576087" id="Line-5-Copy-16"></line>
                                <line x1="14.85" y1="8.35326087" x2="14.85" y2="84.6576087" id="Line-5-Copy-8"></line>
                                <line x1="34.05" y1="8.35326087" x2="34.05" y2="84.6576087" id="Line-5-Copy-17"></line>
                                <line x1="10.05" y1="8.35326087" x2="10.05" y2="84.6576087" id="Line-5-Copy-4"></line>
                                <line x1="29.25" y1="8.35326087" x2="29.25" y2="84.6576087" id="Line-5-Copy-18"></line>
                                <line x1="19.65" y1="8.35326087" x2="19.65" y2="84.6576087" id="Line-5-Copy-9"></line>
                                <line x1="38.85" y1="8.35326087" x2="38.85" y2="84.6576087" id="Line-5-Copy-19"></line>
                                <line x1="6.45" y1="8.35326087" x2="6.45" y2="84.6576087" id="Line-5-Copy"></line>
                                <line x1="3.62157288" y1="5.52483374" x2="3.62157288" y2="81.8291816" id="Line-5-Copy"></line>
                                <line x1="2.20735931" y1="2.69640662" x2="2.20735931" y2="79.0007544" id="Line-5-Copy"></line>
                                <line x1="0.793145751" y1="1.28219306" x2="0.793145751" y2="77.5865409" id="Line-5-Copy"></line>
                                <line x1="25.65" y1="8.35326087" x2="25.65" y2="84.6576087" id="Line-5-Copy-20"></line>
                                <line x1="16.05" y1="8.35326087" x2="16.05" y2="84.6576087" id="Line-5-Copy-10"></line>
                                <line x1="35.25" y1="8.35326087" x2="35.25" y2="84.6576087" id="Line-5-Copy-21"></line>
                                <line x1="11.25" y1="8.35326087" x2="11.25" y2="84.6576087" id="Line-5-Copy-5"></line>
                                <line x1="30.45" y1="8.35326087" x2="30.45" y2="84.6576087" id="Line-5-Copy-22"></line>
                                <line x1="20.85" y1="8.35326087" x2="20.85" y2="84.6576087" id="Line-5-Copy-11"></line>
                                <line x1="40.05" y1="8.35326087" x2="40.05" y2="84.6576087" id="Line-5-Copy-23"></line>
                                <line x1="7.65" y1="8.35326087" x2="7.65" y2="84.6576087" id="Line-5-Copy-2"></line>
                                <line x1="26.85" y1="8.35326087" x2="26.85" y2="84.6576087" id="Line-5-Copy-24"></line>
                                <line x1="17.25" y1="8.35326087" x2="17.25" y2="84.6576087" id="Line-5-Copy-12"></line>
                                <line x1="36.45" y1="8.35326087" x2="36.45" y2="84.6576087" id="Line-5-Copy-25"></line>
                                <line x1="12.45" y1="8.35326087" x2="12.45" y2="84.6576087" id="Line-5-Copy-6"></line>
                                <line x1="31.65" y1="8.35326087" x2="31.65" y2="84.6576087" id="Line-5-Copy-26"></line>
                                <line x1="22.05" y1="8.35326087" x2="22.05" y2="84.6576087" id="Line-5-Copy-13"></line>
                                <line x1="41.25" y1="8.35326087" x2="41.25" y2="84.6576087" id="Line-5-Copy-27"></line>
                                <line x1="8.85" y1="8.35326087" x2="8.85" y2="84.6576087" id="Line-5-Copy-3"></line>
                                <line x1="28.05" y1="8.35326087" x2="28.05" y2="84.6576087" id="Line-5-Copy-28"></line>
                                <line x1="18.45" y1="8.35326087" x2="18.45" y2="84.6576087" id="Line-5-Copy-14"></line>
                                <line x1="37.65" y1="8.35326087" x2="37.65" y2="84.6576087" id="Line-5-Copy-29"></line>
                                <line x1="13.65" y1="8.35326087" x2="13.65" y2="84.6576087" id="Line-5-Copy-7"></line>
                                <line x1="32.85" y1="8.35326087" x2="32.85" y2="84.6576087" id="Line-5-Copy-30"></line>
                                <line x1="23.25" y1="8.35326087" x2="23.25" y2="84.6576087" id="Line-5-Copy-15"></line>
                                <line x1="42.45" y1="8.35326087" x2="42.45" y2="84.6576087" id="Line-5-Copy-31"></line>
                                <line x1="43.7647818" y1="9.6680427" x2="43.7647818" y2="85.9723905" id="Line-5-Copy-31备份"></line>
                                <line x1="45.1789954" y1="11.0822563" x2="45.1789954" y2="87.3866041" id="Line-5-Copy-31备份-3"></line>
                                <line x1="48.7145293" y1="14.6177902" x2="48.7145293" y2="90.922138" id="Line-5-Copy-31备份-4"></line>
                                <line x1="47.4036086" y1="13.1002838" x2="47.4036086" y2="89.4046316" id="Line-5-Copy-31备份-2"></line>
                                <line x1="46.6965018" y1="12.393177" x2="46.6965018" y2="88.6975248" id="Line-5-Copy-31备份-5"></line>
                            </g>
                        </g>
                    </g>
                    <circle id="Oval-10-Copy-4" fill="#6776C4" cx="41.6" cy="19.2" r="2.8"></circle>
                    <circle id="Oval-10-Copy-5" fill="#6776C4" cx="52.8" cy="28.8" r="2.8"></circle>
                    <rect id="Rectangle-21-Copy-14" fill="#F9FAFF" x="3.2" y="3.6" width="3.2" height="3.2" rx="1.6"></rect>
                    <rect id="Rectangle-21-Copy-19" fill="#F9FAFF" x="8.8" y="3.6" width="3.2" height="3.2" rx="1.6"></rect>
                    <rect id="Rectangle-21-Copy-18" fill="#F9FAFF" x="14.4" y="3.6" width="19.2" height="3.2" rx="1.6"></rect>
                    <g id="Group-9-Copy" transform="translate(29.200000, 6.800000)">
                        <g id="Group-7" transform="translate(25.314423, 25.314423) rotate(-45.000000) translate(-25.314423, -25.314423) translate(11.714423, 3.114423)">
                            <rect id="Rectangle-25" fill="#6776C4" x="12.4" y="26.4" width="2.4" height="4.8"></rect>
                            <rect id="Rectangle-25-Copy" fill="#2A2E76" x="10.8" y="30.8" width="5.6" height="13.6" rx="2"></rect>
                            <circle id="Oval-11" fill="#3D42A3" cx="13.6" cy="13.6" r="13.6"></circle>
                            <circle id="Oval-11" fill="#FFBA1C" cx="13.6" cy="13.6" r="10"></circle>
                        </g>
                        <g id="189" transform="translate(9.200000, 9.210765)">
                            <mask id="mask-10" fill="white">
                                <use xlink:href="#path-9"></use>
                            </mask>
                            <use id="Mask" fill="#FFBA1C" xlink:href="#path-9"></use>
                            <g id="编组" mask="url(#mask-10)" fill="#FFFFFF" fill-rule="nonzero">
                                <g transform="translate(3.200000, 4.389235)" id="形状">
                                    <path d="M9.38663793,9.32282686 C9.24985633,9.26420617 9.16192529,9.13719467 9.14238505,9.00041307 C9.1228448,8.86363147 9.20100574,8.71707974 9.31824712,8.63891883 C10.7144155,7.73872691 11.5287349,6.16586328 11.4579023,4.50616021 C11.3602011,2.07340159 9.38663793,0.109608485 6.96364943,0.0119073276 C4.85132367,-0.0755041846 2.9437378,1.26701948 2.31307471,3.28489583 C1.67801724,5.2975395 2.45962643,7.48604526 4.23778736,8.63891883 C4.36479887,8.71707974 4.43318966,8.85386137 4.41364943,9.00041307 C4.40306225,9.14669524 4.30735054,9.27303469 4.16939655,9.32282686 C2.00043103,10.2216774 0.437212636,12.1561602 0.0268678085,14.4619073 C-0.0219827586,14.7452407 0.0561781533,15.0383441 0.241810345,15.2630568 C0.427442536,15.4877694 0.701005739,15.6147809 0.994109188,15.6050108 L12.5521552,15.6050108 C12.8452586,15.6050108 13.1188218,15.4779993 13.304454,15.2630568 C13.4900862,15.0383441 13.5682471,14.7550108 13.5193966,14.4619073 C13.1132392,12.1539699 11.5536955,10.2146792 9.38663793,9.32282686 L9.38663793,9.32282686 Z M8.17514367,13.7096085 L6.96364943,15.0481142 C6.92456897,15.0969648 6.85617818,15.116505 6.77801724,15.116505 C6.69985631,15.116505 6.64123564,15.0871947 6.59238505,15.0481142 L5.38089081,13.7096085 C5.31321351,13.6394131 5.29398709,13.5355905 5.33204022,13.4458154 L6.54353448,10.4561602 L6.31882185,10.4561602 C6.25043103,10.4561602 6.19181034,10.4268499 6.17227012,10.3779993 L5.99640805,9.91880388 C5.97686783,9.88949353 5.98663793,9.85041307 6.00617815,9.82110272 C6.03523159,9.79405983 6.07401158,9.77995802 6.11364943,9.78202228 L7.42284483,9.78202228 C7.47169539,9.78202228 7.51077586,9.8015625 7.53031608,9.82110272 C7.55962643,9.85041307 7.55962643,9.87972341 7.54008621,9.91880388 L7.36422414,10.3779993 C7.34468392,10.4268498 7.2762931,10.4561602 7.21767241,10.4561602 L6.99295978,10.4561602 L8.20445402,13.4458154 C8.26307471,13.5337464 8.24353448,13.6314476 8.17514367,13.7096085 L8.17514367,13.7096085 Z"></path>
                                </g>
                            </g>
                        </g>
                    </g>
                </g>
            </g>
        </g>
    </g>
</svg>