<?xml version="1.0" encoding="UTF-8"?>
<svg width="13px" height="13px" viewBox="0 0 13 13" version="1.1" xmlns="http://www.w3.org/2000/svg" xmlns:xlink="http://www.w3.org/1999/xlink">
    <!-- Generator: Sketch 63.1 (92452) - https://sketch.com -->
    <title>第一名</title>
    <desc>Created with Sketch.</desc>
    <defs>
        <linearGradient x1="50%" y1="0%" x2="50%" y2="100%" id="linearGradient-1">
            <stop stop-color="#FFB700" offset="0%"></stop>
            <stop stop-color="#FF8900" offset="100%"></stop>
        </linearGradient>
    </defs>
    <g id="页面-1" stroke="none" stroke-width="1" fill="none" fill-rule="evenodd">
        <g id="团队绩效-质量分析" transform="translate(-331.000000, -247.000000)" fill="url(#linearGradient-1)" fill-rule="nonzero">
            <g id="排行榜" transform="translate(298.000000, 244.000000)">
                <g id="项目成员">
                    <g id="第一名" transform="translate(39.773934, 9.197214) rotate(-35.000000) translate(-39.773934, -9.197214) translate(32.273934, 3.697214)">
                        <path d="M12.7259435,3.01553015 C11.9994243,3.01553015 11.4097459,3.60574102 11.4097459,4.33172775 C11.4097459,4.50499727 11.4436603,4.66999897 11.5037832,4.82114205 L9.43546427,5.64786619 L8.04935245,2.87565735 C8.49590895,2.6538126 8.77804883,2.19794325 8.77739505,1.69931776 C8.77739505,0.973404983 8.18762789,0.383120162 7.46119745,0.383120162 C6.73466347,0.383120162 6.14505901,0.973404983 6.14505901,1.69931776 C6.14505901,2.21448215 6.44114801,2.66180297 6.87308682,2.87565735 L5.48698979,5.64786619 L3.41810879,4.82115684 C3.48065065,4.66557025 3.51275929,4.49942876 3.51269339,4.33174254 C3.51269339,3.60581497 2.92300019,3.01553015 2.19649579,3.01553015 C1.46996182,3.01553015 0.880283401,3.60581497 0.880283401,4.33172775 C0.880283401,5.05923789 1.46997661,5.64794014 2.196481,5.64794014 C2.27055132,5.64794014 2.34460685,5.64279308 2.41601489,5.62945214 L3.11725729,9.79497572 C3.18359222,10.4530302 3.77531171,10.9126862 4.3676524,10.9126862 L10.4889548,10.9126862 C11.147024,10.9126862 11.6724825,10.4530302 11.8051524,9.79497572 L12.5064687,5.62946693 C12.5778768,5.64286703 12.6519471,5.64794014 12.7260026,5.64794014 C13.4524479,5.64794014 14.0422002,5.05923789 14.0422002,4.33174254 C14.0422002,3.60574102 13.4523739,3.01553015 12.7259287,3.01553015 L12.7259435,3.01553015 Z M8.72135423,9.88774111 L7.46118266,9.22520519 L6.20101109,9.88774111 L6.44168046,8.4845168 L5.42217826,7.49074989 L6.83106729,7.28605077 L7.46110871,6.00938791 L8.09123886,7.28606556 L9.50012789,7.49076469 L8.48062569,8.4845168 L8.72135423,9.88774111 L8.72135423,9.88774111 Z" id="形状"></path>
                    </g>
                </g>
            </g>
        </g>
    </g>
</svg>