<?xml version="1.0" encoding="UTF-8"?>
<svg width="13px" height="13px" viewBox="0 0 13 13" version="1.1" xmlns="http://www.w3.org/2000/svg" xmlns:xlink="http://www.w3.org/1999/xlink">
    <!-- Generator: Sketch 63.1 (92452) - https://sketch.com -->
    <title>第三名</title>
    <desc>Created with Sketch.</desc>
    <defs>
        <linearGradient x1="50%" y1="0%" x2="50%" y2="100%" id="linearGradient-1">
            <stop stop-color="#EFC96B" offset="0%"></stop>
            <stop stop-color="#DB9839" offset="100%"></stop>
        </linearGradient>
    </defs>
    <g id="页面-1" stroke="none" stroke-width="1" fill="none" fill-rule="evenodd">
        <g id="团队绩效-质量分析" transform="translate(-330.000000, -356.000000)" fill="url(#linearGradient-1)" fill-rule="nonzero">
            <g id="排行榜" transform="translate(298.000000, 244.000000)">
                <g id="项目成员">
                    <g id="第三名" transform="translate(38.831995, 118.467155) rotate(-35.000000) translate(-38.831995, -118.467155) translate(31.831995, 112.467155)">
                        <path d="M12.333215,3.26110576 C11.6066958,3.26110576 11.0170174,3.85131663 11.0170174,4.57730336 C11.0170174,4.75057288 11.0509318,4.91557457 11.1110548,5.06671766 L9.04273579,5.8934418 L7.65662397,3.12123296 C8.10318047,2.89938821 8.38532035,2.44351886 8.38466657,1.94489337 C8.38466657,1.21898059 7.79489941,0.62869577 7.06846897,0.62869577 C6.34193499,0.62869577 5.75233053,1.21898059 5.75233053,1.94489337 C5.75233053,2.46005775 6.04841952,2.90737858 6.48035833,3.12123296 L5.09426131,5.8934418 L3.02538031,5.06673245 C3.08792217,4.91114585 3.12003081,4.74500437 3.11996491,4.57731815 C3.11996491,3.85139058 2.53027171,3.26110576 1.80376731,3.26110576 C1.07723333,3.26110576 0.487554921,3.85139058 0.487554921,4.57730336 C0.487554921,5.3048135 1.07724813,5.89351575 1.80375252,5.89351575 C1.87782284,5.89351575 1.95187837,5.88836869 2.02328641,5.87502775 L2.7245288,10.0405513 C2.79086374,10.6986058 3.38258323,11.1582618 3.97492392,11.1582618 L10.0962263,11.1582618 C10.7542955,11.1582618 11.279754,10.6986058 11.4124239,10.0405513 L12.1137403,5.87504254 C12.1851483,5.88844264 12.2592186,5.89351575 12.3332742,5.89351575 C13.0597194,5.89351575 13.6494718,5.3048135 13.6494718,4.57731815 C13.6494718,3.85131663 13.0596454,3.26110576 12.3332002,3.26110576 L12.333215,3.26110576 Z M8.32862575,10.1333167 L7.06845418,9.47078079 L5.80828261,10.1333167 L6.04895198,8.73009241 L5.02944978,7.7363255 L6.43833881,7.53162638 L7.06838022,6.25496352 L7.69851038,7.53164117 L9.10739941,7.73634029 L8.08789721,8.73009241 L8.32862575,10.1333167 L8.32862575,10.1333167 Z" id="形状"></path>
                    </g>
                </g>
            </g>
        </g>
    </g>
</svg>