<?xml version="1.0" encoding="UTF-8"?>
<svg width="184px" height="133px" viewBox="0 0 184 133" version="1.1" xmlns="http://www.w3.org/2000/svg" xmlns:xlink="http://www.w3.org/1999/xlink">
    <!-- Generator: Sketch 63.1 (92452) - https://sketch.com -->
    <title>Group 2</title>
    <desc>Created with Sketch.</desc>
    <defs>
        <path d="M2,0.105862977 L16,0.105862977 C17.1045695,0.105862977 18,1.00129348 18,2.10586298 L18,63.105863 L18,63.105863 L0,63.105863 L0,2.10586298 C-1.3527075e-16,1.00129348 0.8954305,0.105862977 2,0.105862977 Z" id="path-1"></path>
        <path d="M2,0.105862977 L16,0.105862977 C17.1045695,0.105862977 18,1.00129348 18,2.10586298 L18,48 L18,48 L0,48 L0,2.10586298 C-1.3527075e-16,1.00129348 0.8954305,0.105862977 2,0.105862977 Z" id="path-3"></path>
        <path d="M2,0.105862977 L16,0.105862977 C17.1045695,0.105862977 18,1.00129348 18,2.10586298 L18,67 L18,67 L0,67 L0,2.10586298 C-1.3527075e-16,1.00129348 0.8954305,0.105862977 2,0.105862977 Z" id="path-5"></path>
        <path d="M2,0.105862977 L16,0.105862977 C17.1045695,0.105862977 18,1.00129348 18,2.10586298 L18,81 L18,81 L0,81 L0,2.10586298 C-1.3527075e-16,1.00129348 0.8954305,0.105862977 2,0.105862977 Z" id="path-7"></path>
        <path d="M2,0.105862977 L16,0.105862977 C17.1045695,0.105862977 18,1.00129348 18,2.10586298 L18,38 L18,38 L0,38 L0,2.10586298 C-1.3527075e-16,1.00129348 0.8954305,0.105862977 2,0.105862977 Z" id="path-9"></path>
        <path d="M2,0.105862977 L16,0.105862977 C17.1045695,0.105862977 18,1.00129348 18,2.10586298 L18,92 L18,92 L0,92 L0,2.10586298 C-1.3527075e-16,1.00129348 0.8954305,0.105862977 2,0.105862977 Z" id="path-11"></path>
        <circle id="path-13" cx="25" cy="25" r="25"></circle>
    </defs>
    <g id="项目报告" stroke="none" stroke-width="1" fill="none" fill-rule="evenodd">
        <g id="项目报告-空状态" transform="translate(-563.000000, -317.000000)">
            <g id="Group-5" transform="translate(445.000000, 240.000000)">
                <g id="Group-2" transform="translate(118.000000, 77.000000)">
                    <rect id="Rectangle-7-Copy-13" fill="#DEE0ED" x="0" y="0" width="184" height="132" rx="4"></rect>
                    <path d="M0,24 L184,24 L184,128 C184,130.209139 182.209139,132 180,132 L4,132 C1.790861,132 2.705415e-16,130.209139 0,128 L0,24 L0,24 Z" id="Rectangle-7-Copy-13" fill="#F2F4FD"></path>
                    <g id="Group-8" transform="translate(11.000000, 69.000000)">
                        <mask id="mask-2" fill="white">
                            <use xlink:href="#path-1"></use>
                        </mask>
                        <use id="Mask" fill="#E8EAF4" xlink:href="#path-1"></use>
                        <g mask="url(#mask-2)" stroke="#DEE0ED" stroke-linecap="square">
                            <g transform="translate(18.771338, 25.771338) rotate(45.000000) translate(-18.771338, -25.771338) translate(-28.228662, -28.728662)">
                                <line x1="0.25" y1="0.5" x2="0.25" y2="108.5" id="Line-5"></line>
                                <line x1="48.25" y1="0.5" x2="48.25" y2="108.5" id="Line-5-Copy-16"></line>
                                <line x1="24.25" y1="0.5" x2="24.25" y2="108.5" id="Line-5-Copy-8"></line>
                                <line x1="72.25" y1="0.5" x2="72.25" y2="108.5" id="Line-5-Copy-17"></line>
                                <line x1="12.25" y1="0.5" x2="12.25" y2="108.5" id="Line-5-Copy-4"></line>
                                <line x1="60.25" y1="0.5" x2="60.25" y2="108.5" id="Line-5-Copy-18"></line>
                                <line x1="36.25" y1="0.5" x2="36.25" y2="108.5" id="Line-5-Copy-9"></line>
                                <line x1="84.25" y1="0.5" x2="84.25" y2="108.5" id="Line-5-Copy-19"></line>
                                <line x1="3.25" y1="0.5" x2="3.25" y2="108.5" id="Line-5-Copy"></line>
                                <line x1="51.25" y1="0.5" x2="51.25" y2="108.5" id="Line-5-Copy-20"></line>
                                <line x1="27.25" y1="0.5" x2="27.25" y2="108.5" id="Line-5-Copy-10"></line>
                                <line x1="75.25" y1="0.5" x2="75.25" y2="108.5" id="Line-5-Copy-21"></line>
                                <line x1="15.25" y1="0.5" x2="15.25" y2="108.5" id="Line-5-Copy-5"></line>
                                <line x1="63.25" y1="0.5" x2="63.25" y2="108.5" id="Line-5-Copy-22"></line>
                                <line x1="39.25" y1="0.5" x2="39.25" y2="108.5" id="Line-5-Copy-11"></line>
                                <line x1="87.25" y1="0.5" x2="87.25" y2="108.5" id="Line-5-Copy-23"></line>
                                <line x1="6.25" y1="0.5" x2="6.25" y2="108.5" id="Line-5-Copy-2"></line>
                                <line x1="54.25" y1="0.5" x2="54.25" y2="108.5" id="Line-5-Copy-24"></line>
                                <line x1="30.25" y1="0.5" x2="30.25" y2="108.5" id="Line-5-Copy-12"></line>
                                <line x1="78.25" y1="0.5" x2="78.25" y2="108.5" id="Line-5-Copy-25"></line>
                                <line x1="18.25" y1="0.5" x2="18.25" y2="108.5" id="Line-5-Copy-6"></line>
                                <line x1="66.25" y1="0.5" x2="66.25" y2="108.5" id="Line-5-Copy-26"></line>
                                <line x1="42.25" y1="0.5" x2="42.25" y2="108.5" id="Line-5-Copy-13"></line>
                                <line x1="90.25" y1="0.5" x2="90.25" y2="108.5" id="Line-5-Copy-27"></line>
                                <line x1="9.25" y1="0.5" x2="9.25" y2="108.5" id="Line-5-Copy-3"></line>
                                <line x1="57.25" y1="0.5" x2="57.25" y2="108.5" id="Line-5-Copy-28"></line>
                                <line x1="33.25" y1="0.5" x2="33.25" y2="108.5" id="Line-5-Copy-14"></line>
                                <line x1="81.25" y1="0.5" x2="81.25" y2="108.5" id="Line-5-Copy-29"></line>
                                <line x1="21.25" y1="0.5" x2="21.25" y2="108.5" id="Line-5-Copy-7"></line>
                                <line x1="69.25" y1="0.5" x2="69.25" y2="108.5" id="Line-5-Copy-30"></line>
                                <line x1="45.25" y1="0.5" x2="45.25" y2="108.5" id="Line-5-Copy-15"></line>
                                <line x1="93.25" y1="0.5" x2="93.25" y2="108.5" id="Line-5-Copy-31"></line>
                            </g>
                        </g>
                    </g>
                    <g id="Group-8-Copy-2" transform="translate(67.000000, 84.000000)">
                        <mask id="mask-4" fill="white">
                            <use xlink:href="#path-3"></use>
                        </mask>
                        <use id="Mask" fill="#E8EAF4" xlink:href="#path-3"></use>
                        <g id="Group-8" mask="url(#mask-4)" stroke="#DEE0ED" stroke-linecap="square">
                            <g transform="translate(18.771338, 26.771338) rotate(45.000000) translate(-18.771338, -26.771338) translate(-28.228662, -27.728662)">
                                <line x1="0.25" y1="0.5" x2="0.25" y2="108.5" id="Line-5"></line>
                                <line x1="48.25" y1="0.5" x2="48.25" y2="108.5" id="Line-5-Copy-16"></line>
                                <line x1="24.25" y1="0.5" x2="24.25" y2="108.5" id="Line-5-Copy-8"></line>
                                <line x1="72.25" y1="0.5" x2="72.25" y2="108.5" id="Line-5-Copy-17"></line>
                                <line x1="12.25" y1="0.5" x2="12.25" y2="108.5" id="Line-5-Copy-4"></line>
                                <line x1="60.25" y1="0.5" x2="60.25" y2="108.5" id="Line-5-Copy-18"></line>
                                <line x1="36.25" y1="0.5" x2="36.25" y2="108.5" id="Line-5-Copy-9"></line>
                                <line x1="84.25" y1="0.5" x2="84.25" y2="108.5" id="Line-5-Copy-19"></line>
                                <line x1="3.25" y1="0.5" x2="3.25" y2="108.5" id="Line-5-Copy"></line>
                                <line x1="51.25" y1="0.5" x2="51.25" y2="108.5" id="Line-5-Copy-20"></line>
                                <line x1="27.25" y1="0.5" x2="27.25" y2="108.5" id="Line-5-Copy-10"></line>
                                <line x1="75.25" y1="0.5" x2="75.25" y2="108.5" id="Line-5-Copy-21"></line>
                                <line x1="15.25" y1="0.5" x2="15.25" y2="108.5" id="Line-5-Copy-5"></line>
                                <line x1="63.25" y1="0.5" x2="63.25" y2="108.5" id="Line-5-Copy-22"></line>
                                <line x1="39.25" y1="0.5" x2="39.25" y2="108.5" id="Line-5-Copy-11"></line>
                                <line x1="87.25" y1="0.5" x2="87.25" y2="108.5" id="Line-5-Copy-23"></line>
                                <line x1="6.25" y1="0.5" x2="6.25" y2="108.5" id="Line-5-Copy-2"></line>
                                <line x1="54.25" y1="0.5" x2="54.25" y2="108.5" id="Line-5-Copy-24"></line>
                                <line x1="30.25" y1="0.5" x2="30.25" y2="108.5" id="Line-5-Copy-12"></line>
                                <line x1="78.25" y1="0.5" x2="78.25" y2="108.5" id="Line-5-Copy-25"></line>
                                <line x1="18.25" y1="0.5" x2="18.25" y2="108.5" id="Line-5-Copy-6"></line>
                                <line x1="66.25" y1="0.5" x2="66.25" y2="108.5" id="Line-5-Copy-26"></line>
                                <line x1="42.25" y1="0.5" x2="42.25" y2="108.5" id="Line-5-Copy-13"></line>
                                <line x1="90.25" y1="0.5" x2="90.25" y2="108.5" id="Line-5-Copy-27"></line>
                                <line x1="9.25" y1="0.5" x2="9.25" y2="108.5" id="Line-5-Copy-3"></line>
                                <line x1="57.25" y1="0.5" x2="57.25" y2="108.5" id="Line-5-Copy-28"></line>
                                <line x1="33.25" y1="0.5" x2="33.25" y2="108.5" id="Line-5-Copy-14"></line>
                                <line x1="81.25" y1="0.5" x2="81.25" y2="108.5" id="Line-5-Copy-29"></line>
                                <line x1="21.25" y1="0.5" x2="21.25" y2="108.5" id="Line-5-Copy-7"></line>
                                <line x1="69.25" y1="0.5" x2="69.25" y2="108.5" id="Line-5-Copy-30"></line>
                                <line x1="45.25" y1="0.5" x2="45.25" y2="108.5" id="Line-5-Copy-15"></line>
                                <line x1="93.25" y1="0.5" x2="93.25" y2="108.5" id="Line-5-Copy-31"></line>
                            </g>
                        </g>
                    </g>
                    <g id="Group-8-Copy-3" transform="translate(95.000000, 65.000000)">
                        <mask id="mask-6" fill="white">
                            <use xlink:href="#path-5"></use>
                        </mask>
                        <use id="Mask" fill="#E8EAF4" xlink:href="#path-5"></use>
                        <g id="Group-8" mask="url(#mask-6)" stroke="#DEE0ED" stroke-linecap="square">
                            <g transform="translate(18.771338, 26.771338) rotate(45.000000) translate(-18.771338, -26.771338) translate(-28.228662, -27.728662)">
                                <line x1="0.25" y1="0.5" x2="0.25" y2="108.5" id="Line-5"></line>
                                <line x1="48.25" y1="0.5" x2="48.25" y2="108.5" id="Line-5-Copy-16"></line>
                                <line x1="24.25" y1="0.5" x2="24.25" y2="108.5" id="Line-5-Copy-8"></line>
                                <line x1="72.25" y1="0.5" x2="72.25" y2="108.5" id="Line-5-Copy-17"></line>
                                <line x1="12.25" y1="0.5" x2="12.25" y2="108.5" id="Line-5-Copy-4"></line>
                                <line x1="60.25" y1="0.5" x2="60.25" y2="108.5" id="Line-5-Copy-18"></line>
                                <line x1="36.25" y1="0.5" x2="36.25" y2="108.5" id="Line-5-Copy-9"></line>
                                <line x1="84.25" y1="0.5" x2="84.25" y2="108.5" id="Line-5-Copy-19"></line>
                                <line x1="3.25" y1="0.5" x2="3.25" y2="108.5" id="Line-5-Copy"></line>
                                <line x1="51.25" y1="0.5" x2="51.25" y2="108.5" id="Line-5-Copy-20"></line>
                                <line x1="27.25" y1="0.5" x2="27.25" y2="108.5" id="Line-5-Copy-10"></line>
                                <line x1="75.25" y1="0.5" x2="75.25" y2="108.5" id="Line-5-Copy-21"></line>
                                <line x1="15.25" y1="0.5" x2="15.25" y2="108.5" id="Line-5-Copy-5"></line>
                                <line x1="63.25" y1="0.5" x2="63.25" y2="108.5" id="Line-5-Copy-22"></line>
                                <line x1="39.25" y1="0.5" x2="39.25" y2="108.5" id="Line-5-Copy-11"></line>
                                <line x1="87.25" y1="0.5" x2="87.25" y2="108.5" id="Line-5-Copy-23"></line>
                                <line x1="6.25" y1="0.5" x2="6.25" y2="108.5" id="Line-5-Copy-2"></line>
                                <line x1="54.25" y1="0.5" x2="54.25" y2="108.5" id="Line-5-Copy-24"></line>
                                <line x1="30.25" y1="0.5" x2="30.25" y2="108.5" id="Line-5-Copy-12"></line>
                                <line x1="78.25" y1="0.5" x2="78.25" y2="108.5" id="Line-5-Copy-25"></line>
                                <line x1="18.25" y1="0.5" x2="18.25" y2="108.5" id="Line-5-Copy-6"></line>
                                <line x1="66.25" y1="0.5" x2="66.25" y2="108.5" id="Line-5-Copy-26"></line>
                                <line x1="42.25" y1="0.5" x2="42.25" y2="108.5" id="Line-5-Copy-13"></line>
                                <line x1="90.25" y1="0.5" x2="90.25" y2="108.5" id="Line-5-Copy-27"></line>
                                <line x1="9.25" y1="0.5" x2="9.25" y2="108.5" id="Line-5-Copy-3"></line>
                                <line x1="57.25" y1="0.5" x2="57.25" y2="108.5" id="Line-5-Copy-28"></line>
                                <line x1="33.25" y1="0.5" x2="33.25" y2="108.5" id="Line-5-Copy-14"></line>
                                <line x1="81.25" y1="0.5" x2="81.25" y2="108.5" id="Line-5-Copy-29"></line>
                                <line x1="21.25" y1="0.5" x2="21.25" y2="108.5" id="Line-5-Copy-7"></line>
                                <line x1="69.25" y1="0.5" x2="69.25" y2="108.5" id="Line-5-Copy-30"></line>
                                <line x1="45.25" y1="0.5" x2="45.25" y2="108.5" id="Line-5-Copy-15"></line>
                                <line x1="93.25" y1="0.5" x2="93.25" y2="108.5" id="Line-5-Copy-31"></line>
                            </g>
                        </g>
                    </g>
                    <g id="Group-8-Copy-4" transform="translate(123.000000, 51.000000)">
                        <mask id="mask-8" fill="white">
                            <use xlink:href="#path-7"></use>
                        </mask>
                        <use id="Mask" fill="#E8EAF4" xlink:href="#path-7"></use>
                        <g id="Group-8" mask="url(#mask-8)" stroke="#DEE0ED" stroke-linecap="square">
                            <g transform="translate(18.771338, 26.771338) rotate(45.000000) translate(-18.771338, -26.771338) translate(-28.228662, -27.728662)">
                                <line x1="0.25" y1="0.5" x2="0.25" y2="108.5" id="Line-5"></line>
                                <line x1="48.25" y1="0.5" x2="48.25" y2="108.5" id="Line-5-Copy-16"></line>
                                <line x1="24.25" y1="0.5" x2="24.25" y2="108.5" id="Line-5-Copy-8"></line>
                                <line x1="72.25" y1="0.5" x2="72.25" y2="108.5" id="Line-5-Copy-17"></line>
                                <line x1="12.25" y1="0.5" x2="12.25" y2="108.5" id="Line-5-Copy-4"></line>
                                <line x1="60.25" y1="0.5" x2="60.25" y2="108.5" id="Line-5-Copy-18"></line>
                                <line x1="36.25" y1="0.5" x2="36.25" y2="108.5" id="Line-5-Copy-9"></line>
                                <line x1="84.25" y1="0.5" x2="84.25" y2="108.5" id="Line-5-Copy-19"></line>
                                <line x1="3.25" y1="0.5" x2="3.25" y2="108.5" id="Line-5-Copy"></line>
                                <line x1="51.25" y1="0.5" x2="51.25" y2="108.5" id="Line-5-Copy-20"></line>
                                <line x1="27.25" y1="0.5" x2="27.25" y2="108.5" id="Line-5-Copy-10"></line>
                                <line x1="75.25" y1="0.5" x2="75.25" y2="108.5" id="Line-5-Copy-21"></line>
                                <line x1="15.25" y1="0.5" x2="15.25" y2="108.5" id="Line-5-Copy-5"></line>
                                <line x1="63.25" y1="0.5" x2="63.25" y2="108.5" id="Line-5-Copy-22"></line>
                                <line x1="39.25" y1="0.5" x2="39.25" y2="108.5" id="Line-5-Copy-11"></line>
                                <line x1="87.25" y1="0.5" x2="87.25" y2="108.5" id="Line-5-Copy-23"></line>
                                <line x1="6.25" y1="0.5" x2="6.25" y2="108.5" id="Line-5-Copy-2"></line>
                                <line x1="54.25" y1="0.5" x2="54.25" y2="108.5" id="Line-5-Copy-24"></line>
                                <line x1="30.25" y1="0.5" x2="30.25" y2="108.5" id="Line-5-Copy-12"></line>
                                <line x1="78.25" y1="0.5" x2="78.25" y2="108.5" id="Line-5-Copy-25"></line>
                                <line x1="18.25" y1="0.5" x2="18.25" y2="108.5" id="Line-5-Copy-6"></line>
                                <line x1="66.25" y1="0.5" x2="66.25" y2="108.5" id="Line-5-Copy-26"></line>
                                <line x1="42.25" y1="0.5" x2="42.25" y2="108.5" id="Line-5-Copy-13"></line>
                                <line x1="90.25" y1="0.5" x2="90.25" y2="108.5" id="Line-5-Copy-27"></line>
                                <line x1="9.25" y1="0.5" x2="9.25" y2="108.5" id="Line-5-Copy-3"></line>
                                <line x1="57.25" y1="0.5" x2="57.25" y2="108.5" id="Line-5-Copy-28"></line>
                                <line x1="33.25" y1="0.5" x2="33.25" y2="108.5" id="Line-5-Copy-14"></line>
                                <line x1="81.25" y1="0.5" x2="81.25" y2="108.5" id="Line-5-Copy-29"></line>
                                <line x1="21.25" y1="0.5" x2="21.25" y2="108.5" id="Line-5-Copy-7"></line>
                                <line x1="69.25" y1="0.5" x2="69.25" y2="108.5" id="Line-5-Copy-30"></line>
                                <line x1="45.25" y1="0.5" x2="45.25" y2="108.5" id="Line-5-Copy-15"></line>
                                <line x1="93.25" y1="0.5" x2="93.25" y2="108.5" id="Line-5-Copy-31"></line>
                            </g>
                        </g>
                    </g>
                    <g id="Group-8-Copy-5" transform="translate(155.000000, 94.000000)">
                        <mask id="mask-10" fill="white">
                            <use xlink:href="#path-9"></use>
                        </mask>
                        <use id="Mask" fill="#E8EAF4" xlink:href="#path-9"></use>
                        <g id="Group-8" mask="url(#mask-10)" stroke="#DEE0ED" stroke-linecap="square">
                            <g transform="translate(18.771338, 26.771338) rotate(45.000000) translate(-18.771338, -26.771338) translate(-28.228662, -27.728662)">
                                <line x1="0.25" y1="0.5" x2="0.25" y2="108.5" id="Line-5"></line>
                                <line x1="48.25" y1="0.5" x2="48.25" y2="108.5" id="Line-5-Copy-16"></line>
                                <line x1="24.25" y1="0.5" x2="24.25" y2="108.5" id="Line-5-Copy-8"></line>
                                <line x1="72.25" y1="0.5" x2="72.25" y2="108.5" id="Line-5-Copy-17"></line>
                                <line x1="12.25" y1="0.5" x2="12.25" y2="108.5" id="Line-5-Copy-4"></line>
                                <line x1="60.25" y1="0.5" x2="60.25" y2="108.5" id="Line-5-Copy-18"></line>
                                <line x1="36.25" y1="0.5" x2="36.25" y2="108.5" id="Line-5-Copy-9"></line>
                                <line x1="84.25" y1="0.5" x2="84.25" y2="108.5" id="Line-5-Copy-19"></line>
                                <line x1="3.25" y1="0.5" x2="3.25" y2="108.5" id="Line-5-Copy"></line>
                                <line x1="51.25" y1="0.5" x2="51.25" y2="108.5" id="Line-5-Copy-20"></line>
                                <line x1="27.25" y1="0.5" x2="27.25" y2="108.5" id="Line-5-Copy-10"></line>
                                <line x1="75.25" y1="0.5" x2="75.25" y2="108.5" id="Line-5-Copy-21"></line>
                                <line x1="15.25" y1="0.5" x2="15.25" y2="108.5" id="Line-5-Copy-5"></line>
                                <line x1="63.25" y1="0.5" x2="63.25" y2="108.5" id="Line-5-Copy-22"></line>
                                <line x1="39.25" y1="0.5" x2="39.25" y2="108.5" id="Line-5-Copy-11"></line>
                                <line x1="87.25" y1="0.5" x2="87.25" y2="108.5" id="Line-5-Copy-23"></line>
                                <line x1="6.25" y1="0.5" x2="6.25" y2="108.5" id="Line-5-Copy-2"></line>
                                <line x1="54.25" y1="0.5" x2="54.25" y2="108.5" id="Line-5-Copy-24"></line>
                                <line x1="30.25" y1="0.5" x2="30.25" y2="108.5" id="Line-5-Copy-12"></line>
                                <line x1="78.25" y1="0.5" x2="78.25" y2="108.5" id="Line-5-Copy-25"></line>
                                <line x1="18.25" y1="0.5" x2="18.25" y2="108.5" id="Line-5-Copy-6"></line>
                                <line x1="66.25" y1="0.5" x2="66.25" y2="108.5" id="Line-5-Copy-26"></line>
                                <line x1="42.25" y1="0.5" x2="42.25" y2="108.5" id="Line-5-Copy-13"></line>
                                <line x1="90.25" y1="0.5" x2="90.25" y2="108.5" id="Line-5-Copy-27"></line>
                                <line x1="9.25" y1="0.5" x2="9.25" y2="108.5" id="Line-5-Copy-3"></line>
                                <line x1="57.25" y1="0.5" x2="57.25" y2="108.5" id="Line-5-Copy-28"></line>
                                <line x1="33.25" y1="0.5" x2="33.25" y2="108.5" id="Line-5-Copy-14"></line>
                                <line x1="81.25" y1="0.5" x2="81.25" y2="108.5" id="Line-5-Copy-29"></line>
                                <line x1="21.25" y1="0.5" x2="21.25" y2="108.5" id="Line-5-Copy-7"></line>
                                <line x1="69.25" y1="0.5" x2="69.25" y2="108.5" id="Line-5-Copy-30"></line>
                                <line x1="45.25" y1="0.5" x2="45.25" y2="108.5" id="Line-5-Copy-15"></line>
                                <line x1="93.25" y1="0.5" x2="93.25" y2="108.5" id="Line-5-Copy-31"></line>
                            </g>
                        </g>
                    </g>
                    <g id="Group-8-Copy" transform="translate(39.000000, 40.000000)">
                        <mask id="mask-12" fill="white">
                            <use xlink:href="#path-11"></use>
                        </mask>
                        <use id="Mask" fill="#E8EAF4" xlink:href="#path-11"></use>
                        <g id="Group-8" mask="url(#mask-12)" stroke="#DEE0ED" stroke-linecap="square">
                            <g transform="translate(8.771338, 46.771338) rotate(45.000000) translate(-8.771338, -46.771338) translate(-38.228662, -7.728662)">
                                <line x1="0.25" y1="0.5" x2="0.25" y2="108.5" id="Line-5"></line>
                                <line x1="48.25" y1="0.5" x2="48.25" y2="108.5" id="Line-5-Copy-16"></line>
                                <line x1="24.25" y1="0.5" x2="24.25" y2="108.5" id="Line-5-Copy-8"></line>
                                <line x1="72.25" y1="0.5" x2="72.25" y2="108.5" id="Line-5-Copy-17"></line>
                                <line x1="12.25" y1="0.5" x2="12.25" y2="108.5" id="Line-5-Copy-4"></line>
                                <line x1="60.25" y1="0.5" x2="60.25" y2="108.5" id="Line-5-Copy-18"></line>
                                <line x1="36.25" y1="0.5" x2="36.25" y2="108.5" id="Line-5-Copy-9"></line>
                                <line x1="84.25" y1="0.5" x2="84.25" y2="108.5" id="Line-5-Copy-19"></line>
                                <line x1="3.25" y1="0.5" x2="3.25" y2="108.5" id="Line-5-Copy"></line>
                                <line x1="51.25" y1="0.5" x2="51.25" y2="108.5" id="Line-5-Copy-20"></line>
                                <line x1="27.25" y1="0.5" x2="27.25" y2="108.5" id="Line-5-Copy-10"></line>
                                <line x1="75.25" y1="0.5" x2="75.25" y2="108.5" id="Line-5-Copy-21"></line>
                                <line x1="15.25" y1="0.5" x2="15.25" y2="108.5" id="Line-5-Copy-5"></line>
                                <line x1="63.25" y1="0.5" x2="63.25" y2="108.5" id="Line-5-Copy-22"></line>
                                <line x1="39.25" y1="0.5" x2="39.25" y2="108.5" id="Line-5-Copy-11"></line>
                                <line x1="87.25" y1="0.5" x2="87.25" y2="108.5" id="Line-5-Copy-23"></line>
                                <line x1="6.25" y1="0.5" x2="6.25" y2="108.5" id="Line-5-Copy-2"></line>
                                <line x1="54.25" y1="0.5" x2="54.25" y2="108.5" id="Line-5-Copy-24"></line>
                                <line x1="30.25" y1="0.5" x2="30.25" y2="108.5" id="Line-5-Copy-12"></line>
                                <line x1="78.25" y1="0.5" x2="78.25" y2="108.5" id="Line-5-Copy-25"></line>
                                <line x1="18.25" y1="0.5" x2="18.25" y2="108.5" id="Line-5-Copy-6"></line>
                                <line x1="66.25" y1="0.5" x2="66.25" y2="108.5" id="Line-5-Copy-26"></line>
                                <line x1="42.25" y1="0.5" x2="42.25" y2="108.5" id="Line-5-Copy-13"></line>
                                <line x1="90.25" y1="0.5" x2="90.25" y2="108.5" id="Line-5-Copy-27"></line>
                                <line x1="9.25" y1="0.5" x2="9.25" y2="108.5" id="Line-5-Copy-3"></line>
                                <line x1="57.25" y1="0.5" x2="57.25" y2="108.5" id="Line-5-Copy-28"></line>
                                <line x1="33.25" y1="0.5" x2="33.25" y2="108.5" id="Line-5-Copy-14"></line>
                                <line x1="81.25" y1="0.5" x2="81.25" y2="108.5" id="Line-5-Copy-29"></line>
                                <line x1="21.25" y1="0.5" x2="21.25" y2="108.5" id="Line-5-Copy-7"></line>
                                <line x1="69.25" y1="0.5" x2="69.25" y2="108.5" id="Line-5-Copy-30"></line>
                                <line x1="45.25" y1="0.5" x2="45.25" y2="108.5" id="Line-5-Copy-15"></line>
                                <line x1="93.25" y1="0.5" x2="93.25" y2="108.5" id="Line-5-Copy-31"></line>
                            </g>
                        </g>
                    </g>
                    <polyline id="Path-5" stroke="#CFD5F1" stroke-width="2" points="20 97 48.2693088 61.7946265 76.2789662 97 104.04713 47.7090427 132.423567 72.3545214 164 38"></polyline>
                    <circle id="Oval-10" fill="#6776C4" cx="20" cy="97" r="7"></circle>
                    <circle id="Oval-10-Copy-2" fill="#6776C4" cx="48" cy="62" r="7"></circle>
                    <circle id="Oval-10-Copy-3" fill="#6776C4" cx="76" cy="97" r="7"></circle>
                    <circle id="Oval-10-Copy-4" fill="#6776C4" cx="104" cy="48" r="7"></circle>
                    <circle id="Oval-10-Copy-5" fill="#6776C4" cx="132" cy="72" r="7"></circle>
                    <circle id="Oval-10-Copy-6" fill="#6776C4" cx="164" cy="38" r="7"></circle>
                    <rect id="Rectangle-21-Copy-14" fill="#F9FAFF" x="8" y="9" width="8" height="8" rx="4"></rect>
                    <rect id="Rectangle-21-Copy-19" fill="#F9FAFF" x="22" y="9" width="8" height="8" rx="4"></rect>
                    <rect id="Rectangle-21-Copy-18" fill="#F9FAFF" x="36" y="9" width="48" height="8" rx="4"></rect>
                    <g id="Group-9-Copy" transform="translate(73.000000, 17.000000)">
                        <g id="Group-7" transform="translate(63.286057, 63.286057) rotate(-45.000000) translate(-63.286057, -63.286057) translate(29.286057, 7.786057)">
                            <rect id="Rectangle-25" fill="#6776C4" x="31" y="66" width="6" height="12"></rect>
                            <rect id="Rectangle-25-Copy" fill="#2A2E76" x="27" y="77" width="14" height="34" rx="2"></rect>
                            <circle id="Oval-11" fill="#3D42A3" cx="34" cy="34" r="34"></circle>
                            <circle id="Oval-11" fill="#FFBA1C" cx="34" cy="34" r="25"></circle>
                        </g>
                        <g id="189" transform="translate(23.000000, 23.026912)">
                            <mask id="mask-14" fill="white">
                                <use xlink:href="#path-13"></use>
                            </mask>
                            <use id="Mask" fill="#FFBA1C" xlink:href="#path-13"></use>
                            <g id="编组" mask="url(#mask-14)" fill="#FFFFFF" fill-rule="nonzero">
                                <g transform="translate(8.000000, 10.973088)" id="形状">
                                    <path d="M23.4665948,23.3070672 C23.1246408,23.1605154 22.9048132,22.8429867 22.8559626,22.5010327 C22.807112,22.1590787 23.0025143,21.7926994 23.2956178,21.5972971 C26.7860387,19.3468173 28.8218373,15.4146582 28.6447557,11.2654005 C28.4005028,5.18350397 23.4665948,0.274021212 17.4091236,0.029768319 C12.1283092,-0.188760462 7.3593445,3.16754869 5.78268676,8.21223956 C4.1950431,13.2438487 6.14906607,18.7151131 10.5944684,21.5972971 C10.9119972,21.7926994 11.0829741,22.1346534 11.0341236,22.5010327 C11.0076556,22.8667381 10.7683763,23.1825867 10.4234914,23.3070672 C5.00107759,25.5541936 1.09303159,30.3904005 0.0671695211,36.1547683 C-0.0549568966,36.8631016 0.140445383,37.5958603 0.604525862,38.1576419 C1.06860634,38.7194235 1.75251435,39.0369522 2.48527297,39.0125269 L31.3803879,39.0125269 C32.1131466,39.0125269 32.7970546,38.6949982 33.261135,38.1576419 C33.7252155,37.5958603 33.9206178,36.8875269 33.7984914,36.1547683 C32.783098,30.3849248 28.8842387,25.5366979 23.4665948,23.3070672 L23.4665948,23.3070672 Z M20.4378592,34.2740212 L17.4091236,37.6202856 C17.3114224,37.742412 17.1404454,37.7912626 16.9450431,37.7912626 C16.7496408,37.7912626 16.6030891,37.7179867 16.4809626,37.6202856 L13.452227,34.2740212 C13.2830338,34.0985328 13.2349677,33.8389762 13.3301006,33.6145385 L16.3588362,26.1404005 L15.7970546,26.1404005 C15.6260776,26.1404005 15.4795259,26.0671247 15.4306753,25.9449982 L14.9910201,24.7970097 C14.9421696,24.7237338 14.9665948,24.6260327 15.0154454,24.5527568 C15.088079,24.4851496 15.185029,24.4498951 15.2841236,24.4550557 L18.5571121,24.4550557 C18.6792385,24.4550557 18.7769397,24.5039063 18.8257902,24.5527568 C18.8990661,24.6260327 18.8990661,24.6993085 18.8502155,24.7970097 L18.4105603,25.9449982 C18.3617098,26.0671246 18.1907328,26.1404005 18.044181,26.1404005 L17.4823994,26.1404005 L20.511135,33.6145385 C20.6576868,33.834366 20.6088362,34.0786189 20.4378592,34.2740212 L20.4378592,34.2740212 Z"></path>
                                </g>
                            </g>
                        </g>
                    </g>
                </g>
            </g>
        </g>
    </g>
</svg>