<?xml version="1.0" encoding="UTF-8"?>
<svg width="339px" height="207px" viewBox="0 0 339 207" version="1.1" xmlns="http://www.w3.org/2000/svg" xmlns:xlink="http://www.w3.org/1999/xlink">
    <title>项目报告</title>
    <g id="页面-1" stroke="none" stroke-width="1" fill="none" fill-rule="evenodd">
        <g id="新主题缺省图" transform="translate(-74.000000, -702.000000)">
            <g id="项目报告" transform="translate(75.000000, 703.000000)">
                <g id="编组-21" transform="translate(144.898283, 15.000000)">
                    <line x1="0" y1="6" x2="12" y2="6" id="直线-8" stroke="#5365EA" stroke-width="1.5" stroke-linecap="square"></line>
                    <line x1="0" y1="6" x2="12" y2="6" id="直线-8" stroke="#5365EA" stroke-width="1.5" stroke-linecap="square" transform="translate(6.000000, 6.000000) rotate(90.000000) translate(-6.000000, -6.000000) "></line>
                    <rect id="矩形" fill="#5365EA" transform="translate(6.000000, 6.000000) rotate(45.000000) translate(-6.000000, -6.000000) " x="2" y="2" width="8" height="8"></rect>
                </g>
                <g id="编组-21" transform="translate(189.916332, 0.500000)" stroke="#5365EA">
                    <line x1="0" y1="3" x2="6" y2="3" id="直线-8" stroke-width="1.5" stroke-linecap="square"></line>
                    <polygon id="矩形" fill="#5365EA" transform="translate(3.000000, 3.000000) rotate(45.000000) translate(-3.000000, -3.000000) " points="1.25 1.25 4.75 1.25 4.75 4.75 1.25 4.75"></polygon>
                    <line x1="1.00280713e-15" y1="3" x2="6" y2="3" id="直线-8" stroke-width="1.5" stroke-linecap="square" transform="translate(3.000000, 3.000000) rotate(90.000000) translate(-3.000000, -3.000000) "></line>
                </g>
                <g id="编组-23" transform="translate(24.312697, 51.036408) rotate(-22.000000) translate(-24.312697, -51.036408) translate(4.812697, 36.036408)">
                    <path d="M37.7559324,18.8046834 C37.7559324,21.0814776 35.9650714,22.9271839 33.7559324,22.9271839 L16.125,22.9271839 L9.41846282,29.6876359 C9.26434601,29.8429787 9.06446482,29.9426113 8.8501687,29.9732625 L8.72011203,29.9837737 C8.20731041,29.9891935 7.78020784,29.6080616 7.71670144,29.1114234 L7.70862697,28.9948878 L7.638,22.9271839 L4,22.9271839 C1.790861,22.9271839 5.45696821e-12,21.0814776 5.45696821e-12,18.8046834 L0.374606593,4.12250041 C0.374606593,1.8457063 2.16546759,1.27329258e-11 4.37460659,1.27329258e-11 L34.130539,1.27329258e-11 C36.339678,1.27329258e-11 38.130539,1.8457063 38.130539,4.12250041 C38.130539,10.616142 37.7559324,15.0543583 37.7559324,15.5827816" id="路径" stroke="#0F1358" stroke-linecap="round" stroke-linejoin="round"></path>
                    <g id="编组" transform="translate(12.456190, 4.904637)" fill="#5365EA" fill-rule="nonzero">
                        <path d="M7.18443627,14.1544118 C3.75306373,14.1544118 0.857843137,11.5808824 0.428921569,8.1495098 L7.18443627,8.1495098 C7.61335784,8.1495098 8.04227941,7.72058824 8.04227941,7.18443627 L8.04227941,0.536151961 C11.3664216,0.965073529 13.939951,3.86029412 13.939951,7.39889706 C13.939951,11.0447304 10.9375,14.1544118 7.18443627,14.1544118 Z M0,6.8627451 C0,3.10968137 3.00245098,0 6.8627451,0 L6.8627451,5.89767157 C6.8627451,6.43382353 6.43382353,6.8627451 5.89767157,6.8627451 L0,6.8627451 Z" id="形状"></path>
                    </g>
                </g>
                <path d="M282,167.5 L338,167.5 C337.666667,163.833333 336.166667,162 333.5,162 C329.5,162 327.5,164 326.5,164 C325.5,164 322.5,157 317.5,156 C312.5,155 310.5,159 308.5,159 C306.5,159 307.578188,152.767374 297.5,156 C290.781208,158.155084 285.614541,161.988418 282,167.5 Z" id="直线-9" fill-opacity="0.32" fill="#D9E6F2"></path>
                <g id="编组" transform="translate(2.000000, 107.000000)" fill="#D9E6F2" fill-rule="nonzero" opacity="0.32">
                    <path d="M16.0344432,16.4132322 L16.0344432,2.65008313 C16.0464332,2.23143509 15.9073786,1.82245095 15.6426918,1.49787307 C15.3641771,1.25300474 14.9984673,1.13118805 14.6287469,1.16013149 C13.7098594,1.16013149 13.2489754,1.84929714 13.2489754,3.21538618 L13.2489754,5.74376713 C13.2466225,6.06374551 12.9878078,6.32256019 12.6678294,6.32491307 L1.98684222,6.32491307 L1.98684222,15.7751959 C1.92682791,16.5047952 2.17137646,17.2267083 2.66245612,17.7696242 C3.15353578,18.31254 3.84737144,18.6280628 4.57931484,18.6413184 L4.8500842,18.6413184 L16.8280279,18.6276359 C16.2787129,18.0235399 15.9919459,17.2259288 16.0308425,16.4103517 L16.0344432,16.4132322 Z M12.7765692,14.0605633 L5.2598389,14.0605633 C4.87959912,14.0589825 4.57185699,13.7509188 4.57067326,13.3706776 C4.5722515,12.9907175 4.87987888,12.6830902 5.2598389,12.6815119 L12.7765692,12.6815119 C13.1568105,12.6826956 13.4648742,12.9904378 13.466455,13.3706776 C13.4648767,13.7510353 13.156927,14.0589851 12.7765692,14.0605633 L12.7765692,14.0605633 Z M12.7765692,10.3828529 L5.2598389,10.3828529 C4.87959913,10.381272 4.571857,10.0732083 4.57067326,9.69296709 C4.5722515,9.31300707 4.87987888,9.0053797 5.2598389,9.00380145 L12.7765692,9.00380145 C13.1568105,9.00498519 13.4648742,9.31272732 13.466455,9.69296709 C13.4648767,10.0733248 13.156927,10.3812746 12.7765692,10.3828529 L12.7765692,10.3828529 Z M17.1974552,16.4125121 C17.1974552,16.9266858 17.3328399,18.1408272 18.5491416,18.1408272 C18.9416243,18.1611328 19.3195871,17.9898684 19.5630865,17.6813834 C19.7040438,17.4607418 19.8049687,17.2169617 19.8612208,16.9612521 L19.8612208,16.9346073 C19.8612208,16.9072423 19.8741832,16.8669149 19.8741832,16.8402701 C19.8885858,16.7048854 19.9022683,16.5831832 19.9022683,16.5025285 L19.9022683,13.0819049 C19.9042504,12.9772853 19.8635138,12.8763755 19.7894554,12.802453 C19.715397,12.7285305 19.6144125,12.6879793 19.5097968,12.6901535 L17.1981753,12.6901535 L17.1974552,16.4125121 Z" id="形状"></path>
                    <path d="M0.394631945,5.17846406 L12.1032465,5.17846406 L12.1032465,3.2341096 C12.1032465,1.34160458 12.9414793,0.165630202 14.3745406,0.0432078764 C14.2362102,0.0163463985 14.0956183,0.00284186525 13.954704,0.00288052874 L2.09774243,0.00288052874 C0.986790493,-0.0373564018 0.0512618345,0.825837565 0.00216039655,1.93643302 L0.00216039655,4.88393038 C0.0372787023,5.06878297 0.206421684,5.19719483 0.393911813,5.18134459 L0.394631945,5.17846406 Z" id="路径"></path>
                </g>
                <g id="主体" transform="translate(76.000000, 37.000000)">
                    <rect id="形状结合" fill="#5365EA" opacity="0.08" x="72" y="159" width="40" height="8"></rect>
                    <g id="内容" transform="translate(80.000000, 61.000000)">
                        <path d="M6,0 L88,0 C91.3137085,-6.08718376e-16 94,2.6862915 94,6 L94,18 L94,18 L0,18 L0,6 C-1.29399067e-15,2.6862915 2.6862915,-2.79460044e-16 6,0 Z" id="矩形" fill="#E7EFFF"></path>
                        <path d="M0,38.7568205 L0,5.68122335 C0,2.54357033 2.6862915,0 6,0 L88,0 C91.3137085,0 94,2.54357033 94,5.68122335 L94,39" id="路径备份" stroke="#0F1358" stroke-width="1.5"></path>
                    </g>
                    <path d="M10,99.9314876 L10,99.9314876 L10,91 C10,87.6862915 12.6862915,85 16,85 L58,85 C61.3137085,85 64,87.6862915 64,91 L64,100.188312 L64,100.188312" id="路径" stroke="#0F1358" stroke-width="1.5"></path>
                    <g id="电脑">
                        <path d="M6,0 L177,0 C180.313708,-6.08718376e-16 183,2.6862915 183,6 L183,52 L183,52 L0,52 L0,6 C-4.05812251e-16,2.6862915 2.6862915,6.08718376e-16 6,0 Z" id="矩形" fill="#E7EFFF"></path>
                        <path d="M7,119 L175,119 C178.313708,119 181,121.686292 181,125 L181,139 L181,139 L1,139 L1,125 C1,121.686292 3.6862915,119 7,119 Z" id="矩形备份" fill="#5365EA" opacity="0.08" transform="translate(91.000000, 129.000000) scale(1, -1) translate(-91.000000, -129.000000) "></path>
                        <path d="M6,99 L177,99 C180.313708,99 183,101.686292 183,105 L183,122 L183,122 L0,122 L0,105 C-4.05812251e-16,101.686292 2.6862915,99 6,99 Z" id="矩形备份" fill="#E7EFFF" transform="translate(91.500000, 110.500000) scale(1, -1) translate(-91.500000, -110.500000) "></path>
                        <path d="M183,106.767099 C183,109.707744 183,114.118711 183,120 C183,123.313708 180.313708,126 177,126 L6,126 C2.6862915,126 0,123.313708 0,120 L0,6 C0,2.6862915 2.6862915,0 6,0 L112.319119,0 L177,0 C180.313708,0 183,2.6862915 183,6 C183,11.2137358 183,15.825959 183,20.75 M183,30.0902083 C183,67.067251 183,94.4357895 183,106.75" id="形状" stroke="#0F1358" stroke-width="1.5" fill="#FFFFFF" stroke-linecap="round" stroke-linejoin="round"></path>
                        <path d="M82,140.080649 C82,145.006671 86.4771525,149 92,149 C97.5228475,149 102,145.006671 102,140.080649 L102,140.080649 L102,126 L112,126 L112,160 L72,160 L72,126 L82,126 Z" id="形状结合" stroke="#0F1358" stroke-width="1.5" fill="#FFFFFF"></path>
                        <rect id="矩形备份-3" stroke="#0F1358" fill="#0F1358" x="59.5" y="159.5" width="65" height="1" rx="0.5"></rect>
                        <rect id="矩形备份-2" fill="#0F1358" x="0" y="106" width="183" height="1.5"></rect>
                        <rect id="矩形" fill="#E7EFFF" x="1" y="86" width="181" height="20"></rect>
                    </g>
                    <path d="M137.000234,141.999922 C136.600234,141.999922 136.200547,141.847422 135.895234,141.542109 L132.457734,138.104609 C131.847422,137.494609 131.847422,136.505234 132.457734,135.895234 L135.895234,132.457734 C136.505547,131.847422 137.494609,131.847422 138.104922,132.457734 L141.542422,135.895234 C142.152734,136.505234 142.152734,137.494609 141.542422,138.104609 L138.104922,141.542109 C137.799922,141.847422 137.400234,141.999922 137.000234,141.999922 Z M135.772422,136.999922 L137.000234,138.227734 L138.228047,136.999922 L137.000234,135.772109 L135.772422,136.999922 Z" id="形状" fill="#5365EA" fill-rule="nonzero"></path>
                    <path d="M33.0002344,146.999922 C32.6002344,146.999922 32.2005469,146.847422 31.8952344,146.542109 L28.4577344,143.104609 C27.8474219,142.494609 27.8474219,141.505234 28.4577344,140.895234 L31.8952344,137.457734 C32.5055469,136.847422 33.4946094,136.847422 34.1049219,137.457734 L37.5424219,140.895234 C38.1527344,141.505234 38.1527344,142.494609 37.5424219,143.104609 L34.1049219,146.542109 C33.7999219,146.847422 33.4002344,146.999922 33.0002344,146.999922 Z M31.7724219,141.999922 L33.0002344,143.227734 L34.2280469,141.999922 L33.0002344,140.772109 L31.7724219,141.999922 Z" id="形状备份-2" fill="#5365EA" fill-rule="nonzero"></path>
                    <g id="电脑阴影" transform="translate(59.000000, 167.000000)" fill="#5365EA" opacity="0.08">
                        <rect id="矩形备份-3" x="0" y="0" width="66" height="2" rx="1"></rect>
                    </g>
                    <rect id="矩形" fill="#0F1358" x="0" y="20" width="183" height="1.5"></rect>
                    <g id="编组-4备份-2" transform="translate(11.000000, 32.000000)">
                        <rect id="矩形备份-25" fill="#E7EFFF" x="0" y="20" width="18" height="2" rx="1"></rect>
                        <g id="编组-6" fill="#5365EA" fill-rule="nonzero">
                            <path d="M40.1972222,11.836632 C39.6050926,11.836632 39.012037,11.610706 38.5601852,11.1583912 C38.1083333,10.7065394 37.8824074,10.1139468 37.8824074,9.52135418 C37.8824074,8.92922455 38.1083333,8.33663196 38.5606481,7.8847801 C39.0861111,7.35931714 39.375463,6.66116899 39.375463,5.91811344 C39.375463,5.17552084 39.0861111,4.4773727 38.5606481,3.95190973 C38.1083333,3.50005788 37.8824074,2.90746529 37.8824074,2.31533566 C37.8824074,1.72274307 38.1083333,1.13015047 38.5601852,0.678298622 C39.4643519,-0.225868044 40.9296296,-0.226331007 41.8337963,0.678298622 C42.3592593,1.20376159 43.0578704,1.49265047 43.800463,1.49265047 C44.5430556,1.49265047 45.2412037,1.20329862 45.7662037,0.678298622 C46.6703704,-0.225868044 48.1356481,-0.226331007 49.0398148,0.678298622 C49.4921296,1.13015047 49.7180556,1.72274307 49.7180556,2.3148727 C49.7180556,2.90746529 49.4921296,3.50005788 49.0402778,3.95190973 C47.9560185,5.03616899 47.9560185,6.80052084 49.0402778,7.8847801 C49.4921296,8.33663196 49.7180556,8.92922455 49.7180556,9.52181714 C49.7180556,10.1139468 49.4921296,10.7065394 49.0398148,11.1583912 C48.1365741,12.0620949 46.6703704,12.0625579 45.7662037,11.1583912 C45.2412037,10.6333912 44.5430556,10.3440394 43.800463,10.3440394 C43.0578704,10.3440394 42.3592593,10.6333912 41.8337963,11.1588542 C41.3814815,11.610706 40.7893519,11.836632 40.1972222,11.836632 Z" id="路径"></path>
                            <path d="M21.2560185,11.836632 C20.6638889,11.836632 20.0708333,11.610706 19.6189815,11.1583912 C19.1671296,10.7065394 18.9412037,10.1139468 18.9412037,9.52135418 C18.9412037,8.92922455 19.1671296,8.33663196 19.6194444,7.8847801 C20.1449074,7.35931714 20.4337963,6.66116899 20.4337963,5.91811344 C20.4337963,5.17552084 20.1449074,4.4773727 19.6194444,3.95190973 C19.1671296,3.50005788 18.9412037,2.90746529 18.9412037,2.31533566 C18.9412037,1.72274307 19.1671296,1.13015047 19.6189815,0.678298622 C20.5231481,-0.225868044 21.9884259,-0.226331007 22.8925926,0.678298622 C23.4180556,1.20376159 24.1166667,1.49265047 24.8592593,1.49265047 C25.6018519,1.49265047 26.3,1.20329862 26.825,0.678298622 C27.7291667,-0.225868044 29.1944444,-0.226331007 30.0986111,0.678298622 C30.5509259,1.13015047 30.7768519,1.72274307 30.7768519,2.3148727 C30.7768519,2.90746529 30.5509259,3.50005788 30.0990741,3.95190973 C29.0148148,5.03616899 29.0148148,6.80052084 30.0990741,7.8847801 C30.5509259,8.33663196 30.7768519,8.92922455 30.7768519,9.52181714 C30.7768519,10.1139468 30.5509259,10.7065394 30.0986111,11.1583912 C29.1953704,12.0620949 27.7291667,12.0625579 26.825,11.1583912 C26.3,10.6333912 25.6018519,10.3440394 24.8592593,10.3440394 C24.1166667,10.3440394 23.4180556,10.6333912 22.8925926,11.1588542 C22.4407407,11.610706 21.8481481,11.836632 21.2560185,11.836632 Z" id="路径"></path>
                            <path d="M2.31481481,11.836632 C1.72268519,11.836632 1.12962963,11.610706 0.677777778,11.1583912 C0.225925926,10.7065394 2.74447132e-13,10.1139468 2.74447132e-13,9.52135418 C2.74447132e-13,8.92922455 0.225925926,8.33663196 0.678240741,7.8847801 C1.2037037,7.35931714 1.49259259,6.66116899 1.49259259,5.91811344 C1.49259259,5.17552084 1.2037037,4.4773727 0.678240741,3.95190973 C0.225925926,3.50005788 2.74447132e-13,2.90746529 2.74447132e-13,2.31533566 C2.74447132e-13,1.72274307 0.225925926,1.13015047 0.677777778,0.678298622 C1.58194444,-0.225868044 3.04722222,-0.226331007 3.95138889,0.678298622 C5.03564815,1.76255788 6.80046296,1.76255788 7.88472222,0.678298622 C8.78796296,-0.225405081 10.2541667,-0.225868044 11.1583333,0.678298622 C11.6101852,1.13015047 11.8361111,1.72274307 11.8361111,2.31533566 C11.8361111,2.90746529 11.6101852,3.50005788 11.1578704,3.95190973 C10.6324074,4.4773727 10.3435185,5.17552084 10.3435185,5.91811344 C10.3435185,6.66070603 10.6324074,7.35885418 11.1578704,7.88431714 C11.6101852,8.33616899 11.8361111,8.92876159 11.8361111,9.52089121 C11.8361111,10.1134838 11.6101852,10.7060764 11.1583333,11.1579283 C10.2541667,12.0620949 8.78888889,12.0625579 7.88472222,11.1579283 C6.80092593,10.074132 5.03703704,10.073669 3.95138889,11.1579283 C3.49953704,11.610706 2.90694444,11.836632 2.31481481,11.836632 L2.31481481,11.836632 Z" id="路径"></path>
                        </g>
                        <rect id="矩形备份-26" fill="#E7EFFF" x="0" y="30" width="10" height="2" rx="1"></rect>
                        <rect id="矩形备份-27" fill="#E7EFFF" x="14" y="30" width="34" height="2" rx="1"></rect>
                        <rect id="矩形备份-28" fill="#E7EFFF" x="0" y="38" width="48" height="2" rx="1"></rect>
                        <rect id="矩形备份-29" fill="#E7EFFF" x="0" y="46" width="48" height="2" rx="1"></rect>
                        <rect id="矩形备份-30" fill="#E7EFFF" x="1" y="54" width="48" height="2" rx="1"></rect>
                    </g>
                    <g id="人" transform="translate(87.000000, 34.000000)" stroke="#5365EA" stroke-width="3">
                        <circle id="椭圆形" fill="#FFFFFF" cx="5" cy="5" r="5"></circle>
                        <path d="M10,15 C10,12.2385763 7.76142375,10 5,10 C2.23857625,10 0,12.2385763 0,15" id="路径" stroke-linecap="round" stroke-linejoin="round"></path>
                    </g>
                    <rect id="矩形" stroke="#5365EA" stroke-width="1.5" fill="#E7EFFF" x="87" y="61" width="10" height="20" rx="2"></rect>
                    <rect id="矩形备份-20" stroke="#5365EA" stroke-width="1.5" fill="#E7EFFF" x="105" y="53" width="10" height="28" rx="2"></rect>
                    <rect id="矩形备份-21" stroke="#5365EA" stroke-width="1.5" fill="#E7EFFF" x="123" y="49" width="10" height="32" rx="2"></rect>
                    <rect id="矩形备份-22" stroke="#5365EA" stroke-width="1.5" fill="#E7EFFF" x="141" y="42" width="10" height="39" rx="2"></rect>
                    <rect id="矩形备份-23" stroke="#5365EA" stroke-width="1.5" fill="#E7EFFF" x="159" y="34" width="10" height="47" rx="2"></rect>
                    <circle id="椭圆形" fill="#5365EA" cx="12" cy="11" r="2"></circle>
                    <circle id="椭圆形备份" fill="#5365EA" cx="20" cy="11" r="2"></circle>
                    <circle id="椭圆形备份-2" fill="#5365EA" cx="28" cy="11" r="2"></circle>
                    <g id="编组-7" transform="translate(112.000000, 34.000000)" fill="#5365EA">
                        <circle id="椭圆形" cx="2" cy="2" r="2"></circle>
                        <circle id="椭圆形备份" cx="10" cy="2" r="2"></circle>
                        <circle id="椭圆形备份-2" cx="18" cy="2" r="2"></circle>
                    </g>
                </g>
                <g id="编组-26" transform="translate(314.013368, 78.453394) rotate(6.000000) translate(-314.013368, -78.453394) translate(294.513368, 62.953394)">
                    <path d="M15.8667906,1.72803993e-11 C19.1795501,1.72803993e-11 25.5572865,1.72803993e-11 35,1.72803993e-11 C37.209139,1.72803993e-11 39,1.790861 39,4 L39,21 C39,23.209139 37.209139,25 35,25 L31.185,25 L31.185076,29.803352 C31.185076,29.9721147 31.1423802,30.1374193 31.0618741,30.2842129 L30.9944814,30.3906022 C30.6951005,30.8034798 30.1392678,30.9197283 29.7039314,30.6801145 L29.5978258,30.6127575 L21.862,25 L4,25 C1.790861,25 -9.09494702e-12,23.209139 -9.09494702e-12,21 L-9.09494702e-12,4 C-9.09494702e-12,1.790861 1.790861,1.72803993e-11 4,1.72803993e-11 C7.0176234,1.72803993e-11 9.28084095,1.72803993e-11 10.7896526,1.72803993e-11" id="路径" stroke="#0F1358" fill="#FFFFFF" stroke-linecap="round" stroke-linejoin="round"></path>
                    <g id="编组" transform="translate(11.708798, 4.802405)" fill="#5365EA" fill-rule="nonzero">
                        <path d="M0.278768734,5.89465083 L14.3417919,0.0345882494 C14.4943814,-0.0290093788 14.669791,-0.00112827083 14.7951409,0.10664745 C14.9204908,0.21442317 14.974354,0.383670425 14.9343511,0.544069874 L11.4314613,14.55681 C11.3948638,14.702698 11.2858633,14.8195414 11.1428656,14.8661711 C10.9998679,14.9128008 10.8429419,14.8826725 10.7273796,14.7864019 L7.68582589,12.2521624 C7.51190213,12.1074664 7.25632804,12.1193168 7.09654018,12.2794862 L5.53640685,13.8385284 C5.41136969,13.9628247 5.22392264,13.9998811 5.06099521,13.9325127 C4.89806779,13.8651442 4.79152887,13.7065282 4.79078643,13.5302236 L4.79078643,10.2350277 C4.79068987,10.1190074 4.83670074,10.0077038 4.91869121,9.92561683 L11.263079,3.58124402 L3.77292929,9.19966717 C3.61071406,9.32116697 3.38627245,9.31528991 3.23063815,9.18546716 L0.16726124,6.63372429 C0.050033299,6.53582129 -0.00762362672,6.38385165 0.0151620516,6.23282781 C0.0379477298,6.08180397 0.137874304,5.95360969 0.278768734,5.89465083 Z" id="路径"></path>
                    </g>
                </g>
                <g id="编组" transform="translate(292.000000, 111.000000)" fill="#D9E6F2" fill-rule="nonzero" opacity="0.32">
                    <path d="M18.8250937,2.95207781 C19.4744585,2.95207781 20.0008726,3.47849199 20.0008726,4.12785677 L20.0008726,18.8250937 C20.0008726,19.4744585 19.4744585,20.0008726 18.8250937,20.0008726 L1.18840938,20.0008726 C0.539044615,20.0008726 0.0126304495,19.4744585 0.0126304495,18.8250937 L0.0126304495,2.95207781 L18.8250937,2.95207781 Z M17.6493147,14.7098674 L14.7098674,14.7098674 L14.7098674,17.6493147 L17.6493147,17.6493147 L17.6493147,14.7098674 Z M13.5340884,14.7098674 L10.594641,14.7098674 L10.594641,17.6493147 L13.5340884,17.6493147 L13.5340884,14.7098674 Z M13.5340884,10.594641 L10.594641,10.594641 L10.594641,13.5340884 L13.5340884,13.5340884 L13.5340884,10.594641 Z M17.6493147,10.594641 L14.7098674,10.594641 L14.7098674,13.5340884 L17.6493147,13.5340884 L17.6493147,10.594641 Z M7.65519362,10.594641 L2.95207781,10.594641 C2.62739542,10.594641 2.36418833,10.8578481 2.36418833,11.1825305 C2.36418833,11.5072129 2.62739542,11.77042 2.95207781,11.77042 L7.65519362,11.77042 C7.97987602,11.77042 8.2430831,11.5072129 8.2430831,11.1825305 C8.2430831,10.8578481 7.97987602,10.594641 7.65519362,10.594641 L7.65519362,10.594641 Z M17.0614253,6.47941469 L2.95207781,6.47941469 C2.62739542,6.47941469 2.36418834,6.74262177 2.36418834,7.06730416 C2.36418834,7.39198654 2.62739542,7.65519362 2.95207781,7.65519362 L17.0614253,7.65519362 C17.3861077,7.65519362 17.6493147,7.39198654 17.6493147,7.06730416 C17.6493147,6.74262177 17.3861077,6.47941469 17.0614253,6.47941469 Z M8.43885031,0.0126304495 C8.69325385,0.0126304495 8.94079485,0.0951440991 9.14431768,0.247786217 L11.1825305,1.77629888 L0.0126304495,1.77629888 L0.0126304495,1.18840938 C0.0126304495,0.539044615 0.539044615,0.0126304495 1.18840938,0.0126304495 L8.43885031,0.0126304495 Z" id="形状"></path>
                </g>
                <path d="M41,188 L45,188 L45,176 L41,176 L41,188 Z M63,177 C63,175.9 62.1,175 61,175 L54.69,175 L55.64,170.43 L55.67,170.11 C55.67,169.7 55.5,169.32 55.23,169.05 L54.17,168 L47.59,174.59 C47.22,174.95 47,175.45 47,176 L47,186 C47,187.1 47.9,188 49,188 L58,188 C58.83,188 59.54,187.5 59.84,186.78 L62.86,179.73 C62.95,179.5 63,179.26 63,179 L63,177 Z" id="形状" fill-opacity="0.32" fill="#D9E6F2" fill-rule="nonzero"></path>
                <path d="M301,15.7289338 L331,15.7289338 C330.821429,13.7646481 330.017857,12.7825052 328.589286,12.7825052 C326.446429,12.7825052 325.375,13.8539338 324.839286,13.8539338 C324.303571,13.8539338 322.696429,10.1039338 320.017857,9.56821948 C317.339286,9.0325052 316.267857,11.1753623 315.196429,11.1753623 C314.125,11.1753623 314.702601,7.83645531 309.303571,9.56821948 C305.704218,10.7227289 302.936361,12.7763004 301,15.7289338 Z" id="直线-9" fill-opacity="0.32" fill="#D9E6F2"></path>
                <path d="M40.6785153,19.4625618 L91.0530826,19.4625618 C89.0831498,17.1541873 86.8987889,16 84.5,16 C80.9018166,16 77.3995458,18 76.5,18 C75.6004542,18 74.9977292,14 70.5,13 C66.0022708,12 64.2990917,15 62.5,15 C60.7009083,15 57.5657925,6.76737355 48.5,10 C42.4561384,12.1550843 39.8489768,15.3092716 40.6785153,19.4625618 Z" id="直线-9" fill-opacity="0.32" fill="#D9E6F2"></path>
            </g>
        </g>
    </g>
</svg>