<svg xmlns="http://www.w3.org/2000/svg" viewBox="0 0 30 30" class="design-iconfont">
  <g fill-rule="nonzero" fill="none">
    <path d="M4.8046875,27.0705469 L2.9296875,27.0705469 C1.63529297,27.0705469 0.5859375,26.0211914 0.5859375,24.7267969 L0.5859375,2.9296875 C0.5859375,1.63529297 1.63529297,0.5859375 2.9296875,0.5859375 L27.0703125,0.5859375 C28.364707,0.5859375 29.4140625,1.63529297 29.4140625,2.9296875 L29.4140625,24.7267969 C29.4140625,26.0211914 28.364707,27.0705469 27.0703125,27.0705469 L24.6679688,27.0705469 L4.8046875,27.0705469 Z" fill="#FFF"/>
    <path d="M27.0703125,0.5859375 L2.9296875,0.5859375 C1.63529297,0.5859375 0.5859375,1.63529297 0.5859375,2.9296875 L0.5859375,4.8046875 L29.4140625,4.8046875 L29.4140625,2.9296875 C29.4140625,1.63523438 28.364707,0.5859375 27.0703125,0.5859375 Z" fill="#9DBFFF"/>
    <path fill="#231F20" d="M1.23070313 4.82539062L29.0625 4.82539062"/>
    <path fill="#AAC9FF" d="M14.8488281 7.197246120000001A7.65117188 7.65117188 0 1 0 14.8488281 22.499589880000002A7.65117188 7.65117188 0 1 0 14.8488281 7.197246120000001Z"/>
    <path d="M28.8393164,28.8395508 L28.8393164,28.8395508 C28.0727344,29.6061328 26.8299023,29.6061328 26.0633789,28.8395508 L20.2841602,23.060332 L23.0600977,20.2843945 L28.8393164,26.0636133 C29.6058984,26.8301367 29.6058984,28.0729687 28.8393164,28.8395508 Z" fill="#FFCE61"/>
    <path d="M14.9298633,19.0016016 L14.7873633,19.0016016 C13.1850586,19.0016016 11.8860938,17.7026953 11.8860938,16.100332 L11.8860938,15.305332 C11.8860938,13.7030273 13.185,12.4040625 14.7873633,12.4040625 L14.9298633,12.4040625 C16.532168,12.4040625 17.8311328,13.7029688 17.8311328,15.305332 L17.8311328,16.100332 C17.8311328,17.7026367 16.532168,19.0016016 14.9298633,19.0016016 Z" fill="#FF7E96"/>
    <path d="M15.9650977,12.4040625 L13.7520117,12.4040625 L13.7520117,11.808457 C13.7520117,11.2441406 14.2095117,10.7866406 14.7738281,10.7866406 L14.9432812,10.7866406 C15.5075977,10.7866406 15.9650977,11.2441406 15.9650977,11.808457 L15.9650977,12.4040625 Z" fill="#4B7FF5"/>
    <path d="M29.4140625,24.0227344 C29.7376758,24.0227344 30,23.7604102 30,23.4367969 L30,2.9296875 C30,1.31425781 28.6857422,0 27.0703125,0 L2.9296875,0 C1.31425781,0 0,1.31425781 0,2.9296875 L0,24.7267969 C0,26.3422266 1.31425781,27.6564844 2.9296875,27.6564844 L24.0516797,27.6564844 L25.6490625,29.2538672 C26.1459375,29.7507422 26.7986719,29.9991797 27.4513477,29.9991797 C28.1040234,29.9991797 28.7567578,29.7507422 29.2536328,29.2538672 C30.2473828,28.2600586 30.2473828,26.6430469 29.2536328,25.6492383 L23.4744141,19.8700195 C23.3645508,19.7601562 23.2154883,19.6983984 23.0600977,19.6983984 C22.904707,19.6983984 22.7556445,19.7601562 22.6457812,19.8700195 L21.6722461,20.8435547 L21.0701953,20.2415039 C22.325332,18.7954687 23.0859375,16.9092188 23.0859375,14.8485937 C23.0859375,13.0572656 22.5207422,11.3538867 21.4514062,9.92273437 C20.4179297,8.53951172 18.9454687,7.49583984 17.3052539,6.98402344 C16.9964062,6.88763672 16.6677539,7.05990234 16.5713672,7.36880859 C16.4749219,7.67771484 16.6472461,8.00630859 16.9561523,8.10269531 C19.9216406,9.02806641 21.9140625,11.739082 21.9140625,14.8485937 C21.9140625,18.7444922 18.7444922,21.9140039 14.8486523,21.9140039 C10.9528125,21.9140039 7.78324219,18.7444336 7.78324219,14.8485937 C7.78324219,11.7660937 9.75333984,9.06216797 12.6854883,8.12027344 C12.9935742,8.02130859 13.1631445,7.69130859 13.0641797,7.38316406 C12.9652148,7.07501953 12.6350977,6.90568359 12.3271289,7.00453125 C10.6793555,7.53386719 9.26121094,8.55216797 8.22603516,9.94945312 C7.16970703,11.3751562 6.61136719,13.0692773 6.61136719,14.8485937 C6.61136719,19.3906641 10.306582,23.0858789 14.8486523,23.0858789 C16.9092773,23.0858789 18.7955273,22.3252734 20.2415625,21.0701367 L20.8436133,21.6721875 L19.8698437,22.645957 C19.6410352,22.8747656 19.6410352,23.2457812 19.8698437,23.4746484 L22.8798047,26.4846094 L2.9296875,26.4846094 C1.96042969,26.4846094 1.171875,25.6960547 1.171875,24.7267969 L1.171875,5.38763672 C1.19121094,5.38957031 1.21083984,5.390625 1.23070313,5.390625 L28.828125,5.390625 L28.828125,23.4367969 C28.828125,23.7604102 29.0904492,24.0227344 29.4140625,24.0227344 Z M22.0862695,22.0868555 C22.0863867,22.0867383 22.0864453,22.0866797 22.0865625,22.0865625 C22.0866797,22.0864453 22.0867383,22.0863867 22.0868555,22.0862695 L23.0601563,21.1129688 L28.4250586,26.4779297 C28.9619531,27.0148242 28.9619531,27.8883398 28.4250586,28.4251758 C27.8882227,28.9620703 27.0145898,28.9620703 26.4777539,28.4251758 L22.7462695,24.69375 L23.7200391,23.7199805 C23.9488477,23.4911719 23.9488477,23.1201563 23.7200391,22.8912891 C23.4912305,22.6624805 23.1202148,22.6624805 22.8913477,22.8912891 L21.9175781,23.8650586 L21.112793,23.0602734 L22.0862695,22.0868555 Z M1.23070313,4.21875 C1.21083984,4.21875 1.19121094,4.21980469 1.171875,4.22173828 L1.171875,2.9296875 C1.171875,1.96042969 1.96042969,1.171875 2.9296875,1.171875 L27.0703125,1.171875 C28.0395703,1.171875 28.828125,1.96042969 28.828125,2.9296875 L28.828125,4.21875 L1.23070313,4.21875 Z" fill="#0F113A"/>
    <path d="M26.25,2.109375 L13.0116211,2.109375 C12.6880078,2.109375 12.4256836,2.37169922 12.4256836,2.6953125 C12.4256836,3.01892578 12.6880078,3.28125 13.0116211,3.28125 L26.25,3.28125 C26.5736133,3.28125 26.8359375,3.01892578 26.8359375,2.6953125 C26.8359375,2.37169922 26.5736133,2.109375 26.25,2.109375 Z" fill="#0F113A"/>
    <path d="M6.09375,2.109375 C5.93964844,2.109375 5.78847656,2.17207031 5.67949219,2.28105469 C5.57050781,2.39003906 5.5078125,2.54121094 5.5078125,2.6953125 C5.5078125,2.84941406 5.57050781,3.00058594 5.67949219,3.10957031 C5.78847656,3.21855469 5.93964844,3.28125 6.09375,3.28125 C6.24785156,3.28125 6.39902344,3.21855469 6.50800781,3.10957031 C6.61699219,3.00058594 6.6796875,2.84941406 6.6796875,2.6953125 C6.6796875,2.54121094 6.61699219,2.39003906 6.50800781,2.28105469 C6.39902344,2.17207031 6.24785156,2.109375 6.09375,2.109375 Z" fill="#0F113A"/>
    <path d="M3.75,2.109375 C3.59589844,2.109375 3.44472656,2.17207031 3.33574219,2.28105469 C3.22675781,2.39003906 3.1640625,2.54121094 3.1640625,2.6953125 C3.1640625,2.84941406 3.22675781,3.00058594 3.33574219,3.10957031 C3.44472656,3.21855469 3.59589844,3.28125 3.75,3.28125 C3.90410156,3.28125 4.05527344,3.21855469 4.16425781,3.10957031 C4.27324219,3.00058594 4.3359375,2.84941406 4.3359375,2.6953125 C4.3359375,2.54121094 4.27324219,2.39003906 4.16425781,2.28105469 C4.05527344,2.17207031 3.90410156,2.109375 3.75,2.109375 Z" fill="#0F113A"/>
    <path d="M8.4375,2.109375 C8.28339844,2.109375 8.13222656,2.17207031 8.02324219,2.28105469 C7.91425781,2.39003906 7.8515625,2.54121094 7.8515625,2.6953125 C7.8515625,2.84941406 7.91425781,3.00058594 8.02324219,3.10957031 C8.13222656,3.21855469 8.28339844,3.28125 8.4375,3.28125 C8.59160156,3.28125 8.74277344,3.21855469 8.85175781,3.10957031 C8.96074219,3.00058594 9.0234375,2.84941406 9.0234375,2.6953125 C9.0234375,2.54121094 8.96074219,2.39003906 8.85175781,2.28105469 C8.74277344,2.17207031 8.59160156,2.109375 8.4375,2.109375 Z" fill="#0F113A"/>
    <path d="M14.8655859,7.78318359 C14.8664648,7.78318359 14.8673437,7.78318359 14.8682227,7.78318359 C15.1906055,7.78318359 15.4526953,7.52255859 15.4541072,7.19982422 C15.4555078,6.87626953 15.1943555,6.61271484 14.8707422,6.61130859 L14.8486523,6.61130859 C14.5250391,6.61130859 14.2627148,6.87363281 14.2627148,7.19724609 C14.2627148,7.52085937 14.5250391,7.78318359 14.8486523,7.78318359 L14.8655859,7.78318359 Z" fill="#000"/>
    <path d="M3.1640625,23.671875 C3.1640625,23.9954883 3.42638672,24.2578125 3.75,24.2578125 L7.75388672,24.2578125 C8.0775,24.2578125 8.33982422,23.9954883 8.33982422,23.671875 C8.33982422,23.3482617 8.0775,23.0859375 7.75388672,23.0859375 L3.75,23.0859375 C3.42638672,23.0859375 3.1640625,23.3482617 3.1640625,23.671875 Z" fill="#0F113A"/>
    <path d="M6.33216797,20.7421875 L3.75,20.7421875 C3.42638672,20.7421875 3.1640625,21.0045117 3.1640625,21.328125 C3.1640625,21.6517383 3.42638672,21.9140625 3.75,21.9140625 L6.33216797,21.9140625 C6.65578125,21.9140625 6.91810547,21.6517383 6.91810547,21.328125 C6.91810547,21.0045117 6.65578125,20.7421875 6.33216797,20.7421875 Z" fill="#0F113A"/>
    <path d="M10.3951172,24.0861328 C10.5041016,23.9771484 10.5662109,23.8259766 10.5662109,23.671875 C10.5662109,23.5177734 10.5041016,23.3666016 10.3951172,23.2576172 C10.2855469,23.1486328 10.1349609,23.0859375 9.98027344,23.0859375 C9.82617187,23.0859375 9.675,23.1486328 9.56601562,23.2576172 C9.45703125,23.3666016 9.39433594,23.5177734 9.39433594,23.671875 C9.39433594,23.8259766 9.45703125,23.9771484 9.56601562,24.0861328 C9.675,24.1951172 9.82617187,24.2578125 9.98027344,24.2578125 C10.1349609,24.2578125 10.2855469,24.1951172 10.3951172,24.0861328 Z" fill="#0F113A"/>
    <path d="M26.25,6.9140625 L21.6722461,6.9140625 C21.3486328,6.9140625 21.0863086,7.17638672 21.0863086,7.5 C21.0863086,7.82361328 21.3486328,8.0859375 21.6722461,8.0859375 L26.25,8.0859375 C26.5736133,8.0859375 26.8359375,7.82361328 26.8359375,7.5 C26.8359375,7.17638672 26.5736133,6.9140625 26.25,6.9140625 Z" fill="#0F113A"/>
    <path d="M26.25,9.2578125 L23.9794922,9.2578125 C23.6558789,9.2578125 23.3935547,9.52013672 23.3935547,9.84375 C23.3935547,10.1673633 23.6558789,10.4296875 23.9794922,10.4296875 L26.25,10.4296875 C26.5736133,10.4296875 26.8359375,10.1673633 26.8359375,9.84375 C26.8359375,9.52013672 26.5736133,9.2578125 26.25,9.2578125 Z" fill="#0F113A"/>
    <path d="M14.9432813,10.2007031 L14.7738281,10.2007031 C13.8873047,10.2007031 13.1660742,10.9219336 13.1660742,11.808457 L13.1660742,12.2193164 C12.6196289,12.5075977 12.1587891,12.9365039 11.8317188,13.4579297 L11.2804688,12.9031055 C11.0523633,12.6735352 10.6813477,12.6723633 10.4518359,12.9004687 C10.2223242,13.1285742 10.2210938,13.4995312 10.4491992,13.7291016 L11.3630273,14.6488477 C11.3340234,14.8003711 11.3143945,14.9551758 11.3057227,15.1129102 L10.3975781,15.1129102 C10.0739648,15.1129102 9.81164063,15.3752344 9.81164063,15.6988477 C9.81164063,16.0224609 10.0739648,16.2847852 10.3975781,16.2847852 L11.3051367,16.2847852 C11.313457,16.4441602 11.3332617,16.6004297 11.3624414,16.7534766 L10.4492578,17.6726367 C10.2211523,17.902207 10.2223828,18.2732227 10.4518945,18.5012695 C10.5662109,18.6148242 10.7155664,18.671543 10.8648633,18.671543 C11.0154492,18.671543 11.1660352,18.6138281 11.2805273,18.4985742 L11.8302539,17.9452734 C12.4471875,18.9304687 13.5417188,19.5874805 14.7874219,19.5874805 L14.9299219,19.5874805 C16.1704102,19.5874805 17.260957,18.9358594 17.8792383,17.9574609 L18.4168359,18.4985156 C18.5313867,18.6137695 18.6819141,18.6714844 18.8325,18.6714844 C18.9817969,18.6714844 19.1312109,18.6147656 19.2454688,18.5012109 C19.4749805,18.2731055 19.4762109,17.9021484 19.2481055,17.6725781 L18.3517969,16.7704102 C18.3825,16.6132617 18.4030664,16.4525977 18.4118555,16.2887109 L19.2997852,16.2887109 C19.6233984,16.2887109 19.8857227,16.0263867 19.8857227,15.7027734 C19.8857227,15.3791602 19.6233984,15.1168359 19.2997852,15.1168359 L18.4118555,15.1168359 C18.4030078,14.9518359 18.3823242,14.7899414 18.3512109,14.6317383 L19.2481641,13.7289844 C19.4762695,13.4994141 19.4750391,13.1283984 19.2455273,12.9003516 C19.015957,12.6722461 18.6449414,12.6734766 18.4168945,12.9029883 L17.8777734,13.445625 C17.5511719,12.9297656 17.0933789,12.5051953 16.5512109,12.2191992 L16.5512109,11.8083398 C16.5510352,10.9219336 15.8298047,10.2007031 14.9432813,10.2007031 Z M14.3380078,11.818125 L14.3380078,11.808457 C14.3380078,11.5681055 14.5335352,11.3725781 14.7738867,11.3725781 L14.9433398,11.3725781 C15.1836914,11.3725781 15.3792188,11.5681055 15.3792188,11.808457 L15.3792188,11.818125 L14.9299219,11.818125 L14.7874219,11.818125 L14.3380078,11.818125 Z M17.2451367,15.305332 L17.2451367,16.100332 C17.2451367,17.3769727 16.2065039,18.4156055 14.9298047,18.4156055 L14.7873047,18.4156055 C13.5106055,18.4156055 12.4719727,17.3769727 12.4719727,16.100332 L12.4719727,15.305332 C12.4719727,14.0286328 13.5106055,12.99 14.7873047,12.99 L14.9298047,12.99 C16.2065039,12.99 17.2451367,14.0286328 17.2451367,15.305332 Z" fill="#000"/>
  </g>
</svg>
