<svg xmlns="http://www.w3.org/2000/svg" viewBox="0 0 31 30" class="design-iconfont">
  <g transform="translate(1 1)" fill="none" fill-rule="evenodd">
    <path d="M22,19.4041688 L22,26 C22,27.1045695 21.1045695,28 20,28 L2,28 C0.8954305,28 0,27.1045695 0,26 L0,5 C0,3.8954305 0.8954305,3 2,3 L20,3 C21.1045695,3 22,3.8954305 22,5 L22,13.8107479 M22,16.6 C22,16.6 22,16.6 22,16.6" stroke="#0F113A" stroke-width="1.2" fill="#FFF" stroke-linecap="round"/>
    <path d="M2,3 L20,3 C21.1045695,3 22,3.8954305 22,5 L22,8 L22,8 L0,8 L0,5 C-1.3527075e-16,3.8954305 0.8954305,3 2,3 Z" stroke="#0F113A" stroke-width="1.2" fill="#FF7E96"/>
    <rect fill="#0F113A" transform="matrix(1 0 0 -1 0 21.2)" x="9" y="10" width="10" height="1.2" rx=".6"/>
    <rect fill="#0F113A" transform="matrix(1 0 0 -1 0 33.2)" x="9" y="16" width="10" height="1.2" rx=".6"/>
    <rect fill="#0F113A" transform="matrix(1 0 0 -1 0 45.2)" x="9" y="22" width="10" height="1.2" rx=".6"/>
    <path stroke="#0F113A" stroke-width="1.2" fill="#FFCE61" d="M4.5 16A1.5 1.5 0 1 0 4.5 19A1.5 1.5 0 1 0 4.5 16Z"/>
    <path stroke="#0F113A" stroke-width="1.2" fill="#FFCE61" d="M4.5 22A1.5 1.5 0 1 0 4.5 25A1.5 1.5 0 1 0 4.5 22Z"/>
    <rect fill="#0F113A" transform="matrix(1 0 0 -1 0 25.2)" x="9" y="12" width="6" height="1.2" rx=".6"/>
    <rect fill="#0F113A" transform="matrix(1 0 0 -1 0 37.2)" x="9" y="18" width="6" height="1.2" rx=".6"/>
    <rect fill="#0F113A" transform="matrix(1 0 0 -1 0 49.2)" x="9" y="24" width="6" height="1.2" rx=".6"/>
    <path stroke="#0F113A" stroke-width="1.2" stroke-linecap="round" stroke-linejoin="round" transform="rotate(-45 4.394113 11.420127)" d="M5.89411268 12.2299354L2.89411268 12.2582171 2.89411268 10.5820372"/>
    <path d="M4.5,0 C5.32842712,-1.52179594e-16 6,0.671572875 6,1.5 L6,3.9179412 C6,4.74636832 5.32842712,5.4179412 4.5,5.4179412 C3.67157288,5.4179412 3,4.74636832 3,3.9179412 L3,1.5 C3,0.671572875 3.67157288,1.52179594e-16 4.5,0 Z" stroke="#0F113A" stroke-width="1.2" fill="#FFF"/>
    <path d="M17.3333333,0 C18.1617605,-1.52179594e-16 18.8333333,0.671572875 18.8333333,1.5 L18.8333333,3.9179412 C18.8333333,4.74636832 18.1617605,5.4179412 17.3333333,5.4179412 C16.5049062,5.4179412 15.8333333,4.74636832 15.8333333,3.9179412 L15.8333333,1.5 C15.8333333,0.671572875 16.5049062,1.52179594e-16 17.3333333,0 Z" stroke="#0F113A" stroke-width="1.2" fill="#FFF"/>
    <path d="M10.9166667,0 C11.7450938,-1.52179594e-16 12.4166667,0.671572875 12.4166667,1.5 L12.4166667,3.9179412 C12.4166667,4.74636832 11.7450938,5.4179412 10.9166667,5.4179412 C10.0882395,5.4179412 9.41666667,4.74636832 9.41666667,3.9179412 L9.41666667,1.5 C9.41666667,0.671572875 10.0882395,1.52179594e-16 10.9166667,0 Z" stroke="#0F113A" stroke-width="1.2" fill="#FFF"/>
    <path d="M25,24 L25,5.9047619 C25,4.85279095 25.8954305,4 27,4 C28.1045695,4 29,4.85279095 29,5.9047619 L29,24" stroke="#0F113A" stroke-width="1.2" fill="#AAC9FF"/>
    <path d="M26.996944,25.08529 L28.7705757,28.5 L25.2255945,28.5 L26.996944,25.08529 Z" stroke="#0F113A" fill="#92A6C8" transform="rotate(-180 26.998329 26.5)"/>
    <path d="M27,4 C28.1045695,4 29,4.8954305 29,6 L29,8 L29,8 L25,8 L25,6 C25,4.8954305 25.8954305,4 27,4 Z" stroke="#0F113A" stroke-width="1.2" fill="#FFCE61"/>
  </g>
</svg>
