<svg xmlns="http://www.w3.org/2000/svg" viewBox="0 0 30 30" class="design-iconfont">
  <g transform="translate(1 1)" fill="none" fill-rule="evenodd">
    <path d="M8.7095852,24 C8.7095852,24 8.7095852,24 8.7095852,24 M6.32095112,24 L2,24 C0.8954305,24 0,23.2478384 0,22.32 L0,4.68 C0,3.75216162 0.8954305,3 2,3 L20,3 C21.1045695,3 22,3.75216162 22,4.68 L22,16.7795018 L22,22.32 C22,23.2478384 21.1045695,24 20,24 C17.0520748,24 14.0232674,24 10.9135779,24" stroke="#0F113A" stroke-width="1.2" fill="#FFF" stroke-linecap="round"/>
    <path d="M2,3 L20,3 C21.1045695,3 22,3.8954305 22,5 L22,8 L22,8 L0,8 L0,5 C-1.3527075e-16,3.8954305 0.8954305,3 2,3 Z" stroke="#0F113A" stroke-width="1.2" fill="#FF7E96"/>
    <path d="M4.5,0 C5.32842712,-1.52179594e-16 6,0.671572875 6,1.5 L6,3.9179412 C6,4.74636832 5.32842712,5.4179412 4.5,5.4179412 C3.67157288,5.4179412 3,4.74636832 3,3.9179412 L3,1.5 C3,0.671572875 3.67157288,1.52179594e-16 4.5,0 Z" stroke="#0F113A" stroke-width="1.2" fill="#FFF"/>
    <path d="M17.3333333,0 C18.1617605,-1.52179594e-16 18.8333333,0.671572875 18.8333333,1.5 L18.8333333,3.9179412 C18.8333333,4.74636832 18.1617605,5.4179412 17.3333333,5.4179412 C16.5049062,5.4179412 15.8333333,4.74636832 15.8333333,3.9179412 L15.8333333,1.5 C15.8333333,0.671572875 16.5049062,1.52179594e-16 17.3333333,0 Z" stroke="#0F113A" stroke-width="1.2" fill="#FFF"/>
    <path d="M10.9166667,0 C11.7450938,-1.52179594e-16 12.4166667,0.671572875 12.4166667,1.5 L12.4166667,3.9179412 C12.4166667,4.74636832 11.7450938,5.4179412 10.9166667,5.4179412 C10.0882395,5.4179412 9.41666667,4.74636832 9.41666667,3.9179412 L9.41666667,1.5 C9.41666667,0.671572875 10.0882395,1.52179594e-16 10.9166667,0 Z" stroke="#0F113A" stroke-width="1.2" fill="#FFF"/>
    <path d="M12,11 L17,15.5 L12,19.8102797 L11.999,17 L5,17 L5,14 L11.999,14 L12,11 Z" stroke="#0F113A" stroke-width="1.2" fill="#FFCE61" stroke-linejoin="round"/>
    <rect stroke="#0F113A" stroke-width="1.2" fill="#AAC9FF" x="16" y="18" width="12" height="10" rx="2"/>
    <rect fill="#0F113A" x="18" y="23" width="5" height="1.2" rx=".6"/>
    <rect fill="#0F113A" transform="rotate(90 20.5 23.6)" x="18" y="23" width="5" height="1.2" rx=".6"/>
    <path stroke="#0F113A" stroke-width="1.2" stroke-linecap="round" stroke-linejoin="round" d="M23.6144628 21.1L25.0016689 21.1 25.0016689 26.1"/>
  </g>
</svg>
