<?xml version="1.0" encoding="UTF-8"?>
<svg width="18px" height="18px" viewBox="0 0 18 18" version="1.1" xmlns="http://www.w3.org/2000/svg" xmlns:xlink="http://www.w3.org/1999/xlink">
    <title>切片</title>
    <defs>
        <linearGradient x1="100%" y1="3.24673326%" x2="0%" y2="100%" id="linearGradient-1">
            <stop stop-color="#76A1FF" offset="0%"></stop>
            <stop stop-color="#3574FF" offset="100%"></stop>
        </linearGradient>
    </defs>
    <g id="页面-1" stroke="none" stroke-width="1" fill="none" fill-rule="evenodd">
        <g id="在线预览-文件夹-列表视图" transform="translate(-330.000000, -465.000000)">
            <g id="知识库tree" transform="translate(276.000000, 128.000000)">
                <g id="tree-item/1" transform="translate(30.000000, 328.000000)">
                    <g id="ic/check_box_outline" transform="translate(24.000000, 9.000000)">
                        <polygon id="路径" points="0 0 18 0 18 18 0 18"></polygon>
                        <path d="M3.75,0.75 L17.25,0.75 L17.25,14.25 C17.25,15.9068542 15.9068542,17.25 14.25,17.25 L0.75,17.25 L0.75,3.75 C0.75,2.09314575 2.09314575,0.75 3.75,0.75 Z" id="矩形" fill="url(#linearGradient-1)"></path>
                        <path d="M7.78022377,6.27490627 L5.4979248,6.27490627 C5.15389293,6.27490627 4.875,6.01189454 4.875,5.68745313 C4.875,5.36301173 5.15389293,5.1 5.4979248,5.1 L12.4868774,5.1 C12.8393028,5.1 13.125,5.36942853 13.125,5.70178547 C13.125,6.00676139 12.883006,6.25843507 12.570224,6.29534951 L12.4868887,6.3 L12.4868887,6.3 L7.78022377,6.27490627 L7.78022377,6.27490627 Z M8.00274627,9.57521758 L5.4979248,9.57490627 C5.15389293,9.57490627 4.875,9.31189454 4.875,8.98745313 C4.875,8.66301173 5.15389293,8.4 5.4979248,8.4 L12.4868774,8.4 C12.8393028,8.4 13.125,8.66942853 13.125,9.00178547 C13.125,9.30676139 12.883006,9.55843507 12.570224,9.59534951 L12.4868887,9.6 L12.4868887,9.6 L8.00274627,9.57521758 L8.00274627,9.57521758 Z M6.51570938,12.8769074 L5.4979248,12.8769074 C5.15389293,12.8769074 4.875,12.6134477 4.875,12.2884537 C4.875,11.9634597 5.15389293,11.7 5.4979248,11.7 L9.48687744,11.7 C9.8393028,11.7 10.125,11.9698874 10.125,12.3028104 C10.125,12.6072717 9.88382511,12.8585207 9.57210192,12.8953728 L9.48690518,12.9 L9.48690518,12.9 L7.21504465,12.8799875 C6.98193923,12.8779341 6.74882494,12.8769074 6.51570938,12.8769074 Z" id="形状结合" fill="#FFFFFF"></path>
                    </g>
                </g>
            </g>
        </g>
    </g>
</svg>