<?xml version="1.0" encoding="UTF-8"?>
<svg width="18px" height="18px" viewBox="0 0 18 18" version="1.1" xmlns="http://www.w3.org/2000/svg" xmlns:xlink="http://www.w3.org/1999/xlink">
    <title>切片</title>
    <g id="页面-1" stroke="none" stroke-width="1" fill="none" fill-rule="evenodd">
        <g id="在线预览-文件夹-列表视图" transform="translate(-306.000000, -213.000000)">
            <g id="知识库tree" transform="translate(276.000000, 128.000000)">
                <g id="tree-item/1" transform="translate(6.000000, 84.000000)">
                    <g id="ic/check_box_outline" transform="translate(24.000000, 1.000000)">
                        <polygon id="路径" points="0 0 18 0 18 18 0 18"></polygon>
                        <g id="opened_folder" transform="translate(0.000000, 2.172166)" fill-rule="nonzero">
                            <path d="M14.5091467,1.70695843 L7.68131295,1.70695843 L5.97435452,0 L1.70695845,0 C0.768131315,0 0,0.768131295 0,1.70695843 L0,11.948709 C0,12.8875362 0.768131295,13.6556674 1.70695845,13.6556674 L14.9358863,13.6556674 C15.6613436,13.6556674 16.2161051,13.100906 16.2161051,12.3754486 L16.2161051,3.41391685 C16.2161051,2.47508972 15.4479738,1.70695843 14.5091467,1.70695843 Z" id="路径" fill="#FAAD14"></path>
                            <path d="M16.301453,4.26739607 L4.82215758,4.26739607 C4.01135233,4.26739607 3.28589499,4.86483153 3.15787311,5.67563678 L1.70695845,13.6556674 L15.234604,13.6556674 C16.0454093,13.6556674 16.7708666,13.058232 16.8988885,12.2474267 L17.9657375,6.27307224 C18.1791073,5.24889718 17.3683021,4.26739607 16.301453,4.26739607 Z" id="路径" fill="#FFCD69"></path>
                        </g>
                    </g>
                </g>
            </g>
        </g>
    </g>
</svg>