<?xml version="1.0" encoding="UTF-8"?>
<svg width="18px" height="18px" viewBox="0 0 18 18" version="1.1" xmlns="http://www.w3.org/2000/svg" xmlns:xlink="http://www.w3.org/1999/xlink">
    <title>切片</title>
    <defs>
        <linearGradient x1="76.2333254%" y1="14.2851269%" x2="13.2653061%" y2="100%" id="linearGradient-1">
            <stop stop-color="#FF888B" offset="0%"></stop>
            <stop stop-color="#FF4347" offset="100%"></stop>
        </linearGradient>
    </defs>
    <g id="页面-1" stroke="none" stroke-width="1" fill="none" fill-rule="evenodd">
        <g id="在线预览-文件夹-列表视图" transform="translate(-330.000000, -357.000000)">
            <g id="知识库tree" transform="translate(276.000000, 128.000000)">
                <g id="tree-item/1" transform="translate(30.000000, 220.000000)">
                    <g id="ic/check_box_outline" transform="translate(24.000000, 9.000000)">
                        <polygon id="路径" points="0 0 18 0 18 18 0 18"></polygon>
                        <g id="编组" transform="translate(1.285714, 0.000000)">
                            <path d="M10.2857143,0 L15.4285714,4.39285714 L15.4285714,16.0714286 C15.4285714,17.1365492 14.5651206,18 13.5,18 L1.92857143,18 C0.86345084,18 0,17.1365492 0,16.0714286 L0,1.92857143 C0,0.86345084 0.86345084,0 1.92857143,0 L10.2857143,0 Z" id="路径" fill="url(#linearGradient-1)"></path>
                            <polygon id="路径" fill="#FF4347" fill-rule="nonzero" points="10.2857143 4.39285714 15.4285714 4.39285714 10.2857143 0"></polygon>
                        </g>
                        <path d="M11.985567,12.9094026 C11.3652799,12.8634554 10.7679663,12.6337195 10.2855208,12.2201947 C9.34360327,12.4269571 8.44763296,12.7256138 7.55166265,13.0931914 C6.83948113,14.3567393 6.1732468,15 5.59890686,15 C5.48403887,15 5.34619728,14.9770264 5.2543029,14.9081056 C5.00159332,14.7932376 4.86375174,14.540528 4.86375174,14.2878185 C4.86375174,14.0810561 4.90969893,13.5067162 7.0921907,12.5647987 C7.59760985,11.6458548 7.988161,10.7039373 8.30979138,9.71607256 C8.03410821,9.16470621 7.43679467,7.80926396 7.85031942,7.12005603 C7.988161,6.86734646 8.26384418,6.72950487 8.56250095,6.75247846 C8.79223692,6.75247846 9.0219729,6.86734645 9.15981448,7.05113523 C9.45847125,7.46465999 9.43549765,8.3376567 9.0449465,9.62417816 C9.41252406,10.3133861 9.8949696,10.9336732 10.4693095,11.462066 C10.9517551,11.3701716 11.4342006,11.3012508 11.9166462,11.3012508 C12.9964053,11.3242244 13.1572205,11.8296435 13.1342469,12.1283003 C13.1342469,12.9094026 12.3761181,12.9094026 11.985567,12.9094026 L11.985567,12.9094026 Z M5.55295966,14.3337657 L5.62188046,14.3107921 C5.94351082,14.1959241 6.1962204,13.9661881 6.38000917,13.6675313 C6.03540521,13.8053729 5.75972204,14.0351089 5.55295966,14.3337657 Z M8.60844814,7.4416864 L8.53952735,7.4416864 C8.51655375,7.4416864 8.47060656,7.4416864 8.44763296,7.46465999 C8.35573856,7.85521115 8.42465936,8.26873591 8.58547454,8.63631347 C8.72331613,8.24576231 8.72331613,7.83223755 8.60844814,7.4416864 L8.60844814,7.4416864 Z M8.76926333,10.772858 L8.74628973,10.8188052 L8.72331613,10.7958316 C8.51655375,11.3242244 8.28681778,11.8526171 8.0341082,12.3580363 L8.0800554,12.3350627 L8.0800554,12.3810099 C8.58547454,12.1972211 9.13684088,12.0364059 9.64226003,11.9215379 L9.61928644,11.8985643 L9.68820723,11.8985643 C9.34360326,11.5539604 9.0219729,11.1634092 8.76926333,10.772858 L8.76926333,10.772858 Z M11.8936726,11.9904587 C11.6869102,11.9904587 11.5031214,11.9904587 11.2963591,12.0364059 C11.526095,12.1512739 11.755831,12.1972211 11.985567,12.2201947 C12.1463822,12.2431683 12.3071974,12.2201947 12.4450389,12.1742475 C12.4450389,12.1053267 12.3531446,11.9904587 11.8936726,11.9904587 Z" id="形状" fill="#FFFFFF" fill-rule="nonzero"></path>
                    </g>
                </g>
            </g>
        </g>
    </g>
</svg>