<?xml version="1.0" encoding="UTF-8"?>
<svg width="18px" height="18px" viewBox="0 0 18 18" version="1.1" xmlns="http://www.w3.org/2000/svg" xmlns:xlink="http://www.w3.org/1999/xlink">
    <title>切片</title>
    <defs>
        <linearGradient x1="76.2333254%" y1="14.2851269%" x2="13.2653061%" y2="100%" id="linearGradient-1">
            <stop stop-color="#FF8F6C" offset="0%"></stop>
            <stop stop-color="#FF5A28" offset="100%"></stop>
        </linearGradient>
    </defs>
    <g id="页面-1" stroke="none" stroke-width="1" fill="none" fill-rule="evenodd">
        <g id="在线预览-文件夹-列表视图" transform="translate(-354.000000, -321.000000)">
            <g id="知识库tree" transform="translate(276.000000, 128.000000)">
                <g id="tree-item/1" transform="translate(54.000000, 184.000000)">
                    <g id="ic/check_box_outline" transform="translate(24.000000, 9.000000)">
                        <polygon id="路径" points="0 0 18 0 18 18 0 18"></polygon>
                        <g id="编组" transform="translate(1.285714, 0.000000)">
                            <path d="M10.2857143,0 L15.4285714,4.39285714 L15.4285714,16.0714286 C15.4285714,17.1365492 14.5651206,18 13.5,18 L1.92857143,18 C0.86345084,18 0,17.1365492 0,16.0714286 L0,1.92857143 C0,0.86345084 0.86345084,0 1.92857143,0 L10.2857143,0 Z" id="路径" fill="url(#linearGradient-1)"></path>
                            <polygon id="路径" fill="#FF5A28" fill-rule="nonzero" points="10.2857143 4.39285714 15.4285714 4.39285714 10.2857143 0"></polygon>
                        </g>
                        <g id="P" transform="translate(6.223755, 6.750000)" fill="#FFFFFF" fill-rule="nonzero">
                            <path d="M1.24584961,4.63476562 L1.24584961,7.46484375 L0,7.46484375 L0,0 L2.91723633,0 C3.7409668,0 4.3861084,0.212768555 4.85266113,0.638305664 C5.31921387,1.06384277 5.55249023,1.62353516 5.55249023,2.31738281 C5.55249023,3.01806641 5.31921387,3.57946777 4.85266113,4.00158691 C4.3861084,4.42370605 3.7409668,4.63476562 2.91723633,4.63476562 L1.24584961,4.63476562 Z M1.24584961,3.63500977 L2.91723633,3.63500977 C3.37866211,3.63500977 3.72558594,3.51196289 3.95800781,3.26586914 C4.19042969,3.01977539 4.30664062,2.70703125 4.30664062,2.32763672 C4.30664062,1.94824219 4.19042969,1.63208008 3.95800781,1.37915039 C3.72558594,1.1262207 3.37866211,0.999755859 2.91723633,0.999755859 L1.24584961,0.999755859 L1.24584961,3.63500977 Z" id="形状"></path>
                        </g>
                    </g>
                </g>
            </g>
        </g>
    </g>
</svg>