<?xml version="1.0" encoding="UTF-8"?>
<svg width="18px" height="18px" viewBox="0 0 18 18" version="1.1" xmlns="http://www.w3.org/2000/svg" xmlns:xlink="http://www.w3.org/1999/xlink">
    <title>切片</title>
    <defs>
        <linearGradient x1="75.50908%" y1="14.4000373%" x2="13.2653061%" y2="100%" id="linearGradient-1">
            <stop stop-color="#9CA1BD" offset="0%"></stop>
            <stop stop-color="#666C8C" offset="100%"></stop>
        </linearGradient>
    </defs>
    <g id="页面-1" stroke="none" stroke-width="1" fill="none" fill-rule="evenodd">
        <g id="在线预览-文件夹-列表视图" transform="translate(-330.000000, -393.000000)">
            <g id="知识库tree" transform="translate(276.000000, 128.000000)">
                <g id="tree-item/1" transform="translate(30.000000, 256.000000)">
                    <g id="ic/check_box_outline" transform="translate(24.000000, 9.000000)">
                        <polygon id="路径" points="0 0 18 0 18 18 0 18"></polygon>
                        <g id="编组" transform="translate(1.285714, 0.000000)" fill-rule="nonzero">
                            <path d="M10.2857143,0 L15.4285714,4.39285714 L15.4285714,16.0714286 C15.4285714,17.1365492 14.5651206,18 13.5,18 L1.92857143,18 C0.86345084,18 0,17.1365492 0,16.0714286 L0,1.92857143 C0,0.86345084 0.86345084,0 1.92857143,0 L10.2857143,0 Z" id="路径" fill="url(#linearGradient-1)"></path>
                            <polygon id="路径" fill="#666C8C" points="10.2857143 4.39285714 15.4285714 4.39285714 10.2857143 0"></polygon>
                        </g>
                        <g id="？" transform="translate(6.621750, 6.570844)" fill="#FFFFFF" fill-rule="nonzero">
                            <path d="M2.4885,0 C1.7115,0 1.1025,0.2205 0.6615,0.672 C0.2205,1.113 0,1.7115 0,2.478 L1.1025,2.478 C1.1025,2.016 1.197,1.659 1.386,1.407 C1.596,1.1025 1.9425,0.9555 2.415,0.9555 C2.793,0.9555 3.0975,1.0605 3.3075,1.2705 C3.507,1.4805 3.612,1.764 3.612,2.1315 C3.612,2.4045 3.507,2.6565 3.318,2.898 L3.1395,3.0975 C2.4885,3.675 2.0895,4.1055 1.953,4.3995 C1.806,4.6725 1.743,5.0085 1.743,5.397 L1.743,5.5755 L2.8665,5.5755 L2.8665,5.397 C2.8665,5.145 2.919,4.914 3.0345,4.704 C3.129,4.515 3.276,4.326 3.4755,4.158 C3.969,3.7275 4.263,3.4545 4.3575,3.339 C4.62,3.003 4.7565,2.5725 4.7565,2.058 C4.7565,1.428 4.5465,0.924 4.1265,0.5565 C3.7065,0.1785 3.1605,0 2.4885,0 Z M2.2995,6.1425 C2.0895,6.1425 1.9005,6.2055 1.7535,6.3525 C1.6065,6.489 1.533,6.6675 1.533,6.888 C1.533,7.098 1.6065,7.2765 1.7535,7.4235 C1.9005,7.5705 2.0895,7.644 2.2995,7.644 C2.5095,7.644 2.6985,7.5705 2.8455,7.434 C2.9925,7.287 3.0765,7.1085 3.0765,6.888 C3.0765,6.6675 3.003,6.489 2.856,6.3525 C2.709,6.2055 2.52,6.1425 2.2995,6.1425 Z" id="形状"></path>
                        </g>
                    </g>
                </g>
            </g>
        </g>
    </g>
</svg>