<?xml version="1.0" encoding="UTF-8"?>
<svg width="18px" height="18px" viewBox="0 0 18 18" version="1.1" xmlns="http://www.w3.org/2000/svg" xmlns:xlink="http://www.w3.org/1999/xlink">
    <title>切片</title>
    <defs>
        <linearGradient x1="75.50908%" y1="14.4000373%" x2="13.2653061%" y2="100%" id="linearGradient-1">
            <stop stop-color="#55DCA7" offset="0%"></stop>
            <stop stop-color="#00BB72" offset="100%"></stop>
        </linearGradient>
    </defs>
    <g id="页面-1" stroke="none" stroke-width="1" fill="none" fill-rule="evenodd">
        <g id="在线预览-文件夹-列表视图" transform="translate(-330.000000, -429.000000)">
            <g id="知识库tree" transform="translate(276.000000, 128.000000)">
                <g id="tree-item/1" transform="translate(30.000000, 292.000000)">
                    <g id="ic/check_box_outline" transform="translate(24.000000, 9.000000)">
                        <polygon id="路径" points="0 0 18 0 18 18 0 18"></polygon>
                        <g id="编组" transform="translate(1.285714, 0.000000)" fill-rule="nonzero">
                            <path d="M10.2857143,0 L15.4285714,4.39285714 L15.4285714,16.0714286 C15.4285714,17.1365492 14.5651206,18 13.5,18 L1.92857143,18 C0.86345084,18 0,17.1365492 0,16.0714286 L0,1.92857143 C0,0.86345084 0.86345084,0 1.92857143,0 L10.2857143,0 Z" id="路径" fill="url(#linearGradient-1)"></path>
                            <polygon id="路径" fill="#00BB72" points="10.2857143 4.39285714 15.4285714 4.39285714 10.2857143 0"></polygon>
                        </g>
                        <g id="X" transform="translate(5.893066, 6.750000)" fill="#FFFFFF" fill-rule="nonzero">
                            <polygon id="路径" points="3.07617188 2.75830078 4.65014648 0 6.12670898 0 3.82983398 3.70166016 6.21386719 7.46484375 4.71679688 7.46484375 3.09667969 4.66040039 1.4765625 7.46484375 0 7.46484375 2.34814453 3.70166016 0.0512695312 0 1.51757812 0"></polygon>
                        </g>
                    </g>
                </g>
            </g>
        </g>
    </g>
</svg>